<svg xmlns:dc="http://purl.org/dc/elements/1.1/"
     xmlns:cc="http://creativecommons.org/ns#"
     xmlns:rdf="http://www.w3.org/1999/02/22-rdf-syntax-ns#"
     xmlns:svg="http://www.w3.org/2000/svg"
     xmlns="http://www.w3.org/2000/svg"
     xmlns:xlink="http://www.w3.org/1999/xlink"
     xmlns:sodipodi="http://sodipodi.sourceforge.net/DTD/sodipodi-0.dtd"
     xmlns:inkscape="http://www.inkscape.org/namespaces/inkscape"
     id="odontogram"
     version="1.1"
     width="100%"
     height="100%"
     viewBox="0 0 2742 651">
    <metadata id="metadata3325">
        <rdf:RDF>
            <cc:Work rdf:about="">
                <dc:format>image/svg+xml</dc:format>
                <dc:type rdf:resource="http://purl.org/dc/dcmitype/StillImage" />
                <dc:title/>
            </cc:Work>
        </rdf:RDF>
    </metadata>
    <defs id="defs3323" />
    <title id="title4022">Schema dentaire adulte - faces occlusales</title>
    <image width="2742" height="651" xlink:href="./odontogram/background_adult_occlusale.png" id="image3327" x="0" y="0" />
    <path id="C_12" fill-opacity="0" d="m 1022.9557,85.408468 c 18.1318,-29.915185 45.5194,-36.892651 80.9424,-39.010702 66.9152,5.851823 67.7119,18.20552 75.4599,28.138798 -0.338,13.354253 -9.7304,32.995556 -18.3811,52.120896 -13.7049,50.73299 -40.7007,51.91631 -50.9519,53.40001 -52.823,2.95134 -58.4834,-41.78625 -68.6881,-55.31852 -6.3523,-12.73796 -14.3274,-22.79373 -18.3812,-39.330482 z" />
    <path id="C_16" fill-opacity="0" d="m 479.20156,44.307886 c -24.66231,-4.417638 -49.43213,-10.311051 -65.81112,11.650926 -8.66949,22.530287 -19.66045,49.495948 -15.50363,66.441458 3.87462,23.21209 9.54018,44.78937 27.52689,62.97769 17.50753,11.12602 37.12454,16.79412 58.85041,17.00404 40.51885,6.66727 79.53202,-0.61634 92.38917,-31.48889 l 7.91003,-34.00799 C 586.74206,21.122758 542.18489,18.904595 477.3034,44.937699 z" />
    <path id="C_17" fill-opacity="0" d="m 287.61846,44.764895 c -23.25801,-4.55886 -49.21868,-12.557545 -66.71039,25.264782 -8.406,13.473856 -9.67645,31.796473 -9.57554,53.687583 2.27014,23.48813 13.40883,49.59962 35.11079,69.16206 21.39748,18.0974 49.33849,12.59744 66.07154,4.10551 39.20465,2.40231 56.12806,-15.10748 69.26322,-36.00221 6.2689,-25.33349 25.48423,-51.42399 11.81032,-78.320579 -0.89201,-33.097264 -22.05684,-34.693498 -40.53677,-46.423876 -41.66271,-2.682045 -49.27471,4.111436 -65.43317,8.52673 z" />
    <path id="C_18" fill-opacity="0" d="m 100.17573,46.426363 c -18.050648,-5.965517 -35.22462,-2.4316 -52.4417,0.634498 -28.564842,13.380185 -31.166431,57.353189 -30.88551,77.058549 10.753631,31.41481 27.471349,51.91365 44.076214,72.61894 28.922614,11.94939 46.901416,7.71792 64.023556,2.21975 31.23231,2.57915 48.7894,-3.83629 62.09296,-20.61231 37.94292,-46.53443 26.59273,-120.831055 8.36515,-125.576887 -18.60135,-13.918988 -25.05495,-14.158888 -35.3901,-15.855662 -17.21578,-0.194369 -35.81891,1.32161 -59.84057,9.513441 z" />
    <path id="C_11" fill-opacity="0" d="m 1365.4448,59.28148 c -5.4594,-19.531179 -25.4821,-18.012054 -44.0287,-24.680606 -40.2917,-14.48735 -67.599,-8.429121 -95.3166,10.424051 -14.4227,9.810054 -43.6451,18.598522 -48.913,33.213994 -7.2165,11.555341 17.1957,21.027035 32.1105,48.305271 20.7249,37.90482 47.4458,53.08759 70.4034,48.03583 64.4738,-7.07082 79.0505,-51.18648 85.7444,-115.29854 z" />
    <path id="C_13" fill-opacity="0" d="m 873.2804,83.682353 c 1.20635,-15.287835 11.0796,-18.769141 24.32714,-25.483702 27.74775,-26.974547 77.61804,-21.106909 102.75026,5.904703 12.2975,4.69998 25.9929,8.676743 26.8883,20.511336 6.3103,26.8083 -8.4297,50.061 -17.9252,73.03279 -22.84636,23.71835 -61.63044,24.84949 -74.58204,17.40361 -63.71615,-37.9502 -63.21211,-67.74252 -61.45846,-91.368737 z" />
    <path id="C_14" fill-opacity="0" d="m 804.46956,29.038794 c -49.60907,15.032333 -80.90207,45.641446 -76.38554,51.479158 0.60076,47.075798 9.7018,78.633858 23.10836,102.330748 44.18906,52.34945 79.64842,22.9384 108.48046,-11.92812 C 866.77562,154.611 873.17272,130.99042 876.04118,70.787241 870.51672,57.36073 830.75103,33.494402 804.46956,29.038794 z" />
    <path id="C_15" fill-opacity="0" d="m 661.05541,30.045472 c -48.90644,14.882854 -79.75563,45.187792 -75.30318,50.967564 0.59268,46.607814 1.97032,77.852164 15.18718,101.313564 43.56296,51.82924 86.11349,22.71043 114.53722,-11.80963 7.00172,-16.14736 13.30873,-39.53325 16.13651,-99.138096 -5.44617,-13.292956 -44.64872,-36.922046 -70.55773,-41.333402 z" />
    <path id="C_22" fill-opacity="0" d="m 1705.7869,85.827455 c -17.9447,-29.820342 -43.0354,-36.336274 -78.0915,-38.447667 -66.2232,5.833239 -67.0118,18.1479 -74.6798,28.049763 -1.728,13.536851 6.3787,33.245679 18.1916,51.955759 13.5624,50.57234 40.2794,51.7518 50.4242,53.23094 52.2771,2.94202 57.8789,-41.65393 67.9778,-55.14333 6.2868,-12.69759 12.1656,-23.16105 16.1777,-39.645465 z" />
    <path id="C_23" fill-opacity="0" d="m 1858.056,82.594838 c -1.2084,-15.542061 -11.0992,-19.081198 -24.3702,-25.907482 -27.7964,-27.42309 -77.755,-21.457841 -102.9314,6.002845 -12.3192,4.778049 -26.0383,8.821057 -26.9354,20.852471 -6.3216,27.254018 8.4445,50.893428 17.9567,74.247168 22.8871,24.11271 61.7395,25.26253 74.7138,17.69291 63.8282,-38.58122 63.3235,-68.86897 61.5665,-92.887912 z" />
    <path id="C_24" fill-opacity="0" d="m 1927.0854,28.410208 c 49.2781,14.990902 80.3616,45.516141 75.8751,51.337877 -0.597,46.946395 -9.6364,78.417915 -22.9537,102.049625 -43.8936,52.20594 -79.116,22.87552 -107.756,-11.89531 -7.0549,-16.26473 -13.4092,-39.82061 -16.2589,-99.858505 5.4873,-13.389502 44.9874,-37.19033 71.0935,-41.633687 z" />
    <path id="C_26" fill-opacity="0" d="m 2252.7931,43.121429 c 24.6623,-4.360125 49.432,-10.17643 65.8111,11.498787 8.6477,22.195221 12.9871,38.494843 13.9377,64.695114 -3.8746,22.90905 -7.3414,47.57002 -25.3282,65.52084 -17.5074,10.98073 -37.7568,17.19628 -59.4832,17.4035 -41.0246,8.07305 -80.6601,-0.39142 -92.3888,-34.18549 l -7.9101,-33.56406 C 2135.7235,25.587472 2188.8262,18.601803 2254.6912,43.74288 z" />
    <path id="C_27" fill-opacity="0" d="m 2443.899,44.675379 c 23.0548,-4.486333 48.7883,-12.357584 66.1278,24.862142 8.3321,13.259248 6.2365,30.850559 6.1359,52.392759 -2.2501,23.11397 -9.4884,51.22668 -31.0005,70.4776 -21.2111,17.80905 -50.6213,13.52662 -67.2081,5.17014 -38.8622,2.36397 -54.3723,-17.97462 -67.3934,-38.53644 -12.7424,-16.98478 -23.9798,-42.44052 -13.7204,-77.951967 0.8843,-32.569855 23.8777,-33.261761 42.1968,-44.805331 41.2992,-2.639177 48.8445,4.046096 64.8619,8.391097 z" />
    <path id="C_28" fill-opacity="0" d="m 2628.0251,42.820874 c 66.7061,-18.593357 84.8122,26.757386 84.1773,80.176296 -10.6985,30.90532 -27.3299,51.07163 -43.8487,71.44115 -28.774,11.75562 -48.6971,7.15156 -65.7307,1.74268 -62.784,-1.04916 -84.5882,-47.7549 -85.0125,-88.74526 -0.5211,-50.359698 26.0733,-99.025489 110.4146,-64.614866 z" />
    <path id="C_25" fill-opacity="0" d="m 2086.8252,209.16568 c -15.1758,-3.18132 -24.3684,4.22331 -62.9637,-25.79453 -8.2371,-14.83609 -18.2468,-26.53884 -20.8826,-51.2784 -2.317,-30.53749 -4.9121,-63.164539 3.4806,-70.235678 65.9766,-48.73337 76.4755,-33.775431 137.9348,10.027698 14.0049,9.981525 2.4138,51.49609 -3.0215,75.37744 -7.0668,31.04753 -20.1789,54.68113 -54.5476,61.90347 z" />
    <path id="C_21" fill-opacity="0" d="m 1364.9415,57.983034 c 5.5179,-20.050334 25.7554,-18.490685 44.5004,-25.33646 40.7228,-14.872255 68.3221,-8.653153 96.3362,10.700909 14.5773,10.070884 44.1125,19.092753 49.4366,34.096596 7.9346,13.331672 -18.2138,25.360431 -32.4539,49.588861 -19.7658,33.62969 -44.6245,54.17127 -71.1571,49.31227 -56.9689,-3.98831 -75.5621,-50.81701 -86.6622,-118.362176 z" />
    <path id="C_21-Z_43" fill-opacity="0" d="m 1455.1302,28.315364 0.3165,28.902436 -87.9237,4.174169 c -1.6626,-5.097561 25.5231,-28.517795 87.6072,-33.076605 z" />
    <path id="C_21-Z_42" fill-opacity="0" d="m 1457.6844,28.754855 0.6323,28.591656 88.9854,13.54926 c -3.952,-2.661116 -70.452,-42.489611 -89.6177,-42.140916 z" />
    <path id="C_21-Z_27" fill-opacity="0" d="m 1368.2487,64.885895 c 67.0769,-13.98497 70.5794,-0.906459 70.5794,-0.906459 -17.3748,16.49437 -22.3093,43.669354 -11.2018,71.683014 -9.7813,0 -21.8755,0.21993 -34.3089,0.21993 -15.9699,-20.14932 -24.267,-59.47235 -25.0687,-70.996326 z" />
    <path id="C_21-Z_26" fill-opacity="0" d="m 1482.8812,62.946877 66.4347,10.290816 c 10.5258,7.531715 -19.8098,38.174117 -33.296,59.279267 l -29.5432,0.97009 c 10.5458,-24.39614 11.0905,-45.317885 -3.5955,-70.540173 z" />
    <path id="C_21-Z_29" fill-opacity="0" d="m 1393.1094,137.89128 123.3963,-3.10781 c -17.142,12.93617 -15.183,27.81327 -54.1048,38.53644 -32.2047,5.13994 -53.05,-10.85982 -69.2915,-35.42863 z" />
    <path id="C_21-Z_25" fill-opacity="0" d="m 1310.384,94.189934 a 29.673264,31.894791 0 1 1 -59.3466,0 29.673264,31.894791 0 1 1 59.3466,0 z" transform="matrix(0.99697349,0,0,0.97925614,181.00725,3.8022357)" />
    <path id="C_22-Z_42" fill-opacity="0" d="m 1632.8003,51.662057 0.6329,28.591604 c 24.4682,-0.207152 39.4289,1.783147 68.035,1.575943 1.4698,-12.082695 -47.5223,-33.955849 -68.6679,-30.167547 z" />
    <path id="C_22-Z_27" fill-opacity="0" d="m 1555.0971,81.101542 c 67.0769,-2.955708 58.6332,4.631178 58.6332,4.567914 -23.5356,29.157134 -18.0425,51.065234 1.205,67.862754 l -31.0142,1.13635 z" />
    <path id="C_22-Z_25" fill-opacity="0" d="m 1310.384,94.189934 a 29.673264,31.894791 0 1 1 -59.3466,0 29.673264,31.894791 0 1 1 59.3466,0 z" transform="matrix(0.99697349,0,0,0.97925614,356.45159,27.887483)" />
    <path id="C_22-Z_26" fill-opacity="0" d="m 1659.073,83.917994 44.9063,-0.401521 c -5.8091,24.551527 -23.6622,48.883227 -33.213,73.434647 l -18.3443,-2.19746 c 18.6099,-22.09154 17.9547,-45.48041 6.651,-70.835295 z" />
    <path id="C_22-Z_29" fill-opacity="0" d="m 1582.5951,155.83751 87.0103,0.93233 c -20.0724,28.26207 -58.3997,31.75409 -87.0103,-0.93233 z" />
    <path id="C_23-Z_27" fill-opacity="0" d="m 1734.8481,63.513268 c 15.1436,12.052821 20.0381,21.245471 19.0956,17.896391 -14.5667,28.774531 -14.3725,34.175931 -1.6907,55.962131 l -24.8869,16.89503 c -14.2435,-17.10778 -38.7558,-80.179755 7.482,-90.753552 z" />
    <path id="C_23-Z_25" fill-opacity="0" transform="matrix(0.99697349,0,0,0.97925614,502.31249,22.915067)" d="m 1310.384,94.189934 a 29.673264,31.894791 0 1 1 -59.3466,0 29.673264,31.894791 0 1 1 59.3466,0 z" />
    <path id="C_23-Z_26" fill-opacity="0" d="m 1808.4145,81.742537 29.2751,-16.022554 c 39.0383,9.027992 10.8508,63.730707 -10.5892,85.426177 l -18.0531,-12.22054 c 8.9496,-22.10814 8.9081,-28.47034 -0.6328,-57.183083 z" />
    <path id="C_24-Z_25" fill-opacity="0" transform="matrix(0.99697349,0,0,0.97925614,655.52078,20.817944)" d="m 1310.384,94.189934 a 29.673264,31.894791 0 1 1 -59.3466,0 29.673264,31.894791 0 1 1 59.3466,0 z" />
    <path id="C_23-Z_28" fill-opacity="0" d="m 1735.7524,61.879439 18.7151,17.532201 c 16.9336,-6.037675 34.1367,-9.517169 52.8394,1.243169 l 30.9343,-16.78848 c -43.7603,-32.275638 -77.8875,-18.803276 -102.4888,-1.98689 z" />
    <path id="C_23-Z_29" fill-opacity="0" d="m 1751.304,140.94571 -23.2892,15.41653 c 33.5453,31.88324 75.822,21.54699 97.831,-4.07511 l -18.5389,-11.03064 c -14.9615,9.90846 -31.0613,16.73947 -56.0029,-0.31046 z" />
    <path id="C_24-Z_27" fill-opacity="0" d="m 1875.2184,57.002874 c 17.4005,10.4142 26.021,21.41082 24.679,18.335828 -14.5662,28.774528 -19.0096,52.800558 -6.3278,74.586638 l -19.8879,16.88866 c -4.5573,-25.42083 -28.3301,-115.200455 1.5367,-109.811126 z" />
    <path id="C_24-Z_26" fill-opacity="0" d="m 1956.5131,78.575206 29.1084,-17.403595 c 25.9592,6.794067 8.329,89.467889 -1.8983,107.529209 l -28.153,-23.12628 c 23.365,-28.7946 16.8568,-41.24233 0.9429,-66.999334 z" />
    <path id="C_24-Z_28" fill-opacity="0" d="m 1874.007,54.634272 27.2106,20.511339 c 16.5582,-12.677789 38.0382,-6.18268 54.5969,1.425186 l 26.1614,-16.342441 C 1943.2481,17.519294 1900.9533,32.954212 1874.007,54.634272 z" />
    <path id="C_24-Z_29" fill-opacity="0" d="m 1895.2669,153.09758 -17.1112,16.17602 c 32.3591,56.1398 84.5275,30.5688 107.5765,-1.24312 l -29.7416,-19.88983 c -14.9612,9.90853 -35.7821,22.00719 -60.7237,4.95693 z" />
    <path id="C_25-Z_25" fill-opacity="0" transform="matrix(0.99697349,0,0,0.97925614,794.76793,22.269544)" d="m 1310.384,94.189934 a 29.673264,31.894791 0 1 1 -59.3466,0 29.673264,31.894791 0 1 1 59.3466,0 z" />
    <path id="C_25-Z_27" fill-opacity="0" d="m 2024.0863,53.619874 c 17.4007,10.4142 29.153,23.608427 27.8114,20.533437 -14.5667,28.774579 -19.6814,54.118979 -6.9992,75.905099 l -24.3626,18.64677 c -3.5244,-11.7064 -9.7736,-19.68065 -13.824,-47.40583 -5.5902,-38.266194 -5.5081,-62.289722 17.3744,-67.679476 z" />
    <path id="C_25-Z_26" fill-opacity="0" d="m 2102.472,80.026861 28.9173,-12.842019 c 29.8522,10.110502 6.3195,83.514468 -0.5885,101.209508 l -31.9563,-22.68679 c 8.9497,-22.1082 13.169,-36.968 3.6275,-65.680699 z" />
    <path id="C_25-Z_28" fill-opacity="0" d="m 2026.2305,52.940483 27.2105,20.511283 c 16.5586,-12.677842 31.1032,-2.446936 47.6614,5.160983 l 27.8913,-13.152798 c -40.341,-36.373282 -75.8229,-34.17546 -102.7632,-12.519468 z" />
    <path id="C_25-Z_29" fill-opacity="0" d="m 2044.5817,153.01082 -24.0462,17.71439 c 36.926,55.97358 95.4847,30.1701 107.576,-1.24309 l -29.7417,-19.88982 c -14.9606,9.90841 -28.8466,20.46895 -53.7881,3.41852 z" />
    <path id="C_26-Z_30" fill-opacity="0" d="m 2181.7137,39.56589 c -13.4717,1.61141 -16.0104,8.019239 -24.4811,18.015994 l 35.7219,40.507513 0.042,-20.23155 17.4019,0.31046 z" />
    <path id="C_26-Z_27" fill-opacity="0" d="m 2157.0855,59.885998 c -11.1698,33.762544 -12.7148,69.047362 0,102.139292 l 34.9577,-17.66102 0.6329,-43.5089 z" />
    <path id="C_26-Z_33" fill-opacity="0" d="m 2157.6867,163.32171 33.414,-16.78197 0,21.44361 17.824,3.42016 -0.1066,27.96841 c -19.5925,5.41517 -45.9684,-10.89778 -51.1324,-36.05021 z" />
    <path id="C_26-Z_29" fill-opacity="0" d="m 2211.35,172.95578 -0.9488,26.72692 c 16.3038,2.69973 32.5531,0.61313 49.675,-0.70342 l -0.6329,-24.15878 z" />
    <path id="C_26-Z_37" fill-opacity="0" d="m 2261.342,173.88823 0.4105,24.50726 c 16.7048,-1.56118 29.4281,-8.18236 45.5934,-16.20469 l -15.6281,-37.5158 1.0707,26.39224 z" />
    <path id="C_26-Z_40" fill-opacity="0" d="m 2296.4621,151.20143 12.1093,28.81393 c 7.9417,-9.29384 10.9966,-15.89524 14.7011,-26.07678 l -17.3182,-11.12816 z" />
    <path id="C_26-Z_26" fill-opacity="0" d="m 2308.1689,141.87804 15.1425,9.75633 c 6.0529,-13.64641 11.0332,-34.93728 1.943,-77.505928 l -24.0462,16.471204 z" />
    <path id="C_26-Z_41" fill-opacity="0" d="m 2298.6229,89.651704 25.3658,-16.562159 c -10.6426,-27.010814 -27.9616,-31.186684 -55.4782,-31.843763 9.0514,17.698186 22.9314,34.494974 30.1124,48.405922 z" />
    <path id="C_26-Z_39" fill-opacity="0" d="m 2305.9543,139.08101 c -2.8248,-18.62642 -2.7787,-40.679344 -8.2265,-46.927467 l -20.2497,7.458651 18.0346,48.170596 z" />
    <path id="C_26-Z_38" fill-opacity="0" d="m 2297.4114,90.288919 -31.0616,-48.330571 -12.2564,2.941435 23.3847,52.847849 z" />
    <path id="C_26-Z_44" fill-opacity="0" d="m 2252.1953,44.733262 -14.9636,-3.688879 -1.5181,34.637956 27.5107,-4.79035 z" />
    <path id="C_26-Z_34" fill-opacity="0" d="m 2236.0296,77.236236 25.9447,-4.350859 7.2772,11.809459 -26.5776,6.215643 z" />
    <path id="C_26-Z_28" fill-opacity="0" d="m 2235.5185,40.620495 c -32.7302,-8.510171 -42.2443,-5.018268 -52.9709,-2.15341 l 29.7518,40.633827 21.5155,-3.107795 z" />
    <path id="C_26-Z_31" fill-opacity="0" d="m 2195.2136,79.41164 14.5548,0.310459 3.1644,19.889674 -17.7192,-0.310457 z" />
    <path id="C_26-Z_32" fill-opacity="0" d="m 2193.3158,146.85046 -0.3165,19.26817 16.1367,3.72941 0.6329,-23.3083 z" />
    <path id="C_26-Z_36" fill-opacity="0" d="m 2259.4433,171.40194 32.2732,-1.86464 -0.9498,-29.83471 -33.5384,2.17545 z" />
    <path id="C_26-Z_25" fill-opacity="0" d="m 2195.2136,102.40927 19.9333,-0.311 -3.1639,-20.511388 22.1483,-4.040135 8.5426,15.849813 27.5269,-6.837208 19.933,51.589128 -35.4366,1.5539 2.5311,31.38856 -45.5618,-1.55389 0,-25.17305 -17.4018,0 z" />
    <path id="C_27-Z_30" fill-opacity="0" d="m 2373.7547,41.932202 c -12.7955,2.681191 -17.5831,8.392695 -25.8233,16.25793 l 33.0373,42.045808 0.042,-20.231605 17.4019,0.31046 z" />
    <path id="C_27-Z_27" fill-opacity="0" d="m 2346.8897,59.834983 c -16.4881,33.928794 -14.2192,69.636957 6.9423,100.820827 l 26.2323,-14.14505 0.6328,-43.50886 z" />
    <path id="C_27-Z_33" fill-opacity="0" d="m 2355.3214,161.95218 24.2412,-13.48568 0.4473,13.09305 17.1527,3.85972 -0.2011,29.25832 c -20.1664,-7.05011 -32.7102,-13.00765 -41.643,-32.72541 z" />
    <path id="C_27-Z_29" fill-opacity="0" d="m 2399.812,164.11476 -0.9493,30.76696 c 16.3041,-3.17156 30.9714,1.89321 48.0933,3.93078 l 0.9488,-32.83312 z" />
    <path id="C_27-Z_37" fill-opacity="0" d="m 2448.9089,171.20015 0.4471,27.83212 c 16.3069,5.11072 30.7598,-1.76269 44.9288,-20.51134 l -14.5547,-31.69929 0.8476,20.67851 z" />
    <path id="C_27-Z_40" fill-opacity="0" d="m 2480.9958,145.26771 13.6052,30.45626 c 5.1054,-8.60351 6.8504,-10.38822 11.0744,-23.3083 l -13.289,-12.12044 z" />
    <path id="C_27-Z_26" fill-opacity="0" d="m 2495.5118,140.5085 10.4796,10.97472 c 6.0539,-13.64632 13.4588,-31.32103 4.3689,-73.889716 l -21.5852,14.054038 z" />
    <path id="C_27-Z_41" fill-opacity="0" d="m 2487.6406,90.260004 21.339,-13.925222 c -9.3511,-32.658094 -25.3381,-34.861401 -51.0809,-33.312937 9.0517,17.698081 22.561,33.327264 29.7419,47.238159 z" />
    <path id="C_27-Z_39" fill-opacity="0" d="m 2493.6517,137.80905 c -2.8241,-18.62653 -2.2374,-39.018747 -7.686,-45.266928 l -20.4735,9.216778 14.2379,40.40107 z" />
    <path id="C_27-Z_38" fill-opacity="0" d="m 2486.3206,91.116936 -30.3907,-47.45143 -13.822,3.1611 23.3843,53.067557 z" />
    <path id="C_27-Z_44" fill-opacity="0" d="m 2440.2093,46.000823 -22.3463,-5.446946 5.8643,37.275 28.1826,-5.449661 z" />
    <path id="C_27-Z_34" fill-opacity="0" d="m 2424.0443,79.38283 25.9444,-4.350912 7.277,11.809565 -26.5772,6.215536 z" />
    <path id="C_27-Z_28" fill-opacity="0" d="m 2415.9263,40.569532 c -13.5554,-1.401011 -27.1109,-7.050317 -40.666,0.703461 l 25.0537,39.974459 21.5152,-3.107742 z" />
    <path id="C_27-Z_31" fill-opacity="0" d="m 2383.2282,81.558286 14.5542,0.310459 3.164,19.889825 -17.7182,-0.31045 z" />
    <path id="C_27-Z_32" fill-opacity="0" d="m 2381.5532,140.42666 -0.3165,19.26822 16.1366,3.72934 0.6328,-23.30829 z" />
    <path id="C_27-Z_36" fill-opacity="0" d="m 2447.4574,168.71386 31.6019,-2.30415 -1.3967,-24.12104 -32.4198,1.73587 z" />
    <path id="C_28-Z_30" fill-opacity="0" d="m 2553.563,41.423696 c -12.7464,4.009461 -12.0687,7.571763 -20.6774,17.136963 l 28.1149,39.1891 0.042,-20.231607 17.4019,0.310461 z" />
    <path id="C_28-Z_27" fill-opacity="0" d="m 2531.6198,60.425336 c -10.2076,14.588583 -15.0962,61.256734 2.4613,96.758594 l 26.0149,-13.15939 0.6329,-43.50882 z" />
    <path id="C_28-Z_33" fill-opacity="0" d="m 2535.254,158.86648 23.8927,-12.66644 0,21.44367 17.8244,3.42022 -0.3293,20.29257 c -13.1458,-4.15855 -17.685,-7.18337 -41.3878,-32.49002 z" />
    <path id="C_28-Z_29" fill-opacity="0" d="m 2579.3966,170.41864 -0.9494,20.58944 c 19.8573,-0.0554 35.7642,4.07199 49.675,5.22718 l -2.1988,-24.39155 z" />
    <path id="C_28-Z_37" fill-opacity="0" d="m 2627.8216,172.88926 2.1992,23.346 c 16.2418,4.80766 29.9524,-4.90846 46.1946,-13.98502 l -16.4529,-37.91489 1.0707,26.39226 z" />
    <path id="C_28-Z_40" fill-opacity="0" d="m 2664.5086,150.86168 12.0228,30.14544 c 5.9665,-11.78517 12.5103,-15.53619 16.4531,-26.41604 l -18.9842,-12.12039 z" />
    <path id="C_28-Z_26" fill-opacity="0" d="m 2676.2154,141.53834 17.0854,12.43113 c 7.6168,-13.5915 29.4778,-40.28918 7.0374,-83.326168 l -32.8735,20.056244 z" />
    <path id="C_28-Z_41" fill-opacity="0" d="m 2667.4874,89.971322 31.5085,-20.275962 c -4.901,-22.105014 -32.0885,-32.802036 -61.6979,-28.848917 9.0513,17.698188 23.0079,35.213878 30.1894,49.124879 z" />
    <path id="C_28-Z_39" fill-opacity="0" d="m 2674.0003,138.74138 c -2.8243,-18.62642 -2.7781,-40.679305 -8.2265,-46.927426 l -20.2497,7.458544 18.0352,48.170702 z" />
    <path id="C_28-Z_38" fill-opacity="0" d="m 2665.4575,89.949276 -29.7417,-48.481326 -8.8777,3.675995 18.686,52.263931 z" />
    <path id="C_28-Z_44" fill-opacity="0" d="m 2624.7158,44.173955 c -8.9402,-2.989892 -17.8809,-6.685644 -26.8211,-6.326034 l 5.8645,37.494775 30.8669,-5.01012 z" />
    <path id="C_28-Z_34" fill-opacity="0" d="m 2604.0759,76.896593 25.9449,-4.350912 7.2772,11.809566 -26.5781,6.215534 z" />
    <path id="C_28-Z_28" fill-opacity="0" d="m 2596.4054,37.643807 c -14.8391,-2.130138 -29.6372,-4.132845 -41.5609,2.900911 l 25.501,38.216552 21.5154,-3.107794 z" />
    <path id="C_28-Z_31" fill-opacity="0" d="m 2563.2599,79.071997 14.5548,0.310992 3.1636,19.889731 -17.7184,-0.31047 z" />
    <path id="C_28-Z_32" fill-opacity="0" d="m 2561.3618,146.51076 -0.3165,19.26832 16.1367,3.72926 0.6327,-23.3083 z" />
    <path id="C_28-Z_36" fill-opacity="0" d="m 2627.4894,171.0623 32.2731,-1.86463 -0.9494,-29.83472 -33.5384,2.17539 z" />
    <path id="C_27-Z_25" fill-opacity="0" d="m 2382.9976,105.05084 19.9335,-0.31046 -3.1644,-20.511287 22.1479,-4.040133 8.5434,15.849694 27.5265,-6.837144 19.9335,51.58918 -35.4368,1.55384 1.8598,21.27996 -44.8903,-2.43297 0,-22.31621 -17.1783,-0.43985 z" />
    <path id="C_28-Z_25" fill-opacity="0" d="m 2563.3459,101.32153 19.9334,-0.31045 -3.164,-20.511394 22.1476,-4.040132 8.5434,15.849645 27.5269,-6.837042 19.933,51.589163 -35.4367,1.55385 2.5311,31.38852 -45.5617,-1.55384 0,-25.17305 -17.4023,0 z" />
    <path id="C_22-Z_43" fill-opacity="0" d="m 1630.9136,51.622918 0.3165,28.902328 -77.1319,-1.975173 c -0.6546,-6.834007 28.7535,-29.191276 76.8154,-26.927155 z" />
    <path id="C_11-Z_43" fill-opacity="0" d="m 1279.1342,28.455205 -0.3164,28.902276 86.5813,5.492745 c 9.0928,-4.677508 -23.7406,-28.593254 -86.2649,-34.395021 z" />
    <path id="C_11-Z_42" fill-opacity="0" d="m 1278.8182,28.455205 -0.6328,28.591548 -91.2227,11.791248 c -3.0023,-3.09315 61.5387,-45.248339 91.8555,-40.382796 z" />
    <path id="C_11-Z_27" fill-opacity="0" d="m 1363.1079,65.465171 c -66.1326,-3.78106 -63.2955,-2.632306 -63.4208,-3.982993 17.3755,16.494316 20.2956,45.866812 9.1888,73.880512 l 30.0584,0 c 15.9694,-20.14922 23.3718,-58.373545 24.1736,-69.897519 z" />
    <path id="C_11-Z_26" fill-opacity="0" d="m 1253.3977,62.427457 -68.225,8.972079 c 5.5654,26.689335 16.0447,42.015294 28.1504,61.476984 l 36.7023,0.31045 c -10.5458,-24.39597 -11.3143,-45.5376 3.3723,-70.759832 z" />
    <path id="C_11-Z_29" fill-opacity="0" d="m 1337.3521,138.47048 -123.3962,-3.10779 c 17.1419,12.93629 15.183,27.81332 54.1044,38.53649 32.2046,5.13996 53.0505,-10.85976 69.2918,-35.4287 z" />
    <path id="C_11-Z_25" fill-opacity="0" d="m 1310.384,94.189934 a 29.673264,31.894791 0 1 1 -59.3466,0 29.673264,31.894791 0 1 1 59.3466,0 z" transform="matrix(-0.99697349,0,0,0.97925614,2555.0472,4.8209484)" />
    <path id="C_12-Z_42" fill-opacity="0" d="m 1103.2542,47.884831 -0.6326,28.591498 -72.9574,5.971107 c -1.4693,-12.082696 52.4446,-38.350963 73.59,-34.562605 z" />
    <path id="C_12-Z_27" fill-opacity="0" d="m 1178.9439,79.741587 c -66.1073,1.24903 -54.9633,0.719332 -55.0534,-0.705803 23.5361,29.157096 16.4756,53.921996 -2.771,70.719516 l 27.21,-0.62187 c 0,0 30.1668,-75.105263 30.6144,-69.391734 z" />
    <path id="C_12-Z_25" fill-opacity="0" d="m 1310.384,94.189934 a 29.673264,31.894791 0 1 1 -59.3466,0 29.673264,31.894791 0 1 1 59.3466,0 z" transform="matrix(-0.99697349,0,0,0.97925614,2379.6029,24.110257)" />
    <path id="C_12-Z_26" fill-opacity="0" d="m 1076.9814,80.140714 -49.8282,4.652531 c 5.8093,24.551515 20.9778,43.828735 30.5281,68.380255 l 22.1476,0 c -15.4393,-23.42609 -13.4961,-47.95354 -2.8475,-73.032786 z" />
    <path id="C_12-Z_29" fill-opacity="0" d="m 1146.7479,153.15903 -87.0102,0.93245 c 19.7909,31.57345 58.0845,35.4698 87.0102,-0.93245 z" />
    <path id="C_13-Z_27" fill-opacity="0" d="m 993.37583,60.57652 c -19.14365,17.038445 -24.67133,19.409176 -22.89846,16.577868 14.56592,28.774522 21.0841,37.252472 8.40228,59.038602 l 23.09675,14.91733 c 22.7,-15.18752 29.3435,-82.366255 -8.60057,-90.5338 z" />
    <path id="C_13-Z_25" fill-opacity="0" transform="matrix(-0.99697349,0,0,0.97925614,2228.8205,21.73633)" d="m 1310.384,94.189934 a 29.673264,31.894791 0 1 1 -59.3466,0 29.673264,31.894791 0 1 1 59.3466,0 z" />
    <path id="C_13-Z_26" fill-opacity="0" d="m 922.71851,80.563802 -28.38048,-13.825 c -33.84083,-3.317395 -19.37839,54.980908 7.90454,84.327358 l 19.84305,-13.31921 c -8.94992,-22.10826 -8.90843,-28.47046 0.63289,-57.183148 z" />
    <path id="C_14-Z_25" fill-opacity="0" transform="matrix(-0.99697349,0,0,0.97925614,2080.5339,24.473704)" d="m 1310.384,94.189934 a 29.673264,31.894791 0 1 1 -59.3466,0 29.673264,31.894791 0 1 1 59.3466,0 z" />
    <path id="C_13-Z_28" fill-opacity="0" d="m 990.23404,58.942635 -23.41317,17.092817 -40.31025,3.001131 -31.82919,-14.810695 c 43.75978,-32.275746 70.95183,-22.09969 95.55261,-5.283253 z" />
    <path id="C_13-Z_29" fill-opacity="0" d="m 979.82897,139.76692 19.93286,12.12045 c -37.7988,40.97757 -63.93513,21.36092 -93.35694,-0.55931 l 17.42067,-11.25047 c 14.96147,9.90846 31.06133,16.73955 56.00341,-0.31047 z" />
    <path id="C_14-Z_27" fill-opacity="0" d="m 855.91415,57.582151 c -17.40065,10.414201 -33.18019,23.168885 -31.83871,20.093841 14.56673,28.774578 19.01013,52.800558 6.32832,74.586748 l 24.36265,18.64666 c 9.59394,-18.98871 36.58724,-110.647922 1.14774,-113.327249 z" />
    <path id="C_14-Z_26" fill-opacity="0" d="M 771.71125,80.473059 742.60248,63.069463 c -23.61643,6.026971 -0.57169,86.927997 1.89864,107.529157 l 31.95575,-22.68674 c -8.94911,-22.10837 -14.28662,-38.72618 -4.74562,-67.438821 z" />
    <path id="C_14-Z_28" fill-opacity="0" d="M 855.78321,54.993779 821.86084,78.142214 C 805.30264,65.464319 788.74395,72.399025 772.1859,80.006837 L 745.57653,62.785418 c 58.4886,-46.348208 83.26263,-29.472074 110.20668,-7.791639 z" />
    <path id="C_14-Z_29" fill-opacity="0" d="m 830.71971,155.21503 24.0467,17.71438 c -32.35874,56.13978 -84.52758,30.5688 -107.57603,-1.24305 l 29.74116,-19.88983 c 14.96147,9.90851 28.84706,20.46898 53.78817,3.4185 z" />
    <path id="C_15-Z_25" fill-opacity="0" transform="matrix(-0.99697349,0,0,0.97925614,1930.5479,25.046376)" d="m 1310.384,94.189934 a 29.673264,31.894791 0 1 1 -59.3466,0 29.673264,31.894791 0 1 1 59.3466,0 z" />
    <path id="C_15-Z_27" fill-opacity="0" d="m 706.37511,55.517619 c -17.40049,10.414361 -26.0209,21.410872 -24.67893,18.335934 14.56593,28.774577 19.01013,52.800497 6.32783,74.586697 l 24.36297,18.6466 c 11.16679,-17.18653 40.71258,-95.957888 -6.01187,-111.569231 z" />
    <path id="C_15-Z_26" fill-opacity="0" d="M 626.19955,77.969145 605.11335,66.225879 C 575.84604,77.803051 592.70002,152.12333 598.9891,168.97374 l 27.48152,-20.48935 c -8.9496,-22.10825 -9.81238,-41.80261 -0.27365,-70.515245 z" />
    <path id="C_15-Z_28" fill-opacity="0" d="M 705.79696,53.080164 678.58651,73.591606 C 662.02782,60.913712 645.4701,67.84831 628.91157,75.456177 L 605.71894,62.523044 c 40.34093,-36.373123 73.13784,-31.098818 100.07802,-9.44288 z" />
    <path id="C_15-Z_29" fill-opacity="0" d="m 680.73362,155.78772 24.04653,17.71438 c -32.35857,56.13965 -84.52742,30.56874 -107.57603,-1.24318 l 29.74165,-19.88982 c 14.96099,9.90844 28.84625,20.46898 53.78785,3.41862 z" />
    <path id="C_16-Z_30" fill-opacity="0" d="m 540.71345,37.068578 c 12.09769,-1.085917 19.33287,8.393921 28.06016,18.895029 l -28.11456,39.189094 -0.0468,-20.231762 -17.40226,0.311525 z" />
    <path id="C_16-Z_27" fill-opacity="0" d="m 570.03936,57.82823 c 11.56492,35.601868 17.97832,49.68679 6.92907,101.69981 L 541.56316,141.42752 540.9306,97.918561 z" />
    <path id="C_16-Z_33" fill-opacity="0" d="m 574.80809,161.264 -32.29578,-17.66112 0,21.44373 -17.82348,3.42018 0.10333,31.92395 c 16.745,-0.0319 38.1935,-3.34042 50.01367,-39.12674 z" />
    <path id="C_16-Z_29" fill-opacity="0" d="m 522.26306,170.01902 0.94884,30.68256 c -16.30376,2.69962 -32.55312,-1.36438 -49.67462,-2.68132 l 0.63288,-26.1365 z" />
    <path id="C_16-Z_37" fill-opacity="0" d="m 472.27168,170.95146 -0.63288,28.90234 c -21.86019,-4.38947 -31.51807,-9.35614 -46.93612,-17.08371 l 17.19448,-41.03177 -1.07073,26.39217 z" />
    <path id="C_16-Z_40" fill-opacity="0" d="m 437.15104,148.26462 -13.45161,33.64858 c -7.94167,-9.29381 -10.77284,-19.63112 -14.47777,-29.81266 l 18.43748,-12.22696 z" />
    <path id="C_16-Z_26" fill-opacity="0" d="m 425.44421,138.9413 -16.48425,12.17364 c -7.33754,-12.02546 -16.04803,-29.32712 -0.60124,-79.923248 l 24.04653,16.471311 z" />
    <path id="C_16-Z_41" fill-opacity="0" d="M 435.88576,85.176715 409.62447,68.394678 c 15.85946,-27.01076 20.67564,-25.253281 45.18667,-25.910305 -9.05132,17.698186 -11.74493,28.78134 -18.92538,42.692342 z" />
    <path id="C_16-Z_39" fill-opacity="0" d="m 427.65914,136.14433 c 2.82406,-18.62643 2.77788,-40.679301 8.22662,-46.927536 l 20.24926,7.458705 -18.03466,48.170561 z" />
    <path id="C_16-Z_38" fill-opacity="0" d="m 436.20172,87.352117 20.32287,-43.935459 c 5.45165,-0.655905 11.6119,-0.963757 24.1137,1.842577 l -24.50327,49.551584 z" />
    <path id="C_16-Z_44" fill-opacity="0" d="m 482.9843,45.312594 8.02757,-2.370414 6.88806,29.803356 -25.94517,-4.350858 z" />
    <path id="C_16-Z_34" fill-opacity="0" d="m 497.58349,74.299486 -25.94469,-4.350965 -7.27731,11.80962 26.57773,6.215535 z" />
    <path id="C_16-Z_28" fill-opacity="0" d="m 493.61992,42.298522 c 15.49474,-9.075919 30.98852,-4.750302 46.48325,-6.548467 l -18.78943,40.414109 -21.51517,-3.107796 z" />
    <path id="C_16-Z_31" fill-opacity="0" d="m 538.39957,76.474996 -14.5548,0.31046 -3.16391,19.889774 17.71871,-0.310459 z" />
    <path id="C_16-Z_32" fill-opacity="0" d="m 540.29772,143.91376 0.31644,19.26823 -16.1365,3.72929 -0.63289,-23.3084 z" />
    <path id="C_16-Z_36" fill-opacity="0" d="m 474.17016,168.46517 -32.273,-1.86465 0.94883,-29.83464 33.53893,2.17542 z" />
    <path id="C_16-Z_25" fill-opacity="0" d="m 538.39957,99.472467 -19.93378,-0.310459 3.16439,-20.511449 -22.14837,-4.040133 -8.54259,15.849753 -27.52657,-6.837147 -19.93378,51.589178 35.43708,1.55379 -2.53103,31.38868 45.56122,-1.55403 0,-25.17285 17.40226,0 z" />
    <path id="C_17-Z_30" fill-opacity="0" d="m 343.50628,39.654661 c 12.09818,-1.086023 25.59757,4.4383 34.32534,14.939405 l -21.40361,39.189156 -0.4921,-18.913138 -23.66648,-1.007797 z" />
    <path id="C_17-Z_27" fill-opacity="0" d="m 379.0969,56.458797 c 13.73511,5.081532 24.45629,63.941753 3.7968,100.381213 l -24.21848,-13.70542 -1.52747,-44.827439 z" />
    <path id="C_17-Z_33" fill-opacity="0" d="m 381.62793,159.01548 -30.05808,-16.78202 0,21.44362 -17.82348,3.42028 0.8694,27.71996 c 20.58926,-6.44846 32.8828,-17.58198 47.01216,-35.80184 z" />
    <path id="C_17-Z_29" fill-opacity="0" d="m 331.3206,168.64954 0.94883,25.93245 c -17.13764,-3.85124 -31.27589,2.19086 -48.09274,3.2715 l -0.94899,-27.33921 z" />
    <path id="C_17-Z_37" fill-opacity="0" d="m 281.32905,169.58192 0,28.71111 c -16.63376,5.19274 -37.04656,-8.05837 -46.27111,-24.02735 l 15.89675,-33.8969 -1.07073,26.39227 z" />
    <path id="C_17-Z_40" fill-opacity="0" d="m 249.68893,138.81493 -15.39513,34.85128 c -8.8918,-7.11576 -10.26105,-10.8939 -12.41623,-24.62692 l 16.42097,-15.19684 z" />
    <path id="C_17-Z_26" fill-opacity="0" d="m 235.39714,134.93471 -16.52059,15.3699 c -6.5122,-14.03284 -10.78285,-38.92566 5.25162,-75.647802 l 17.33462,11.636709 z" />
    <path id="C_17-Z_41" fill-opacity="0" d="M 243.04466,83.80723 223.49529,71.420251 c 10.87601,-19.211081 13.2527,-28.308248 45.71137,-27.379691 -9.05148,17.698133 -18.98107,25.855614 -26.162,39.76667 z" />
    <path id="C_17-Z_39" fill-opacity="0" d="m 237.03311,131.35616 c 2.82438,-18.62637 2.46177,-37.260668 7.91003,-43.508851 l 20.24941,7.458653 -14.23786,40.401168 z" />
    <path id="C_17-Z_38" fill-opacity="0" d="m 245.25925,85.982685 26.13973,-42.177445 13.82228,2.282065 -20.02871,47.354081 z" />
    <path id="C_17-Z_44" fill-opacity="0" d="m 286.22499,46.14061 11.15984,-1.051836 9.57263,26.287384 -29.97171,0.923178 z" />
    <path id="C_17-Z_34" fill-opacity="0" d="m 306.64102,72.929949 -29.07663,0.484061 -4.14537,6.974912 26.57773,6.215642 z" />
    <path id="C_17-Z_28" fill-opacity="0" d="m 297.75568,44.005573 c 15.54302,-4.178854 30.78412,-6.877566 45.14049,-5.229893 l -12.5249,33.3819 -21.51517,-0.470216 z" />
    <path id="C_17-Z_31" fill-opacity="0" d="m 354.61623,75.984437 -14.55479,0.310461 -3.16343,19.889783 17.71822,-0.310471 z" />
    <path id="C_17-Z_32" fill-opacity="0" d="m 349.35525,142.54422 0.31644,19.26817 -16.1365,3.72935 -0.63287,-23.30828 z" />
    <path id="C_17-Z_36" fill-opacity="0" d="m 283.2277,167.09575 -32.27301,-1.86474 0.94932,-29.83467 33.53844,2.17547 z" />
    <path id="C_18-Z_30" fill-opacity="0" d="m 171.97644,44.200582 c 12.7464,4.009407 21.01775,11.307397 29.62653,20.872706 l -28.78635,26.223693 0.1797,-15.836597 -7.55776,-0.567935 z" />
    <path id="C_18-Z_27" fill-opacity="0" d="m 202.64464,66.938018 c 12.98921,34.281322 10.11994,60.116592 -9.84419,91.264732 l -19.52661,-18.65321 -0.41057,-45.486698 z" />
    <path id="C_18-Z_33" fill-opacity="0" d="m 191.85161,159.44582 -18.74712,-18.16031 0.44721,24.52026 -24.9831,2.10171 -1.01341,28.42342 c 19.13121,-5.32197 42.13818,-13.01728 44.29642,-36.88508 z" />
    <path id="C_18-Z_29" fill-opacity="0" d="m 147.26135,168.80035 -1.28788,27.84128 c -19.68886,-1.11275 -31.26702,5.64947 -49.227246,3.24945 l 2.422381,-28.56674 z" />
    <path id="C_18-Z_37" fill-opacity="0" d="m 96.822747,172.36974 -1.975159,28.40036 c -20.047122,6.48953 -36.206711,-8.70368 -44.628212,-21.23689 l 14.438865,-35.93704 -1.070729,26.39224 z" />
    <path id="C_18-Z_40" fill-opacity="0" d="M 62.597184,144.18918 49.007379,177.85061 C 41.95222,169.38206 38.491078,163.48111 33.449833,151.874 l 18.536764,-13.43871 z" />
    <path id="C_18-Z_26" fill-opacity="0" d="M 48.205623,140.79915 32.462088,151.47226 C 25.539803,140.12478 13.14149,130.36547 28.333515,71.662068 l 28.175267,17.638969 z" />
    <path id="C_18-Z_41" fill-opacity="0" d="M 57.381091,87.034629 28.556637,70.494461 C 41.065381,50.049957 57.187836,42.211775 84.214394,45.600953 75.162595,63.299087 64.562018,73.123573 57.381091,87.034629 z" />
    <path id="C_18-Z_39" fill-opacity="0" d="m 51.091685,134.04661 c 2.824388,-18.62653 2.106909,-36.723772 7.555166,-42.971957 l 20.249253,7.458655 -15.796975,43.555822 c -5.175408,-4.40586 -8.958157,-3.56852 -12.007444,-8.04252 z" />
    <path id="C_18-Z_38" fill-opacity="0" d="M 58.96329,89.210031 86.020201,45.783022 97.135312,47.700898 78.896104,96.668686 z" />
    <path id="C_18-Z_44" fill-opacity="0" d="m 99.928543,48.708695 11.831627,-1.49138 3.97907,26.946646 -23.931254,-3.911371 z" />
    <path id="C_18-Z_34" fill-opacity="0" d="M 120.34506,76.157348 91.715314,72.245872 87.122574,83.616001 113.7003,89.831535 z" />
    <path id="C_18-Z_28" fill-opacity="0" d="m 113.02513,45.694624 c 16.77245,-5.300185 41.36257,-10.072109 57.66972,-2.592793 L 163.31583,75.82447 118.3087,74.03525 z" />
    <path id="C_18-Z_31" fill-opacity="0" d="m 171.00484,77.453716 -14.55479,0.310461 -3.16359,19.889781 17.71838,-0.310459 z" />
    <path id="C_18-Z_32" fill-opacity="0" d="m 171.56071,145.55184 0.31644,19.26817 -16.80749,1.09237 0.042,-20.67135 z" />
    <path id="C_18-Z_36" fill-opacity="0" d="m 96.931408,170.32304 -32.273167,-1.86464 0.94932,-29.83471 33.538441,2.17546 z" />
    <path id="C_17-Z_25" fill-opacity="0" d="m 354.3994,97.719037 -19.9333,0.129397 2.26885,-21.829749 -27.96474,-2.282173 -8.54291,15.849644 -27.52656,-6.837095 -19.93346,51.589179 35.43708,1.55378 -2.53152,31.38869 45.5617,-1.55396 0,-25.17296 24.56107,-0.43988 z" />
    <path id="C_18-Z_25" fill-opacity="0" d="m 170.91847,99.26371 -20.38068,-0.09104 3.6121,-20.731051 -31.99257,-2.721557 -8.5429,15.849592 -27.526572,-6.837147 -19.933459,51.589073 35.437081,1.55399 -2.531034,31.38858 53.168204,-2.87247 0,-22.75571 19.19177,0.21993 z" />
    <path id="C_12-Z_43" fill-opacity="0" d="m 1105.1411,47.845691 -0.3164,28.902329 72.4336,0.222593 c -0.1753,-6.425828 -27.6291,-29.633533 -72.1172,-29.124708 z" />
    <path id="C_31" fill-opacity="0" d="m 1377.1373,536.19116 c -24.237,1.89585 -59.6914,17.8993 -56.0018,49.73169 -4.8067,22.35634 4.5708,39.83553 56.3195,48.05367 53.2496,-3.15466 64.6605,-18.88073 62.9817,-40.73122 -4.9601,-47.43877 -50.6488,-60.96927 -63.2994,-57.05414 z" />
    <path id="C_37" fill-opacity="0" d="m 2242.4037,472.35236 c 59.0961,-16.14464 117.6932,15.41581 118.0979,84.42473 -8.5288,49.15788 -53.9768,69.34186 -102.4699,51.03833 -11.3355,4.08974 -23.0384,8.13817 -47.7114,8.32454 -13.0974,-6.94723 -51.6129,-15.44633 -44.7556,-67.14266 1.0494,-7.9078 -10.3929,-13.89619 -10.1925,-24.23804 7.9824,-12.84689 10.1698,-25.57917 34.9805,-48.52358 12.3531,-8.3419 30.7495,-8.16167 52.051,-3.88332 z" />
    <path id="C_36" fill-opacity="0" d="m 2056.4103,477.74589 c 30.6126,-4.83142 44.9477,0.59187 58.5575,6.47222 14.928,8.27116 30.0544,18.00011 50.2563,65.15348 -2.114,72.64424 -50.2365,74.81144 -102.9805,69.89977 -21.3154,4.07326 -42.7826,17.39731 -69.9998,7.5509 -12.3707,-13.68765 -21.2283,-28.84183 -22.7853,-43.35248 -1.0468,-9.75721 3.6406,-19.22343 3.6294,-27.7572 -0.043,-20.78612 -8.5507,-22.90832 -5.1003,-24.51916 14.3273,-52.24087 53.4147,-59.68835 88.4227,-53.44753 z" />
    <path id="C_35" fill-opacity="0" d="m 1921.1222,505.36058 c 103.2913,26.93614 32.1577,121.58152 -27.297,139.2698 -40.087,11.9263 -79.1236,-22.99864 -60.6514,-109.06618 8.6822,-15.10009 17.3055,-29.82155 24.231,-33.65538 12.3027,-7.60418 20.8715,-18.86732 63.7174,3.45176 z" />
    <path id="C_33" fill-opacity="0" d="m 1643.6066,524.36109 c 17.6494,13.01629 38.5368,19.80569 52.9486,39.04894 2.7667,12.15011 -14.1559,67.50327 -59.7433,79.18077 -30.857,9.01569 -85.4077,-34.47434 -67.8488,-46.23831 l -15.7733,-33.15817 c -4.6402,-15.52121 7.8508,-24.40555 13.2373,-32.5768 21.176,-16.30614 44.1744,-26.91782 77.1795,-6.25643 z" />
    <path id="C_32" fill-opacity="0" d="m 1518.8309,535.72852 c 35.4121,20.12078 36.6899,35.62588 46.8003,52.32514 0,5.08497 4.5099,10.17013 -1.9035,15.2551 7.4618,3.18064 -43.4829,33.26302 -62.8235,32.49348 -28.5178,2.14529 -57.4023,-21.18371 -56.795,-29.1374 -10.7488,-26.04891 -2.3638,-33.47109 -2.2214,-40.73112 7.1087,-15.24829 16.0045,-21.90537 24.7485,-29.28978 14.8608,-7.33782 30.2649,-13.16914 52.1946,-0.91542 z" />
    <path id="C_34" fill-opacity="0" d="m 1764.4142,505.98228 c 44.8245,5.42747 53.8954,17.5402 69.8037,28.37442 l -4.7594,54.30827 c -20.89,13.0629 -40.8267,25.78191 -68.2177,41.18889 -10.3747,-2.29116 -17.3131,-1.71304 -58.6985,-29.89999 l -7.9323,-21.66233 c 5.8384,-15.72348 1.1431,-17.9414 -2.856,-21.05207 21.5658,-55.95713 71.3458,-50.94226 72.6602,-51.25719 z" />
    <path id="C_38" fill-opacity="0" d="m 2435.0371,458.63788 c -45.0416,-17.15143 -67.2794,11.60992 -86.3032,50.95207 5.0776,10.80788 11.4586,14.93562 11.74,50.34187 20.2124,49.67576 48.2006,49.69881 85.9857,36.61232 36.5131,-4.70717 90.5324,29.10231 105.3404,-61.3255 -37.1229,-107.04448 -79.6401,-80.39566 -116.7629,-76.58076 z" />
    <path id="C_48" fill-opacity="0" d="m 194.58934,470.78654 c -47.70067,-7.51364 -62.12105,4.73861 -69.5512,21.14251 -9.39931,17.40307 -11.58929,34.80608 -10.76897,52.20908 5.62527,23.68571 27.53455,61.44495 45.76927,73.7831 19.44141,7.46036 39.64614,11.33 61.47394,2.15743 44.6196,0.69526 54.25648,-12.52871 70.87497,-28.28999 32.80346,-66.591 2.17412,-118.86369 -5.3624,-115.82437 -19.72143,-19.14453 -55.0129,-13.83471 -92.43561,-5.17776 z" />
    <path id="C_47" fill-opacity="0" d="m 398.98003,471.00229 c -16.9444,-9.71706 -68.09363,-11.21807 -80.09631,21.78973 -8.41431,11.59986 -8.94862,32.53359 -11.66648,51.34611 8.52881,49.15782 28.91106,78.49503 77.40375,60.19145 11.33545,4.08967 21.76949,8.44321 46.44253,8.62964 13.91649,-7.6332 47.04156,4.67417 45.42877,-78.56639 2.94729,-18.41064 1.5892,-37.70309 -25.4612,-59.50725 -12.35346,-8.3419 -30.74941,-8.1617 -52.05106,-3.88329 z" />
    <path id="C_46" fill-opacity="0" d="m 584.97349,476.39583 c -30.61261,-4.83159 -44.94764,0.5918 -58.55753,6.47211 -14.92851,8.27127 -30.0543,18.00003 -50.25688,65.15358 2.11452,72.64419 50.23715,76.96871 102.98118,72.05714 21.31534,4.07332 43.67961,17.39725 70.89726,7.5508 12.37018,-13.68771 22.12583,-28.41039 23.68245,-42.92102 1.04718,-9.75716 -5.43572,-21.81228 -5.42501,-30.34603 0.043,-20.78608 8.55111,-22.90837 5.10084,-24.51921 -14.3269,-52.24077 -53.41471,-59.68831 -88.42231,-53.44737 z" />
    <path id="C_45" fill-opacity="0" d="m 720.26154,504.01046 c -103.29119,26.89914 -31.91838,127.23477 29.9891,140.99572 49.02359,10.89721 78.54186,-26.20068 57.95935,-110.79214 -8.68233,-15.10015 -17.30548,-29.82146 -24.2305,-33.65535 -12.30327,-7.60428 -20.87239,-18.86735 -63.71795,3.45177 z" />
    <path id="C_43" fill-opacity="0" d="m 999.36341,521.48539 c -17.64937,13.01635 -38.53676,19.80565 -52.94855,39.04894 -2.76589,12.15021 14.15579,70.52368 59.74324,82.20119 42.8223,3.90194 83.8215,-36.42695 66.2629,-48.19097 l 17.3592,-34.22581 c 4.6401,-15.52121 -7.8508,-24.40557 -13.2368,-32.57688 -21.1766,-16.30617 -44.1749,-26.91779 -77.17999,-6.25647 z" />
    <path id="C_42" fill-opacity="0" d="m 1122.5528,534.37846 c -35.4115,20.12065 -36.6904,35.62571 -46.8002,52.32508 0,5.08493 -4.5095,10.17012 1.9035,15.25509 -7.4619,3.18064 43.4828,35.42047 62.8235,34.65069 28.5177,2.14541 57.4023,-23.34088 56.7955,-31.29454 10.7484,-26.04891 2.3628,-33.47116 2.2209,-40.73119 -7.1087,-15.24829 -16.0045,-21.90543 -24.7486,-29.28982 -14.8607,-7.33777 -30.2652,-13.16904 -52.1946,-0.91531 z" />
    <path id="C_41" fill-opacity="0" d="m 1262.7954,534.83616 c -22.1469,-0.8695 -58.2458,22.03503 -60.9199,57.20669 -8.5974,23.1234 13.7671,38.46267 57.5888,43.29383 15.7913,-1.43842 66.6142,-5.61169 60.444,-44.66678 3.3349,-50.72879 -48.4284,-58.41897 -57.1129,-55.83374 z" />
    <path id="C_44" fill-opacity="0" d="m 878.23888,503.41055 c -44.82499,5.42757 -53.89583,17.54024 -69.80378,28.37452 l 4.75906,54.30827 c 49.3529,52.81176 90.01321,54.16777 130.50628,9.13143 l 4.34222,-19.50493 c -5.83881,-15.72346 -1.1428,-17.94143 2.85595,-21.05213 -21.56536,-55.9571 -71.34582,-50.94217 -72.65973,-51.25716 z" />
    <path id="C_31-Z_43" fill-opacity="0" d="m 1382.2822,631.06621 0.3173,-28.37446 -55.4143,-1.50905 c -1.0436,6.53334 -1.3696,25.68631 55.0975,29.88351 z" />
    <path id="C_31-Z_42" fill-opacity="0" d="m 1384.8431,626.32002 1.5318,-23.75463 51.9927,-2.08339 c 5.1621,3.62785 -17.2767,32.22069 -53.5245,25.83802 z" />
    <path id="C_31-Z_27" fill-opacity="0" d="m 1323.6492,599.47843 c 66.3184,3.71196 44.6278,-0.004 44.7525,1.32143 -17.5267,-16.68856 -17.4379,-24.11482 -4.2782,-41.89639 l -29.6942,-1.2945 c -16.0143,19.78146 -9.976,30.55595 -10.7801,41.86946 z" />
    <path id="C_31-Z_26" fill-opacity="0" d="m 1395.0786,599.00885 44.1862,-0.61051 c -5.5807,-26.20183 -5.3204,-21.39978 -17.4604,-40.50612 l -23.793,-0.30478 c 11.5952,24.93137 18.3325,22.94611 -2.9328,41.42147 z" />
    <path id="C_31-Z_29" fill-opacity="0" d="m 1332.8749,557.14688 88.7434,-0.40048 c -23.793,-28.48932 -70.6198,-24.91914 -88.7434,0.40048 z" />
    <path id="C_31-Z_25" fill-opacity="0" d="m 1310.384,94.189934 a 29.673264,31.894791 0 1 1 -59.3466,0 29.673264,31.894791 0 1 1 59.3466,0 z" transform="matrix(0.64413308,0,0,-0.61938916,554.89305,636.84024)" />
    <path id="C_32-Z_42" fill-opacity="0" d="m 1505.7083,628.38768 -0.7115,-27.6379 60.5989,-5.86208 c 1.4733,11.86201 -38.6822,37.21914 -59.8874,33.49998 z" />
    <path id="C_32-Z_27" fill-opacity="0" d="m 1442.3699,597.11274 c 26.1781,1.95425 42.6661,1.02269 39.3262,-1.73961 -4.9529,-4.09673 -17.3103,-18.95002 0.7127,-41.10639 l -28.6332,0.60974 c -8.8847,3.80041 -15.8381,46.13019 -11.4057,42.23588 z" />
    <path id="C_32-Z_25" fill-opacity="0" d="m 1310.384,94.189934 a 29.673264,31.894791 0 1 1 -59.3466,0 29.673264,31.894791 0 1 1 59.3466,0 z" transform="matrix(0.73233435,0,0,-0.70420222,561.63538,641.52828)" />
    <path id="C_32-Z_26" fill-opacity="0" d="m 1518.5934,596.72084 47.7256,-4.13606 c -4.9129,-24.10305 -2.7779,-14.98224 -25.2297,-39.0853 l -24.0048,0.43183 c 15.2972,23.44382 10.2471,22.83569 1.5089,42.78989 z" />
    <path id="C_32-Z_29" fill-opacity="0" d="m 1454.6276,553.08213 84.3999,-0.91532 c -28.1249,-27.01671 -55.6741,-34.68687 -84.3999,0.91532 z" />
    <path id="C_33-Z_27" fill-opacity="0" d="m 1575.063,604.70928 c 19.1975,-16.72729 22.0479,-19.48614 20.2708,-16.70659 -14.3187,-22.56948 -24.3274,-25.91425 -8.952,-54.25589 l -17.4053,-6.2681 c -17.9866,15.67583 -4.1996,73.66192 6.0865,77.23058 z" />
    <path id="C_33-Z_25" fill-opacity="0" transform="matrix(0.9997789,0,0,-0.96137317,333.00091,646.29199)" d="m 1310.384,94.189934 a 29.673264,31.894791 0 1 1 -59.3466,0 29.673264,31.894791 0 1 1 59.3466,0 z" />
    <path id="C_33-Z_26" fill-opacity="0" d="m 1640.5349,586.81291 28.4599,13.57252 c 32.1826,-15.2907 17.6056,-41.80897 -9.2728,-65.5282 l -15.4118,2.28911 c 8.9748,21.70448 5.793,21.47832 -3.7753,49.66657 z" />
    <path id="C_34-Z_25" fill-opacity="0" transform="matrix(0.9997789,0,0,-0.96137317,479.01203,641.87866)" d="m 1310.384,94.189934 a 29.673264,31.894791 0 1 1 -59.3466,0 29.673264,31.894791 0 1 1 59.3466,0 z" />
    <path id="C_33-Z_28" fill-opacity="0" d="m 1573.2774,607.60777 23.4797,-16.78067 40.4235,-2.94632 31.9188,14.54027 c -43.8833,31.68622 -71.152,21.69606 -95.822,5.18672 z" />
    <path id="C_33-Z_29" fill-opacity="0" d="m 1587.9684,532.01647 -17.2969,-6.16352 c 42.5934,-22.19554 56.0704,-13.10615 84.8759,5.72666 l -12.0849,2.41543 c -15.0031,-9.72751 -30.4823,-18.71769 -55.4941,-1.97857 z" />
    <path id="C_34-Z_27" fill-opacity="0" d="m 1707.078,596.86206 c 17.4495,-10.22408 24.7481,-21.45134 23.4027,-18.43255 -14.398,-26.83699 -13.6811,-17.33275 -1.8588,-44.74689 l -19.0465,-6.65621 c -5.9045,6.13205 -28.0337,33.53965 -2.4974,69.83565 z" />
    <path id="C_34-Z_26" fill-opacity="0" d="m 1781.6463,581.72427 16.6267,12.77092 c 25.3004,-2.02772 34.8938,-32.82195 27.2625,-65.43776 l -32.9436,4.15033 c 6.8041,41.1868 -2.7584,32.72094 -10.9456,48.51651 z" />
    <path id="C_34-Z_28" fill-opacity="0" d="m 1711.6967,597.6771 20.1074,-17.11636 c 16.6047,12.44631 28.2738,7.79573 44.879,0.32673 l 21.2996,17.33851 c -53.7608,43.69241 -49.022,16.94692 -86.286,-0.54904 z" />
    <path id="C_34-Z_29" fill-opacity="0" d="m 1729.2024,529.48963 -17.8324,-4.87789 c 29.1966,-23.05288 87.4428,-15.29935 111.9172,2.51479 l -32.5173,4.42479 c -13.6287,-14.13344 -34.3803,-25.77496 -61.5675,-2.06169 z" />
    <path id="C_35-Z_25" fill-opacity="0" transform="matrix(0.9997789,0,0,-0.96137317,607.43337,644.33679)" d="m 1310.384,94.189934 a 29.673264,31.894791 0 1 1 -59.3466,0 29.673264,31.894791 0 1 1 59.3466,0 z" />
    <path id="C_35-Z_27" fill-opacity="0" d="m 1838.6404,610.10721 c 17.4496,-10.22402 22.0559,-29.218 20.7102,-26.19916 -14.6072,-28.24905 -10.5378,-35.87142 2.1798,-57.25976 l -14.1107,-8.81367 c -10.4178,15.98847 -26.2697,43.66616 -8.7793,92.27259 z" />
    <path id="C_35-Z_26" fill-opacity="0" d="m 1915.1184,580.75259 27.3068,17.08181 c 41.412,-11.99158 19.6602,-78.62416 -3.7356,-82.2569 l -23.9226,13.98506 c 11.5899,18.34901 12.7073,27.35957 0.3517,51.19003 z" />
    <path id="C_35-Z_28" fill-opacity="0" d="m 1842.2853,612.13968 21.2446,-28.39993 c 16.4779,15.42015 35.1992,8.71146 51.6771,-0.54213 l 32.5535,18.78187 c -52.1994,42.09186 -79.5877,36.33625 -105.4752,10.16025 z" />
    <path id="C_35-Z_29" fill-opacity="0" d="m 1865.1998,524.86596 -18.1283,-9.01766 c 27.2,-36.27032 65.331,-12.91872 88.8919,-1.77442 l -25.1963,13.03207 c -12.6746,-6.49214 -24.4382,-13.41153 -45.5673,-2.23999 z" />
    <path id="C_38-Z_30" fill-opacity="0" d="m 2392.0555,594.65794 c -12.1501,-3.82708 -17.2578,-12.52203 -25.464,-21.65214 l 19.7277,-16.61463 -0.1672,15.11609 15.0464,-0.34766 z" />
    <path id="C_38-Z_27" fill-opacity="0" d="m 2366.0184,572.6963 c -9.2534,-30.53059 -17.3818,-53.99708 -7.1817,-80.75011 l 26.262,17.09212 0.3818,44.65607 z" />
    <path id="C_38-Z_33" fill-opacity="0" d="m 2360.4369,490.74637 25.0872,16.59844 -0.4433,-22.42678 20.0315,-0.52123 1.316,-29.38806 c -16.3106,2.5089 -35.758,18.66399 -45.9914,35.73722 z" />
    <path id="C_38-Z_29" fill-opacity="0" d="m 2406.7114,483.37269 1.9266,-28.49141 c 14.3638,0.69757 8.0365,0.0543 30.3296,2.80741 6.8593,0.84679 17.0619,-5.91769 30.7759,-4.29027 l -1.4777,28.22292 z" />
    <path id="C_38-Z_37" fill-opacity="0" d="m 2470.5987,483.13598 1.6248,-29.71837 c 39.1148,2.13981 53.7235,34.16512 54.4348,36.74977 l -32.652,18.88352 1.0338,-25.72112 z" />
    <path id="C_38-Z_26" fill-opacity="0" d="m 2500.601,507.41304 27.4758,-15.37022 c 9.8351,13.51465 38.3756,49.2318 -10.329,91.695 l -21.947,-22.65649 z" />
    <path id="C_38-Z_34" fill-opacity="0" d="m 2462.2603,574.62892 27.7579,3.22974 1.7495,-16.04401 -26.9693,-2.13561 z" />
    <path id="C_38-Z_28" fill-opacity="0" d="m 2462.937,594.37662 c -1.6093,-1.23102 -3.775,-3.8998 -13.9873,-2.02154 -10.245,1.88421 -26.4222,9.09168 -55.5842,3.50566 l 9.6212,-24.56621 61.3147,5.39992 z" />
    <path id="C_38-Z_31" fill-opacity="0" d="m 2387.3436,570.00003 14.5953,-0.3048 3.1728,-19.52649 -17.7681,0.3048 z" />
    <path id="C_38-Z_32" fill-opacity="0" d="m 2387.1035,508.33241 -0.6346,-22.27248 17.4894,0.14788 0.9134,22.7346 z" />
    <path id="C_38-Z_36" fill-opacity="0" d="m 2470.5095,484.3186 23.4796,0.30478 -0.9515,25.32359 -24.1143,-0.61051 z" />
    <path id="C_38-Z_25" fill-opacity="0" d="m 2387.4298,548.58843 20.4381,0.0894 -3.6219,20.35247 56.1961,4.50252 2.5385,-15.56025 30.46,2.13579 3.4905,-48.51134 -30.7775,-0.61051 1.5867,-26.84901 -61.5681,1.90455 0.3175,25.39129 -19.2455,-1.43623 z" />
    <path id="C_32-Z_43" fill-opacity="0" d="m 1502.9188,629.72055 -0.5797,-28.80599 -62.7657,-1.08135 c 0.1759,6.30853 18.7327,30.38691 63.3454,29.88734 z" />
    <path id="C_38-Z_41" fill-opacity="0" d="m 2465.2187,595.62256 1.4944,-18.3246 25.1389,2.09981 1.5149,-16.99638 23.7073,23.53637 c -9.398,11.75946 -16.7986,6.0512 -51.8555,9.6848 z" />
    <path id="C_37-Z_30" fill-opacity="0" d="m 2203.4348,611.41321 c -11.0564,-5.18118 -19.5993,-12.7532 -28.758,-21.76429 l 23.5271,-20.73682 -0.4961,12.4964 17.0979,-0.0543 z" />
    <path id="C_37-Z_27" fill-opacity="0" d="m 2173.3693,588.55481 c -7.4718,-29.83762 -13.4049,-59.13237 -4.0126,-86.33122 l 28.3892,19.31708 0.4117,44.65601 z" />
    <path id="C_37-Z_33" fill-opacity="0" d="m 2168.9627,500.17717 28.9535,19.65929 -0.449,-23.15717 20.2939,-0.53739 1.3337,-27.59927 c -17.8179,1.52327 -30.5573,3.64887 -50.1321,31.6349 z" />
    <path id="C_37-Z_29" fill-opacity="0" d="m 2219.3898,495.87507 1.2911,-27.33285 c 28.436,6.6197 38.0576,-4.03746 61.3303,0.24049 l -1.0672,25.22519 z" />
    <path id="C_37-Z_37" fill-opacity="0" d="m 2283.2965,494.5066 0.077,-25.76127 c 26.3027,-5.27738 44.1179,28.30295 45.2192,41.21681 l -24.1142,13.2981 2.196,-27.4728 z" />
    <path id="C_37-Z_26" fill-opacity="0" d="m 2299.0521,527.02615 30.0815,-15.79127 c 2.8596,21.82838 5.6024,56.40442 -9.5191,76.03819 l -26.3506,-18.84222 z" />
    <path id="C_37-Z_34" fill-opacity="0" d="m 2266.0535,583.16504 23.9509,1.70426 1.7497,-14.51857 -24.1134,-3.35611 z" />
    <path id="C_37-Z_28" fill-opacity="0" d="m 2273.0767,609.42554 c 0.3089,2.10546 -4.5077,-6.00757 -18.3272,-2.32139 -32.3107,8.61858 -31.5925,4.94053 -50.2923,4.86699 l 13.1108,-31.22524 53.0659,4.19738 z" />
    <path id="C_37-Z_31" fill-opacity="0" d="m 2199.7043,579.45151 17.7681,-0.3053 1.5868,-19.52646 -19.3549,0.91526 z" />
    <path id="C_37-Z_32" fill-opacity="0" d="m 2199.7811,522.05521 -0.6345,-23.49292 17.4894,0.14788 0.9133,24.26016 z" />
    <path id="C_37-Z_36" fill-opacity="0" d="m 2283.1876,496.82112 21.893,0.91526 -2.221,25.93363 -21.2587,-1.83051 z" />
    <path id="C_37-Z_25" fill-opacity="0" d="m 2199.7902,558.95512 20.7553,-1.13101 -1.9806,21.86271 45.9882,2.24035 1.2693,-17.55426 25.3831,3.35615 6.6635,-43.01952 -19.0369,-1.22031 1.5861,-26.84905 -61.5674,1.90459 0.3174,26.91676 -19.2464,-1.13101 z" />
    <path id="C_37-Z_41" fill-opacity="0" d="m 2274.3817,609.55085 -1.2308,-23.95496 17.4512,0.91526 1.9037,-16.78063 25.7004,19.2214 c -11.2342,12.2883 -7.6487,19.75001 -43.8245,20.59893 z" />
    <path id="C_36-Z_30" fill-opacity="0" d="m 2010.6663,629.55571 c -19.0487,-0.32727 -29.6765,-17.39861 -33.8884,-28.43366 l 32.7983,-24.35839 -0.4669,12.11048 16.0701,-0.0543 z" />
    <path id="C_36-Z_27" fill-opacity="0" d="m 1974.7029,599.17423 c -9.0901,-41.08387 -5.1484,-69.75099 4.8688,-89.29298 l 28.5419,19.53289 0.3944,44.65591 z" />
    <path id="C_36-Z_33" fill-opacity="0" d="m 1979.7523,508.71438 28.7057,19.00563 -0.4444,-22.38703 20.1208,-0.51966 1.322,-26.6816 c -17.7159,1.41939 -34.0658,-0.51182 -49.7041,30.58298 z" />
    <path id="C_36-Z_29" fill-opacity="0" d="m 2029.7402,503.74843 1.292,-26.18274 c 28.9051,1.58606 37.9017,-5.22374 61.1056,-0.42504 l -0.843,24.81924 z" />
    <path id="C_36-Z_37" fill-opacity="0" d="m 2092.9954,503.59185 0.6827,-24.94392 c 24.9051,0.1443 43.8247,20.718 52.4105,36.16174 l -32.1791,16.44587 2.5541,-26.28544 z" />
    <path id="C_36-Z_26" fill-opacity="0" d="m 2109.2246,534.52306 39.0643,-18.65595 c 17.8907,20.88793 22.9671,67.50982 -1.2174,87.02316 l -43.4682,-27.75726 z" />
    <path id="C_36-Z_34" fill-opacity="0" d="m 2076.4048,591.03847 23.9511,1.70431 1.7495,-14.51858 -24.1143,-3.3561 z" />
    <path id="C_36-Z_28" fill-opacity="0" d="m 2083.4276,619.60794 c 0.3089,1.99954 -10.6995,-3.35222 -24.5186,0.14848 -32.3111,8.18497 -27.9393,8.7132 -46.6393,8.6434 l 15.6498,-39.78052 53.0655,3.98622 z" />
    <path id="C_36-Z_31" fill-opacity="0" d="m 2010.0557,587.32484 17.7677,-0.3048 1.5862,-19.52656 -19.3539,0.91526 z" />
    <path id="C_36-Z_32" fill-opacity="0" d="m 2010.1323,529.92856 -0.6345,-23.49284 17.4894,0.14788 0.9134,24.26012 z" />
    <path id="C_36-Z_36" fill-opacity="0" d="m 2093.5384,504.6945 21.8934,0.91519 -2.2213,25.93379 -21.2583,-1.83057 z" />
    <path id="C_36-Z_25" fill-opacity="0" d="m 2010.1411,566.82849 20.7556,-1.13097 -1.0836,20.96279 45.0913,3.5871 1.2694,-18.00102 25.3831,3.35608 6.6631,-43.0194 -19.0375,-1.22041 1.5865,-26.84901 -61.5674,1.9046 0.3173,26.91665 -19.2458,-1.13096 z" />
    <path id="C_36-Z_41" fill-opacity="0" d="m 2085.4058,618.69983 -1.9035,-26.15189 17.4508,0.86208 1.9035,-15.80602 43.1518,26.15191 c -20.2998,12.95944 -24.1931,15.61901 -60.6026,14.94392 z" />
    <path id="C_41-Z_43" fill-opacity="0" d="m 1259.7761,630.77618 -0.3173,-28.37452 55.4147,-1.50901 c 1.0428,6.5334 1.3691,25.68621 -55.0978,29.88353 z" />
    <path id="C_41-Z_42" fill-opacity="0" d="m 1257.2151,626.02991 -1.5316,-23.75461 -51.9924,-2.08341 c -5.1626,3.62791 17.2763,32.22075 53.524,25.83802 z" />
    <path id="C_41-Z_27" fill-opacity="0" d="m 1318.4087,599.18834 c -66.3184,3.71202 -44.6274,-0.004 -44.753,1.32143 17.5271,-16.68852 17.4388,-24.11472 4.2792,-41.89629 l 29.6936,-1.29446 c 16.0147,19.78126 9.9765,30.55579 10.7802,41.86932 z" />
    <path id="C_41-Z_26" fill-opacity="0" d="m 1246.9796,598.71876 -44.1861,-0.61051 c 5.5806,-26.20183 5.3205,-21.39985 17.4599,-40.50618 l 23.7931,-0.30478 c -11.5953,24.93137 -18.332,22.94605 2.9331,41.42141 z" />
    <path id="C_41-Z_29" fill-opacity="0" d="m 1309.183,556.85688 -88.7435,-0.40047 c 23.7935,-28.48938 70.6202,-24.9192 88.7435,0.40047 z" />
    <path id="C_41-Z_25" fill-opacity="0" d="m 1310.384,94.189934 a 29.673264,31.894791 0 1 1 -59.3466,0 29.673264,31.894791 0 1 1 59.3466,0 z" transform="matrix(-0.64413308,0,0,-0.61938916,2087.1653,636.55015)" />
    <path id="C_42-Z_42" fill-opacity="0" d="m 1136.3496,628.09769 0.7114,-27.63796 -60.5988,-5.86202 c -1.4729,11.86199 38.6822,37.21914 59.8874,33.49998 z" />
    <path id="C_42-Z_27" fill-opacity="0" d="m 1199.6884,596.82263 c -26.1781,1.95437 -42.6662,1.02269 -39.3266,-1.7396 4.9533,-4.09665 17.311,-18.94991 -0.7123,-41.10634 l 28.6332,0.61047 c 8.8847,3.80041 15.8381,46.13016 11.4057,42.23579 z" />
    <path id="C_42-Z_25" fill-opacity="0" d="m 1310.384,94.189934 a 29.673264,31.894791 0 1 1 -59.3466,0 29.673264,31.894791 0 1 1 59.3466,0 z" transform="matrix(-0.73233435,0,0,-0.70420222,2080.4223,641.23817)" />
    <path id="C_42-Z_26" fill-opacity="0" d="m 1123.4639,596.43079 -47.7245,-4.13604 c 4.9129,-24.10312 2.7773,-14.98226 25.2292,-39.08538 l 24.0053,0.43185 c -15.2973,23.44392 -10.2472,22.83575 -1.51,42.78989 z" />
    <path id="C_42-Z_29" fill-opacity="0" d="m 1190.2861,552.79208 -87.2554,-0.91532 c 28.125,-27.01675 58.5292,-34.68681 87.2554,0.91532 z" />
    <path id="C_43-Z_27" fill-opacity="0" d="m 1066.9952,604.41923 c -19.1978,-16.72729 -22.0477,-19.4862 -20.2708,-16.70659 14.3183,-22.56955 22.0916,-14.07091 10.2206,-53.64561 l 18.6751,-6.87839 c 17.986,15.67586 1.6608,73.66199 -8.6249,77.23059 z" />
    <path id="C_43-Z_25" fill-opacity="0" transform="matrix(-0.9997789,0,0,-0.96137317,2309.0571,646.00194)" d="m 1310.384,94.189934 a 29.673264,31.894791 0 1 1 -59.3466,0 29.673264,31.894791 0 1 1 59.3466,0 z" />
    <path id="C_43-Z_26" fill-opacity="0" d="m 1001.5238,586.52291 -28.46079,13.57253 c -32.18208,-15.29074 -17.60476,-41.80908 9.27279,-65.5282 l 15.41221,2.28895 c -8.97515,21.70458 -5.7929,21.47838 3.77579,49.66672 z" />
    <path id="C_44-Z_25" fill-opacity="0" transform="matrix(-0.9997789,0,0,-0.96137317,2163.0459,641.58865)" d="m 1310.384,94.189934 a 29.673264,31.894791 0 1 1 -59.3466,0 29.673264,31.894791 0 1 1 59.3466,0 z" />
    <path id="C_43-Z_28" fill-opacity="0" d="m 1068.7808,607.31777 -23.4796,-16.78066 -40.4236,-2.94644 -31.9188,14.54033 c 43.8828,31.68628 71.1519,21.69596 95.822,5.18677 z" />
    <path id="C_43-Z_29" fill-opacity="0" d="m 1057.8974,531.42116 17.297,-5.85814 c -42.5936,-22.1957 -59.878,-13.10631 -88.68404,5.72653 l 12.08549,2.41538 c 15.00315,-9.72745 34.28975,-19.02269 59.30155,-2.28377 z" />
    <path id="C_44-Z_27" fill-opacity="0" d="m 934.97995,596.57201 c -17.44956,-10.22409 -24.74807,-21.45144 -23.40244,-18.43261 14.39721,-26.83693 13.6815,-17.33279 1.85852,-44.7469 l 19.04689,-6.65618 c 5.90442,6.13215 28.03326,33.53964 2.49703,69.83569 z" />
    <path id="C_44-Z_26" fill-opacity="0" d="m 860.41197,581.43428 -16.62663,12.77092 c -25.30082,-2.02782 -34.89438,-32.82205 -27.26268,-65.43786 l 32.94326,4.15037 c -6.80409,41.1868 2.75859,32.7209 10.94605,48.51657 z" />
    <path id="C_44-Z_28" fill-opacity="0" d="m 930.36155,597.38705 -20.10739,-17.11636 c -16.60519,12.44631 -28.27423,7.79573 -44.87901,0.32675 l -21.29951,17.33838 c 53.76034,43.69242 49.02186,16.94693 86.28591,-0.54903 z" />
    <path id="C_44-Z_29" fill-opacity="0" d="m 912.85583,529.19958 17.83248,-4.8779 c -29.19666,-23.05281 -87.44286,-15.29934 -111.91735,2.51485 l 32.51743,4.42474 c 13.62833,-14.13342 34.38023,-25.775 61.56744,-2.06169 z" />
    <path id="C_45-Z_25" fill-opacity="0" transform="matrix(-0.9997789,0,0,-0.96137317,2034.6245,644.04685)" d="m 1310.384,94.189934 a 29.673264,31.894791 0 1 1 -59.3466,0 29.673264,31.894791 0 1 1 59.3466,0 z" />
    <path id="C_45-Z_27" fill-opacity="0" d="m 803.41792,609.81716 c -17.44956,-10.22402 -22.05593,-29.21791 -20.7103,-26.19912 14.60732,-28.24909 10.53782,-35.87156 -2.1797,-57.25986 l 14.11034,-8.81361 c 10.41818,15.98847 26.26952,43.66616 8.77966,92.27259 z" />
    <path id="C_45-Z_26" fill-opacity="0" d="m 726.93954,580.46266 -27.30682,17.08174 c -41.4116,-11.99164 -19.6597,-78.62415 3.73588,-82.25691 l 23.92259,13.98492 c -11.58974,18.34911 -12.70722,27.35967 -0.35165,51.19025 z" />
    <path id="C_45-Z_28" fill-opacity="0" d="m 799.77294,611.84963 -21.24461,-28.39992 c -16.47784,15.42014 -35.19926,8.71145 -51.67711,-0.54208 l -32.55346,18.78171 c 52.19901,42.09198 79.58732,36.33647 105.47518,10.16035 z" />
    <path id="C_45-Z_29" fill-opacity="0" d="m 776.85851,524.57597 18.12795,-9.01778 c -27.20007,-36.27026 -65.33076,-12.91872 -88.89143,-1.77426 l 25.19619,13.03196 c 12.67463,-6.49214 24.43803,-13.4114 45.56729,-2.23992 z" />
    <path id="C_48-Z_30" fill-opacity="0" d="m 268.08782,610.5383 c 12.15105,-3.82702 18.52804,-14.3526 26.73394,-23.48271 l -23.21803,-20.58104 0.16723,15.11615 -15.04644,-0.34767 z" />
    <path id="C_48-Z_27" fill-opacity="0" d="m 295.39424,586.13583 c 9.25395,-30.53063 15.16093,-59.79395 4.96103,-86.54697 l -27.53069,19.53283 -0.38165,44.65613 z" />
    <path id="C_48-Z_33" fill-opacity="0" d="m 300.97576,498.38899 -28.57699,19.0392 0.44296,-22.42671 -20.03061,-0.52123 -1.31607,-29.38812 c 17.65369,1.43236 47.10548,9.9266 49.48071,33.29644 z" />
    <path id="C_48-Z_29" fill-opacity="0" d="m 251.21118,493.45614 -1.92625,-28.49147 c -18.78277,0.91207 -2.18528,-0.46738 -60.47094,6.4499 l 0.84263,20.29025 z" />
    <path id="C_48-Z_37" fill-opacity="0" d="m 187.32384,493.21937 -0.99015,-21.17545 c -43.51582,-9.7106 -64.12576,14.08931 -60.78053,27.59669 l 38.36354,19.49368 -1.03348,-25.72096 z" />
    <path id="C_48-Z_26" fill-opacity="0" d="m 163.66754,521.76786 -38.26362,-20.86207 c -9.83499,13.51455 -18.27032,50.45225 14.77115,92.91551 l 30.83087,-25.09731 z" />
    <path id="C_48-Z_34" fill-opacity="0" d="m 204.86429,584.10221 -29.97924,3.22974 -1.75003,-15.12869 28.23911,-3.96637 z" />
    <path id="C_48-Z_28" fill-opacity="0" d="m 196.2553,623.68151 c 19.59794,1.3795 55.50992,-7.62984 70.52292,-12.85573 l -11.84188,-29.44777 -61.31529,5.39977 z" />
    <path id="C_48-Z_31" fill-opacity="0" d="m 270.57926,580.08352 -14.59574,-0.30478 -3.1724,-19.5264 17.76814,0.30478 z" />
    <path id="C_48-Z_32" fill-opacity="0" d="m 270.8194,518.4158 0.63467,-22.27243 -17.48944,0.14788 -0.91338,22.73461 z" />
    <path id="C_48-Z_36" fill-opacity="0" d="m 187.41303,494.40199 -23.47918,0.30583 0.95197,25.32343 24.11384,-0.61053 z" />
    <path id="C_48-Z_25" fill-opacity="0" d="m 270.49308,558.67181 -20.43842,0.0894 3.62224,20.35257 -46.99483,4.50254 -3.80793,-17.08579 -29.50755,3.66126 -7.93275,-47.90113 26.33559,-1.22042 -1.58666,-26.84895 61.56743,1.9046 -0.31731,25.39124 19.24587,-1.43623 z" />
    <path id="C_42-Z_43" fill-opacity="0" d="m 1139.1395,629.4306 0.5797,-28.80613 62.7656,-1.08121 c -0.1758,6.30849 -18.7326,30.38671 -63.3453,29.88734 z" />
    <path id="C_48-Z_41" fill-opacity="0" d="m 193.97354,624.62228 -2.76374,-37.24093 -16.8895,1.4896 -2.14927,-16.38606 -31.32187,23.53635 c 11.13733,15.66335 21.30507,32.23165 53.12438,28.60104 z" />
    <path id="C_47-Z_30" fill-opacity="0" d="m 438.6236,611.12316 c 11.05584,-5.18113 19.59923,-12.7532 28.75754,-21.76433 l -23.52723,-20.73679 0.49659,12.49641 -17.09793,-0.0543 z" />
    <path id="C_47-Z_27" fill-opacity="0" d="m 468.68904,588.26482 c 7.47177,-29.83756 13.40492,-59.13241 4.01204,-86.33138 l -28.38875,19.31717 -0.41168,44.65608 z" />
    <path id="C_47-Z_33" fill-opacity="0" d="m 473.09516,499.88706 -28.95306,19.65939 0.44896,-23.15715 -20.29434,-0.53817 -1.3332,-27.59926 c 17.81834,1.52332 30.55687,3.64884 50.13164,31.63487 z" />
    <path id="C_47-Z_29" fill-opacity="0" d="m 422.66849,495.58502 -1.29118,-27.33286 c -28.43593,6.61967 -38.05736,-4.03749 -61.33029,0.2405 l 1.06691,25.22519 z" />
    <path id="C_47-Z_37" fill-opacity="0" d="m 358.76187,494.21655 -0.0772,-25.76137 c -26.3017,-5.27728 -44.11746,28.30305 -45.21867,41.21691 l 24.11429,13.29806 -2.19601,-27.4727 z" />
    <path id="C_47-Z_26" fill-opacity="0" d="m 343.00616,526.7361 -30.08133,-15.79121 c -2.86022,21.82842 -5.60253,56.40441 9.51852,76.03809 l 26.351,-18.84228 z" />
    <path id="C_47-Z_34" fill-opacity="0" d="m 376.00429,582.875 -23.9509,1.70415 -1.74959,-14.51837 24.11384,-3.35615 z" />
    <path id="C_47-Z_28" fill-opacity="0" d="m 368.98149,609.13549 c -0.30875,2.10546 4.50775,-6.00761 18.32735,-2.32137 32.31074,8.61866 31.59246,4.94047 50.29245,4.86687 l -13.11116,-31.22508 -53.06564,4.19728 z" />
    <path id="C_47-Z_31" fill-opacity="0" d="m 442.3539,579.16141 -17.76815,-0.30478 -1.58664,-19.52655 19.35479,0.91535 z" />
    <path id="C_47-Z_32" fill-opacity="0" d="m 442.27715,521.76516 0.63423,-23.49286 -17.48943,0.14788 -0.91339,24.25999 z" />
    <path id="C_47-Z_36" fill-opacity="0" d="m 358.87035,496.53097 -21.89258,0.91532 2.22087,25.93369 21.25877,-1.83054 z" />
    <path id="C_47-Z_25" fill-opacity="0" d="m 442.26772,558.66507 -20.75532,-1.13101 1.98071,21.86261 -45.98839,2.24044 -1.26887,-17.55419 -25.38359,3.35605 -6.663,-43.01948 19.03746,-1.22036 -1.58662,-26.849 61.56742,1.90465 -0.31733,26.9167 19.2463,-1.13107 z" />
    <path id="C_47-Z_41" fill-opacity="0" d="m 367.6766,609.26086 1.23029,-23.95502 -17.45085,0.91532 -1.90352,-16.78073 -25.70048,19.2215 c 11.23422,12.28824 7.64886,19.74995 43.82456,20.59893 z" />
    <path id="C_46-Z_30" fill-opacity="0" d="m 631.57981,630.24914 c 19.04904,-0.32779 29.67693,-17.39861 33.88837,-28.43365 l -32.79788,-24.35844 0.467,12.11058 -16.07047,-0.0543 z" />
    <path id="C_46-Z_27" fill-opacity="0" d="m 668.49565,601.39314 c 12.46195,-41.54723 6.72091,-71.62335 -5.82123,-90.81845 l -28.54185,19.53288 -0.39451,44.65604 z" />
    <path id="C_46-Z_33" fill-opacity="0" d="m 662.49432,509.40791 -28.70607,19.00549 0.44466,-22.38703 -20.12109,-0.5202 -1.32164,-26.68154 c 17.71544,1.41939 34.06549,-0.51181 49.70414,30.58296 z" />
    <path id="C_46-Z_29" fill-opacity="0" d="m 612.50589,504.44192 -1.29161,-26.18274 c -28.90548,1.58606 -37.90213,-5.22384 -61.106,-0.42504 l 0.84305,24.81924 z" />
    <path id="C_46-Z_37" fill-opacity="0" d="m 549.25149,504.28518 -0.68354,-24.94375 c -24.90459,0.14429 -43.82414,20.71795 -52.40997,36.16161 l 32.17909,16.44587 -2.55449,-26.28542 z" />
    <path id="C_46-Z_26" fill-opacity="0" d="m 533.02151,535.21649 -39.0638,-18.65593 c -17.89082,20.88785 -22.96719,67.5097 1.2174,87.02318 l 43.46823,-27.75735 z" />
    <path id="C_46-Z_34" fill-opacity="0" d="m 565.84126,591.73194 -23.95048,1.70423 -1.75,-14.51859 24.11426,-3.35609 z" />
    <path id="C_46-Z_28" fill-opacity="0" d="m 558.8189,620.30132 c -0.30876,1.99949 10.69949,-3.35207 24.51864,0.14848 32.31118,8.18484 27.93936,8.71313 46.63935,8.64323 l -15.64937,-39.78048 -53.06607,3.98623 z" />
    <path id="C_46-Z_31" fill-opacity="0" d="m 632.19131,588.01837 -17.76858,-0.3048 -1.58622,-19.52653 19.3548,0.91519 z" />
    <path id="C_46-Z_32" fill-opacity="0" d="m 632.11412,530.62212 0.63465,-23.49297 -17.48986,0.14789 -0.91295,24.26027 z" />
    <path id="C_46-Z_36" fill-opacity="0" d="m 548.70773,505.38787 -21.89298,0.91531 2.22086,25.9337 21.25877,-1.83054 z" />
    <path id="C_46-Z_25" fill-opacity="0" d="m 632.10512,567.52198 -20.75533,-1.13096 1.0832,20.96262 -45.0913,3.58722 -1.26931,-18.00104 -25.38272,3.35615 -6.66342,-43.01952 19.03745,-1.22036 -1.5862,-26.84906 61.56744,1.90471 -0.31734,26.91666 19.2463,-1.13107 z" />
    <path id="C_46-Z_41" fill-opacity="0" d="m 556.84032,619.39333 1.90396,-26.15195 -17.45128,0.86213 -1.90351,-15.80618 -43.15132,26.15201 c 20.2995,12.9595 24.19317,15.61897 60.60215,14.94399 z" />
</svg>
