<svg
    xmlns:dc="http://purl.org/dc/elements/1.1/"
    xmlns:cc="http://creativecommons.org/ns#"
    xmlns:rdf="http://www.w3.org/1999/02/22-rdf-syntax-ns#"
    xmlns:svg="http://www.w3.org/2000/svg"
    xmlns="http://www.w3.org/2000/svg"
    xmlns:xlink="http://www.w3.org/1999/xlink"
    xmlns:sodipodi="http://sodipodi.sourceforge.net/DTD/sodipodi-0.dtd"
    xmlns:inkscape="http://www.inkscape.org/namespaces/inkscape"
    version="1.0"
    id="odontogram"
    height="100%"
    width="100%"
    viewBox="0 0 650 300">
    <title id="title4022">Schema dentaire enfant</title>
    <defs id="defs4" />
    <metadata id="metadata7">
        <rdf:RDF>
            <cc:Work rdf:about="">
                <dc:format>image/svg+xml</dc:format>
                <dc:type rdf:resource="http://purl.org/dc/dcmitype/StillImage" />
                <dc:title>SCHEMA DENTAIRE</dc:title>
                <dc:date>12/01/2023</dc:date>
                <dc:creator>
                    <cc:Agent>
                        <dc:title>DENTALVIA MEDILOR</dc:title>
                    </cc:Agent>
                </dc:creator>
                <dc:publisher>
                    <cc:Agent>
                        <dc:title>DENTALVIA MEDILOR</dc:title>
                    </cc:Agent>
                </dc:publisher>
                <dc:rights>
                    <cc:Agent>
                        <dc:title>COPYRIGHT DENTALVIA MEDILOR 2023</dc:title>
                    </cc:Agent>
                </dc:rights>
                <dc:language>FR</dc:language>
                <dc:subject>
                    <rdf:Bag>
                        <rdf:li>dent</rdf:li>
                        <rdf:li>dents</rdf:li>
                        <rdf:li>dentaire</rdf:li>
                        <rdf:li>dentistes</rdf:li>
                        <rdf:li>dentist</rdf:li>
                        <rdf:li>teeth</rdf:li>
                        <rdf:li>tooth</rdf:li>
                    </rdf:Bag>
                </dc:subject>
                <cc:license rdf:resource="" />
            </cc:Work>
        </rdf:RDF>
    </metadata>
    <image y="9.8799648" x="0" height="269" width="643" id="image5275" xlink:href="resources/svg/odontogram/background_child.png" />
    <path id="C_55" fill-opacity="0" d="m 112.71072,88.370132 c -7.12763,15.282538 -7.55888,30.844098 13.6828,27.229798 4.47165,4.28235 16.15169,5.07408 18.40594,3.88486 4.13883,-2.18341 7.28227,-4.17833 9.41616,-6.78609 2.393,-2.92439 2.62605,-6.20158 1.97691,-9.76015 -1.74401,-4.861761 -4.30235,-7.738403 -5.70316,-14.784494 z" />
    <path id="C_54" fill-opacity="0" d="m 161.18668,88.318392 c -2.79681,10.384021 -3.80466,10.729659 -3.05851,24.899598 5.94144,6.78794 11.9314,4.97881 17.65303,6.02815 12.01214,3.6905 18.59026,2.36767 25.46266,-4.73875 3.36551,-11.80229 -3.46757,-16.699231 -3.91834,-25.7937 z" />
    <path id="C_53" fill-opacity="0" d="m 209.00049,88.411292 c -4.36298,5.181609 -7.72137,22.870108 -5.48529,25.424628 5.49782,8.53537 14.05575,7.65124 21.46976,9.35043 14.57716,-2.15435 16.60863,-11.50088 17.27127,-13.48098 1.65297,-7.46388 -1.08843,-14.944661 -3.09298,-21.248681 z" />
    <path id="C_63" fill-opacity="0" d="m 435.28493,87.946742 c 3.9082,7.44268 8.0441,24.932978 5.1663,27.671848 -5.353,8.73527 -13.1281,8.01627 -20.3468,9.75526 -14.1929,-2.20484 -16.2639,-12.37417 -16.9091,-14.40063 -1.6093,-7.63872 0.8739,-16.296078 2.8257,-22.747728 z" />
    <path id="C_64" fill-opacity="0" d="m 483.91363,88.177942 c 3.0463,11.66243 6.147,11.7609 5.384,26.747148 -6.0756,7.17896 -12.545,5.48661 -18.3955,6.59641 -12.2871,3.90554 -22.4295,5.15121 -27.129,-3.8092 -2.3199,-7.49512 0.8986,-15.51041 3.6886,-20.885848 1.2783,-2.46271 0.9986,-4.97266 1.5527,-8.43083 z" />
    <path id="C_65" fill-opacity="0" d="m 530.94453,87.946742 c 7.0778,14.626578 8.9949,32.037038 -7.9047,31.218198 -1.3306,-0.0646 -2.7735,-0.0944 -4.3479,-0.48043 -4.3705,4.6035 -15.6476,4.94362 -17.851,3.66521 -4.0454,-2.34715 -7.6754,-3.98069 -9.7611,-6.78401 -2.3391,-3.1437 -1.6377,-6.89892 -1.0032,-10.72436 1.8785,-5.519088 1.2826,-1.96519 5.3568,-16.894608 z" />
    <path id="C_75" fill-opacity="0" d="m 473.92693,193.49536 c -8.0899,-17.62708 -2.816,-28.09329 3.7333,-32.57828 7.4726,-1.86884 11.6689,1.31479 16.5599,3.15667 6.241,-2.04058 12.9002,-3.39776 19.1413,-0.29658 5.1113,2.8627 7.6542,9.09995 6.3019,21.04642 -1.0729,4.77271 -1.4491,5.87132 -2.5221,8.62531 z" />
    <path id="C_74" fill-opacity="0" d="m 423.11393,193.35601 c -2.1531,-6.67248 -5.7721,-14.4416 -3.7946,-25.9623 13.1863,-14.24391 20.4891,-4.87916 24.9259,-3.55551 3.0862,-0.52272 6.6295,-1.58915 10.4103,-3.5011 3.9857,1.58054 8.7608,4.16958 12.7464,6.07584 5.7855,5.5912 0.7483,21.02044 -1.1521,27.03596 z" />
    <path id="C_73" fill-opacity="0" d="m 385.95723,190.61729 c -1.835,-18.32711 -2.6952,-36.0415 11.5141,-32.9293 11.8479,3.52175 20.3575,7.84185 20.8751,13.80399 0.7583,6.71226 -3.0972,12.76546 -5.7812,18.98595 z" />
    <path id="C_72" fill-opacity="0" d="m 356.25504,190.61729 c -0.12331,-7.90549 -3.75453,-32.54033 4.60334,-33.30093 4.64166,-1.59933 20.17955,-1.18024 23.86015,10.41504 -0.4527,9.18176 -4.4384,16.14894 -7.579,22.97879 z" />
    <path id="C_71" fill-opacity="0" d="m 332.24105,190.66373 c -2.98098,-14.01805 -7.70399,-31.29091 0.82819,-32.7946 6.99362,-0.40591 14.75711,1.59663 20.78831,1.67756 5.12571,2.53879 -0.5153,23.64272 -1.44529,31.1635 z" />
    <path id="C_81" fill-opacity="0" d="m 314.86469,190.57084 c 4.74666,-27.23819 9.29864,-30.09787 -0.45656,-32.74817 -6.99362,-1.08531 -14.43193,1.07677 -20.46313,1.16659 -5.12571,2.53876 -0.64602,23.78207 0.28395,31.30285 z" />
    <path id="C_82" fill-opacity="0" d="m 290.80708,190.66373 c 0.1233,-7.90548 4.0797,-32.63324 -4.27815,-33.39383 -4.64167,-1.59933 -22.24137,-1.65368 -23.95296,10.92604 0.45266,9.18174 3.88088,15.6844 7.02143,22.51425 z" />
    <path id="C_83" fill-opacity="0" d="m 260.85859,190.61729 c 2.77841,-16.66492 2.51182,-35.75644 -10.3062,-33.57965 -11.84797,3.52175 -23.65518,9.63231 -21.99006,15.1976 -0.75822,6.71225 1.00217,12.03846 3.68632,18.25896 z" />
    <path id="C_84" fill-opacity="0" d="m 221.90304,195.93239 c 1.9854,-7.34334 5.97936,-14.12343 4.07313,-25.3584 -11.68085,-15.44816 -20.48886,-5.29723 -24.92575,-3.9736 -3.08627,-0.5227 -7.32631,-1.54268 -11.10718,-3.45464 -3.98553,1.58055 -7.87812,3.51923 -11.86365,5.4255 -5.78551,5.59117 -1.35235,21.3456 0.54811,27.36114 z" />
    <path id="C_85" fill-opacity="0" d="m 170.99514,195.83949 c 8.10587,-17.64303 4.59605,-29.03737 -3.54756,-31.92793 -7.47257,-1.86885 -11.85452,0.61796 -16.7457,2.45987 -6.24106,-2.04058 -12.48211,-3.39777 -18.72317,-0.29659 -6.37818,1.27902 -8.11885,9.23931 -6.76662,21.18578 1.07302,4.77271 1.5886,5.91778 2.66163,8.67177 z" />
    <path id="C_52" fill-opacity="0" d="m 246.90027,88.597935 c -6.44199,18.738315 -4.95698,24.642315 -3.38812,29.518715 4.54535,5.88708 10.74181,4.25861 16.19811,5.07602 3.68212,0.005 7.73548,0.13537 11.41755,-0.0898 6.10914,-5.29155 4.5946,-11.97279 4.27004,-18.41744 -0.4808,-6.267401 -1.07829,-10.897855 -2.25505,-16.267143 z" />
    <path id="C_51" fill-opacity="0" d="m 279.66238,88.619222 c -5.50562,14.167228 -3.00395,15.140838 -3.14758,19.516618 -0.38293,7.86365 2.73701,13.28771 7.80423,14.2148 8.04184,3.1323 17.11873,2.13095 26.10691,1.95105 7.24403,-3.53085 8.59441,-10.59771 9.56942,-17.74528 -0.46517,-6.40994 -1.12337,-12.764368 -2.08241,-18.680448 z" />
    <path id="C_61" fill-opacity="0" d="m 365.51935,88.340502 c 5.63017,14.167228 4.33007,16.348638 4.47696,20.724408 0.39164,7.86365 -3.654,13.47354 -8.83588,14.40062 -8.22382,3.1323 -17.50613,2.13095 -26.69768,1.95105 -7.40804,-3.53085 -8.31386,-10.59771 -9.311,-17.74529 0.47574,-6.40992 1.16037,-13.135978 2.14111,-19.052068 z" />
    <path id="C_62" fill-opacity="0" d="m 396.98713,88.061792 c 7.5704,18.736258 5.9515,26.988618 3.8092,32.358398 -4.5493,6.08802 -10.426,3.98588 -15.8871,4.83117 -3.6853,0.005 -7.7423,0.13999 -11.4276,-0.0929 -6.1145,-5.47212 -4.59863,-12.38136 -4.27377,-19.04596 0.48121,-6.481308 1.33074,-12.498178 2.50853,-18.050698 z" />
    <path id="R_55" fill-opacity="0" d="m 113.1828,88.266389 c 0.86361,-3.027498 1.27495,-6.293784 1.77262,-12.837421 -3.19161,-6.621525 -1.22616,-16.625526 -0.48696,-25.536045 3.98396,-23.388736 6.98478,-17.389457 9.06187,-19.35184 2.50427,-0.118677 3.13575,2.967484 4.94138,10.4038 0.78436,-15.738029 3.73229,-17.347761 6.47309,-18.01394 1.11559,0.0023 8.99771,12.878133 14.42914,33.861067 1.12676,10.440292 1.39626,23.248931 2.20359,31.526382 z" />
    <path id="R_54" fill-opacity="0" d="m 161.55128,88.165332 c 0.62141,-7.10064 0.29702,-15.617407 -0.37658,-29.545262 -0.49075,-10.147476 1.23277,-20.79027 5.9649,-26.8863 1.42894,-0.105253 3.16266,-0.0185 5.84588,9.822366 -1.54484,-12.560046 -0.41237,-16.841918 2.04785,-17.802277 7.88276,-0.415438 6.35829,13.772491 14.0318,6.044855 11.77113,1.499298 7.82625,38.920071 9.03879,58.984208 z" />
    <path id="R_53" fill-opacity="0" d="m 208.41814,88.251234 c 8.63015,-33.411211 16.37712,-76.423825 26.84464,-78.179967 5.141,-1.2209493 2.43498,23.286126 3.62913,43.288814 0.9059,15.173758 -0.90473,31.001929 0.1704,35.144101 z" />
    <path id="R_52" fill-opacity="0" d="m 246.54146,88.411292 c 5.05167,-24.611771 -0.85431,-77.358717 8.86433,-72.597381 3.07499,-2.175523 19.30427,45.467393 18.58548,72.393857 z" />
    <path id="R_51" fill-opacity="0" d="m 278.16963,88.318392 c 4.2551,-13.961663 5.6373,-40.462581 9.48329,-58.26623 0.97679,-13.744964 3.5065,-18.40436 6.4805,-16.866633 2.47423,-2.228883 5.86047,1.268861 11.37668,16.728026 1.70769,4.785756 4.57106,6.774033 7.99194,22.315546 3.23577,14.70048 2.42479,24.39186 4.05651,35.786683 z" />
    <path id="R_65" fill-opacity="0" d="m 530.63893,88.21513 c -1.1948,-20.498496 3.8348,-22.919038 -0.762,-38.218812 -7.1037,-21.216253 -5.534,-15.40268 -7.5155,-17.351872 -2.4501,-0.253298 -3.8707,0.918091 -4.9929,9.63905 -1.6266,-16.21802 -4.1043,-17.462326 -6.4222,-17.926107 -2.9916,2.085845 -2.578,1.690447 -8.6183,17.241729 -3.9849,10.259569 -6.4974,18.815564 -6.1402,30.143771 0.1606,5.089724 -0.4969,10.92814 -0.6621,16.575503 z" />
    <path id="R_64" fill-opacity="0" d="m 483.70433,88.225492 c -0.5955,-7.126951 0.3193,-15.675276 0.965,-29.654741 0.4704,-10.185076 -1.6847,-19.456332 -6.2207,-25.57495 -1.0156,0.05193 -2.1055,-0.590699 -5.5184,8.912725 1.4808,-12.606609 -0.01,-15.984876 -2.3648,-16.948805 -7.1966,0.980865 -5.0209,14.013682 -12.4822,5.844415 -10.9885,1.515973 -8.2065,36.14242 -9.2293,57.421356 z" />
    <path id="R_63" fill-opacity="0" d="m 435.37753,88.216685 c -8.8446,-37.028176 -16.2012,-76.5617 -25.8164,-78.126349 -6.0905,4.639667 -3.2319,57.724316 -3.5634,78.228056 z" />
    <path id="R_62" fill-opacity="0" d="m 396.93683,88.225492 c -3.638,-24.682037 1.5865,-74.411435 -7.1608,-72.048978 -3.4869,-3.717647 -18.61395,44.927284 -17.92819,72.048978 z" />
    <path id="R_61" fill-opacity="0" d="m 365.51614,88.225492 c -4.23649,-13.986954 -5.12624,-40.434836 -8.95547,-58.270736 -0.97252,-10.599588 -4.25262,-16.874618 -7.21369,-16.182655 -1.64016,-1.548756 -4.55978,1.78773 -10.50147,16.90121 -1.85964,4.730168 -4.66512,5.423643 -8.07104,20.99333 -3.22162,14.727087 -2.6559,25.143376 -4.28052,36.558851 z" />
    <path id="R_75" fill-opacity="0" d="m 474.46503,193.40246 1.8056,19.68063 c 5.6607,28.8389 9.966,26.93892 14.65,33.62703 3.1979,0.9 5.9603,1.06807 6.044,-3.26338 1.1759,-14.32481 -2.6748,-28.93717 -0.9853,-36.96135 0.5062,2.46268 1.1861,-1.7312 1.4042,7.52398 0.2955,12.53791 3.6495,24.28178 6.3477,30.43058 2.0555,1.94725 4.1175,3.86619 7.8835,-1.20603 3.8615,-5.28733 1.7992,-34.14539 5.4527,-49.73114 z" />
    <path id="R_74" fill-opacity="0" d="m 466.25773,193.35601 c -1.8198,6.20903 -0.3554,10.36367 0.8106,14.81905 3.7422,9.60757 7.6714,19.11412 9.3452,34.18802 2.3669,15.1222 -7.23814,12.18294 -11.08174,7.25423 -7.8962,-15.0155 -14.49996,-30.48051 -21.34936,-41.80709 -2.0108,1.17714 -2.7356,9.86411 2.4965,39.86484 1.5706,10.29373 -10.82063,6.80637 -11.84583,3.43623 -7.534,-8.94933 -12.48877,-24.92016 -9.21797,-51.18766 l -2.1858,-6.4203 z" />
    <path id="R_73" fill-opacity="0" d="m 385.98783,190.72584 c 3.54093,47.73297 7.65843,93.0438 14.5393,87.56409 5.9068,0.99025 6.8612,-21.55698 9.5914,-35.66398 0.2225,-17.59311 0.5021,-35.98182 2.3584,-52.19448 z" />
    <path id="R_72" fill-opacity="0" d="m 356.34793,190.80879 c 0.48164,30.77202 -3.69257,70.10195 8.16283,69.87223 6.37124,0.15364 3.44244,2.08816 9.35997,-56.46855 1.5204,-4.87284 2.3425,-10.0355 3.5316,-13.50228 z" />
    <path id="R_71" fill-opacity="0" d="m 352.40894,190.71355 -3.15146,42.42212 c -2.41067,25.35074 -3.35613,26.90731 -5.34844,26.13838 -9.95539,7.6819 -10.20684,-58.75911 -11.6056,-68.61032 z" />
    <path id="R_85" fill-opacity="0" d="m 169.90755,196.03273 -0.72465,17.93922 c -5.53949,27.68336 -10.35017,29.46471 -15.54085,34.9754 -3.198,0.90002 -7.29216,1.08461 -7.37585,-3.24688 -0.0916,-15.90634 2.00744,-14.34014 0.22852,-22.13968 -0.002,5.64452 -2.27854,9.34906 -5.53647,22.69198 -2.05531,1.94727 -7.33992,4.21897 -9.16574,-0.58875 -3.86154,-5.28739 -2.5047,-33.79299 -4.3945,-49.73163 z" />
    <path id="R_84" fill-opacity="0" d="m 178.64523,195.74659 c 1.81988,6.28379 -0.63154,9.99838 -1.79763,14.5074 -3.74214,9.72323 -9.97094,25.91117 -9.58882,35.196 -2.36705,15.3042 7.94644,11.3254 11.78996,6.33735 7.89621,-15.19627 13.48509,-28.29977 20.33445,-39.7627 2.06587,1.44354 3.32101,7.87439 -2.12715,38.25222 -1.57065,10.41764 11.62183,5.81284 12.64697,2.40217 7.53407,-9.05708 13.13449,-22.95655 9.86363,-49.54026 l 2.09292,-7.09398 z" />
    <path id="R_83" fill-opacity="0" d="m 260.84469,190.66373 c -3.94947,47.6726 -10.41272,90.3885 -15.44471,87.8904 -6.31499,0.99338 -7.33538,-21.62519 -10.25435,-35.77684 -0.23784,-17.64877 -0.73545,-35.6035 -2.72007,-51.86746 z" />
    <path id="R_82" fill-opacity="0" d="m 290.89661,190.75665 c -0.48164,31.21282 0.34598,68.23877 -8.8271,69.94917 -6.37123,0.15584 -2.91753,2.89207 -8.83504,-56.50345 -1.5204,-4.94264 -2.38898,-9.87928 -3.57807,-13.39572 z" />
    <path id="R_81" fill-opacity="0" d="m 295.12461,190.61729 c -1.46149,7.32868 2.49082,74.88171 6.8323,68.26216 7.36552,3.8313 6.26238,-10.44635 8.51797,-33.69524 0.90321,-9.30944 2.94287,-20.89636 4.43006,-34.56692 z" />
    <path id="C_61-Z_14" fill-opacity="0" d="m 369.8759,108.33488 -11.75946,0.0657 c -5.34887,8.36088 -10.60455,16.95129 -9.65722,17.07146 9.44326,1.19773 23.1254,-1.4192 21.41668,-17.13714 z" />
    <path id="C_61-Z_17" fill-opacity="0" d="m 357.7437,108.40057 0.72266,-12.285008 9.32873,0 z" />
    <path id="C_61-Z_11" fill-opacity="0" d="m 347.47736,125.1894 -8.8243,-16.99254 -12.91138,-0.0657 c 0.77368,16.46048 8.51437,19.20348 21.73568,17.05822 z" />
    <path id="C_61-Z_4" fill-opacity="0" d="m 339.01923,108.40057 -12.86768,0 c -0.13416,-4.3866 0.81252,-8.23282 1.34719,-12.285008 z" />
    <path id="C_61-Z_13" fill-opacity="0" d="m 339.01923,108.40057 8.91443,17.01179 9.75991,-17.01179 z" />
    <path id="C_61-Z_6" fill-opacity="0" d="m 358.25271,108.40057 11.5975,-0.13138 c 0.34203,-4.59451 -0.67703,-8.499738 -1.60996,-12.153628 z" />
    <path id="C_61-Z_16" fill-opacity="0" d="m 339.13049,108.40057 -0.72265,-12.285008 -10.90542,0 z" />
    <path id="C_61-Z_1" fill-opacity="0" d="m 327.43672,96.115562 1.3139,-7.62066 9.13165,-0.0657 0.45986,7.68633 z" />
    <path id="C_61-Z_3" fill-opacity="0" d="m 367.64226,96.049872 -2.43072,-7.42359 -6.30677,-0.13138 -0.52555,7.62066 z" />
    <path id="C_61-Z_5" fill-opacity="0" d="m 338.42051,96.159742 0.57859,9.087468 c 0.10573,2.02207 0.65858,4.21959 3.02197,3.81032 l 12.67921,0 c 2.09558,-0.0795 3.22549,-1.36615 3.21908,-4.07311 l 0.47447,-8.917568 z" />
    <path id="C_61-Z_2" fill-opacity="0" d="m 337.8579,88.574652 21.04347,-0.0929 -0.51101,7.5255 -19.97506,0.0929 z" />
    <path id="C_61-Z_20" fill-opacity="0" d="m 342.67804,88.429212 c 0.18127,-12.91775 0.98658,-25.12417 1.57296,-39.02472 2.07885,-4.64435 5.31774,-4.70861 7.92437,0.9647 2.31906,12.56603 2.37818,24.18875 2.45921,38.06002 z" />
    <path id="C_61-Z_21" fill-opacity="0" d="m 1378.1512,-0.92526352 a 27.753941,12.551146 0 1 1 -55.5079,0 27.753941,12.551146 0 1 1 55.5079,0 z" transform="matrix(0.20204424,0,0,0.33182188,77.21319,9.9473021)" />
    <path id="C_61-Z_24" fill-opacity="0" d="m 365.34761,87.368732 c 0.96351,0.49609 1.46253,0.92907 2.42604,0.92907 2.00808,0.0387 2.15291,-1.35582 2.62782,-2.49641 -0.69197,-3.95923 -2.62115,-8.19341 -7.75206,-13.13907 -0.0683,5.19246 0.31272,10.25011 2.6982,14.70641 z" />
    <path id="C_61-Z_23" fill-opacity="0" d="m 326.53566,88.297802 c -0.96351,0.49609 -0.99798,0.27873 -1.9615,0.27873 -2.00807,0.0387 -1.40966,-1.91326 -1.88456,-3.05387 0.69195,-3.95923 0.80942,-7.72886 5.94032,-12.67453 0.0683,5.19246 0.29122,10.99337 -2.09426,15.44967 z" />
    <path id="C_61-Z_46" fill-opacity="0" d="m 350.95565,13.621869 -1.83947,30.265903" />
    <path id="C_61-Z_47" fill-opacity="0" d="m 349.05048,43.690672 -0.52556,21.1539" />
    <path id="C_61-Z_48" fill-opacity="0" d="m 348.52492,64.647502 0,23.58461" />
    <path id="C_62-Z_20" fill-opacity="0" d="m 379.93383,88.429212 c 1.0405,-11.76249 1.6986,-21.84664 3.0595,-36.70205 2.0788,-4.64435 5.4106,-7.12418 8.0173,-1.45089 2.4703,16.78049 0.01,27.41075 0.8798,38.15294 z" />
    <path id="C_62-Z_21" fill-opacity="0" transform="matrix(0.17475031,0,0,0.25131858,155.41921,13.663582)" d="m 1378.1512,-0.92526352 a 27.753941,12.551146 0 1 1 -55.5079,0 27.753941,12.551146 0 1 1 55.5079,0 z" />
    <path id="C_62-Z_24" fill-opacity="0" d="m 397.86513,88.204912 c 0.9636,0.49607 1.4625,0.92907 2.4262,0.92907 2.0079,0.0387 2.1528,-1.35583 2.6277,-2.49642 -0.692,-3.95924 -2.6211,-8.1934 -7.752,-13.13907 -0.067,5.19246 0.3126,10.25009 2.6981,14.70642 z" />
    <path id="C_62-Z_23" fill-opacity="0" d="m 372.20204,88.204912 c -0.96351,0.49607 -0.99794,0.27871 -1.9615,0.27871 -2.00808,0.0387 -1.40962,-1.91325 -1.88456,-3.05386 0.69201,-3.95924 0.80947,-7.72888 5.94035,-12.67453 0.068,5.19245 0.2912,10.99335 -2.09429,15.44968 z" />
    <path id="C_62-Z_46" fill-opacity="0" d="m 391.11533,18.130516 -4.0238,30.259576" />
    <path id="C_62-Z_47" fill-opacity="0" d="m 387.32833,45.363012 -0.5256,21.15389" />
    <path id="C_62-Z_48" fill-opacity="0" d="m 386.89553,66.505632 0,23.58463" />
    <path id="C_62-Z_14" fill-opacity="0" d="m 401.74263,108.43188 -9.9122,-0.0313 c -3.9169,7.95789 -6.371,16.50063 -5.6782,16.62116 7.1493,1.24406 18.6061,-0.84527 15.5904,-16.58986 z" />
    <path id="C_62-Z_11" fill-opacity="0" d="m 385.49253,124.78754 -6.8412,-16.59068 -9.71629,0 c -0.0962,21.04166 5.84159,18.13695 16.55749,16.59068 z" />
    <path id="C_62-Z_4" fill-opacity="0" d="m 378.16783,108.40057 -8.76567,0 c -0.49198,-3.12998 0.57634,-9.393648 1.14027,-12.285008 z" />
    <path id="C_62-Z_13" fill-opacity="0" d="m 378.21423,108.40057 7.8199,16.75052 5.742,-16.75052 z" />
    <path id="C_62-Z_6" fill-opacity="0" d="m 391.89173,108.40057 9.907,0 c 0.2158,-3.19268 -1.5594,-9.673128 -2.4787,-12.285008 z" />
    <path id="C_62-Z_16" fill-opacity="0" d="m 378.24283,108.40057 -1.184,-12.285008 -6.42113,0 z" />
    <path id="C_62-Z_1" fill-opacity="0" d="m 370.59351,96.115562 1.62882,-7.68635 4.5288,0 0.4029,7.68635 z" />
    <path id="C_62-Z_3" fill-opacity="0" d="m 399.31783,96.115562 -2.3817,-7.43233 -3.3216,-0.25402 -0.9117,7.68635 z" />
    <path id="C_62-Z_5" fill-opacity="0" d="m 377.06743,96.115562 0.9939,10.419758 c 0.071,1.44281 1.9304,2.1573 3.5233,1.86525 l 8.5457,0.0639 c 1.4125,-0.0568 2.174,-0.9748 2.1698,-2.9063 l 0.5055,-9.442538 z" />
    <path id="C_62-Z_2" fill-opacity="0" d="m 376.73473,88.429212 16.8775,0 -0.716,7.68635 -15.6,0 z" />
    <path id="C_62-Z_17" fill-opacity="0" d="m 391.80993,108.40057 0.9981,-12.285008 6.4269,0 z" />
    <path id="C_51-Z_14" fill-opacity="0" d="m 276.29888,108.22444 11.75947,0.0657 c 5.34893,8.36087 10.60843,16.36759 9.65722,16.28308 -7.57278,-0.67269 -22.75503,-1.00117 -21.41669,-16.34877 z" />
    <path id="C_51-Z_6" fill-opacity="0" d="m 287.87204,108.40057 -0.72265,-12.285008 -9.32874,0 z" />
    <path id="C_51-Z_11" fill-opacity="0" d="m 298.45919,124.60477 8.43013,-16.2042 12.91133,-0.0657 c -3.59395,18.96333 -10.46427,15.485 -21.34146,16.26989 z" />
    <path id="C_51-Z_4" fill-opacity="0" d="m 306.99075,108.26919 12.86767,0 c 0.13412,-4.38661 -0.81251,-8.23282 -1.34718,-12.285018 z" />
    <path id="C_51-Z_13" fill-opacity="0" d="m 306.99075,108.26919 -8.66831,15.65782 -10.00603,-15.65782 z" />
    <path id="C_51-Z_17" fill-opacity="0" d="m 287.88865,108.40057 -11.59749,-0.13138 c -0.34204,-4.59451 0.67699,-8.499738 1.60996,-12.153628 z" />
    <path id="C_51-Z_16" fill-opacity="0" d="m 306.68234,108.40057 0.72267,-12.285008 10.90542,0 z" />
    <path id="C_51-Z_1" fill-opacity="0" d="m 318.44182,96.115562 -1.3139,-7.62066 -9.13166,-0.0657 -0.45986,7.68633 z" />
    <path id="C_51-Z_3" fill-opacity="0" d="m 277.9078,96.115562 2.43072,-7.42358 6.30677,-0.13139 0.52554,7.62066 z" />
    <path id="C_51-Z_5" fill-opacity="0" d="m 307.26099,96.115562 -0.57865,9.087468 c -0.10573,2.02207 -0.65858,4.21958 -3.02197,3.81031 l -12.67921,0 c -2.09552,-0.0795 -3.22542,-1.36614 -3.21907,-4.0731 l -0.47442,-8.917598 z" />
    <path id="C_51-Z_2" fill-opacity="0" d="m 307.82361,88.682982 -21.04348,-0.0929 0.51095,7.5255 19.97507,0.0929 z" />
    <path id="C_51-Z_20" fill-opacity="0" d="m 303.85745,88.297802 c -0.18127,-12.91774 -0.98652,-25.12416 -1.57296,-39.0247 -2.07881,-4.64437 -5.31768,-4.7086 -7.92431,0.96469 -2.31911,12.56605 -2.37819,24.18876 -2.45928,38.06001 z" />
    <path id="C_51-Z_21" fill-opacity="0" transform="matrix(-0.18329742,0,0,0.30162378,540.59903,10.587042)" d="m 1378.1512,-0.92526352 a 27.753941,12.551146 0 1 1 -55.5079,0 27.753941,12.551146 0 1 1 55.5079,0 z" />
    <path id="C_51-Z_24" fill-opacity="0" d="m 279.18789,86.711802 c -0.96351,0.49607 -1.46248,0.92906 -2.42605,0.92906 -2.00808,0.0387 -2.15287,-1.35582 -2.62782,-2.49642 0.692,-3.95925 2.62113,-8.19341 7.75205,-13.13907 0.0683,5.19246 -0.31266,10.25009 -2.69818,14.70643 z" />
    <path id="C_51-Z_23" fill-opacity="0" d="m 317.99987,87.640862 c 0.96351,0.49608 0.99795,0.27872 1.96151,0.27872 2.00806,0.0387 1.40961,-1.91327 1.88456,-3.05388 -0.69201,-3.95922 -0.80946,-7.72883 -5.94039,-12.67453 -0.0683,5.19248 -0.29122,10.99339 2.09432,15.44969 z" />
    <path id="C_51-Z_46" fill-opacity="0" d="m 295.57985,15.179268 1.83946,28.051544" />
    <path id="C_51-Z_47" fill-opacity="0" d="m 297.48501,43.033732 0.52556,21.15389" />
    <path id="C_51-Z_48" fill-opacity="0" d="m 298.01057,63.990542 0,23.58462" />
    <path id="C_52-Z_20" fill-opacity="0" d="m 266.4365,88.429212 c -1.04051,-11.76249 -1.69857,-21.84664 -3.05951,-36.70205 -2.07881,-4.64435 -5.41062,-7.12418 -8.01725,-1.45089 -2.4703,16.78049 0,27.41075 -0.87984,38.15294 z" />
    <path id="C_52-Z_21" fill-opacity="0" d="m 1378.1512,-0.92526352 a 27.753941,12.551146 0 1 1 -55.5079,0 27.753941,12.551146 0 1 1 55.5079,0 z" transform="matrix(-0.17923855,0,0,0.26124329,496.88053,12.490262)" />
    <path id="C_52-Z_24" fill-opacity="0" d="m 246.50514,88.204912 c -0.96351,0.49607 -1.46248,0.92907 -2.42604,0.92907 -2.00808,0.0387 -2.15288,-1.35583 -2.62783,-2.49642 0.69201,-3.95924 2.62114,-8.1934 7.75206,-13.13907 0.0683,5.19246 -0.31267,10.25009 -2.69819,14.70642 z" />
    <path id="C_52-Z_23" fill-opacity="0" d="m 276.16826,88.204912 c 0.96351,0.49607 0.99799,0.27871 1.9615,0.27871 2.00807,0.0387 1.40966,-1.91325 1.88457,-3.05386 -0.69196,-3.95924 -0.80942,-7.72888 -5.94034,-12.67453 -0.0683,5.19245 -0.2912,10.99335 2.09427,15.44968 z" />
    <path id="C_52-Z_46" fill-opacity="0" d="m 255.25499,18.386615 4.02375,29.215127" />
    <path id="C_52-Z_47" fill-opacity="0" d="m 259.04204,45.363012 0.52555,21.15389" />
    <path id="C_52-Z_48" fill-opacity="0" d="m 259.47469,66.344882 0,21.64312" />
    <path id="C_52-Z_14" fill-opacity="0" d="m 242.87958,108.02071 10.9565,0.14485 c 3.91696,7.429 6.37533,15.60273 5.67833,15.51651 -8.3228,-1.02956 -19.71988,-1.09253 -16.63483,-15.66136 z" />
    <path id="C_52-Z_11" fill-opacity="0" d="m 259.98311,123.12432 6.65421,-14.75865 9.4508,0 c -0.38436,18.22793 -4.41632,14.39021 -16.10501,14.75865 z" />
    <path id="C_52-Z_4" fill-opacity="0" d="m 267.67699,108.40057 8.76564,0 c 0.49192,-3.12998 -0.57637,-9.393648 -1.14026,-12.285008 z" />
    <path id="C_52-Z_13" fill-opacity="0" d="m 267.63053,108.40057 -7.20458,14.24557 -6.35736,-14.24557 z" />
    <path id="C_52-Z_6" fill-opacity="0" d="m 254.08057,108.10365 -11.29966,0 c -0.21585,-3.1927 1.84413,-9.55005 2.76345,-12.16194 z" />
    <path id="C_52-Z_16" fill-opacity="0" d="m 267.60198,108.40057 1.18393,-12.285008 6.42112,0 z" />
    <path id="C_52-Z_1" fill-opacity="0" d="m 275.25123,96.115562 -1.62882,-7.68635 -4.52882,0 -0.40281,7.68635 z" />
    <path id="C_52-Z_3" fill-opacity="0" d="m 245.54232,95.992474 1.39683,-7.309242 5.29107,-0.25402 0.91175,7.68635 z" />
    <path id="C_52-Z_5" fill-opacity="0" d="m 268.77734,96.115562 -0.99393,10.419758 c -0.0712,1.44281 -1.93035,2.1573 -3.52327,1.86525 l -8.54575,0.0639 c -1.4124,-0.0568 -2.17394,-0.9748 -2.16968,-2.9063 l -0.50559,-9.442538 z" />
    <path id="C_52-Z_2" fill-opacity="0" d="m 269.11008,88.429212 -16.87755,0 0.71598,7.68635 15.60006,0 z" />
    <path id="C_52-Z_17" fill-opacity="0" d="m 254.03474,108.40057 -0.99804,-12.285008 -6.42685,0 z" />
    <path id="C_63-Z_20" fill-opacity="0" d="m 413.54303,88.225492 c 1.0404,-11.76249 -1.8491,-22.37221 -0.488,-37.22759 2.0787,-4.64437 5.2791,-6.59864 7.8857,-0.92536 2.4703,16.7805 6.9664,27.41076 7.8436,38.15295 z" />
    <path id="C_63-Z_21" fill-opacity="0" d="m 1378.1512,-0.92526352 a 27.753941,12.551146 0 1 1 -55.5079,0 27.753941,12.551146 0 1 1 55.5079,0 z" transform="matrix(0.21589342,0,0,0.28995491,120.19834,6.5244121)" />
    <path id="C_63-Z_24" fill-opacity="0" d="m 435.57643,87.296412 c 0.9636,0.49607 1.4626,0.92908 2.4262,0.92908 2.008,0.0387 2.1528,-1.35582 2.6277,-2.49645 -0.6919,-3.95923 -2.6211,-8.19338 -7.752,-13.13907 -0.069,5.19247 0.3127,10.25012 2.6981,14.70644 z" />
    <path id="C_63-Z_23" fill-opacity="0" d="m 406.07403,88.225492 c -0.9637,0.49606 -0.9981,0.27869 -1.9616,0.27869 -2.0081,0.0387 -1.4096,-1.91326 -1.8845,-3.05385 0.692,-3.95924 0.8093,-7.72886 5.9403,-12.67454 0.068,5.19246 0.2913,10.99338 -2.0942,15.4497 z" />
    <path id="C_63-Z_46" fill-opacity="0" d="m 411.05983,13.133864 6.2247,36.581348" />
    <path id="C_63-Z_47" fill-opacity="0" d="m 417.12713,49.578752 3.5475,19.31441" />
    <path id="C_63-Z_48" fill-opacity="0" d="m 420.76753,68.881902 1.0512,19.34359" />
    <path id="C_63-Z_4" fill-opacity="0" d="m 412.95943,108.19686 -9.8168,0 c -0.4919,-3.13 0.5764,-9.393658 1.1403,-12.285038 l 7.475,0 z" />
    <path id="C_63-Z_6" fill-opacity="0" d="m 428.65423,108.19686 12.272,0 c 0.216,-3.19271 -1.9534,-9.673148 -2.8726,-12.285038 l -8.1017,0 z" />
    <path id="C_63-Z_1" fill-opacity="0" d="m 404.20273,95.911822 2.5485,-7.68633 4.5288,0 0.4028,7.68633 z" />
    <path id="C_63-Z_3" fill-opacity="0" d="m 438.05093,95.911822 -3.0384,-7.68633 -5.0299,0 -0.2546,7.68633 z" />
    <path id="C_63-Z_5" fill-opacity="0" d="m 411.66193,95.911822 1.0597,10.485478 c 0.071,1.44281 2.6531,2.09159 4.2458,1.79956 l 9.6627,0 c 1.4123,-0.0567 2.1739,-0.91098 2.1695,-2.84249 l 1.0312,-9.442548 z" />
    <path id="C_63-Z_2" fill-opacity="0" d="m 411.13203,88.225492 19.1111,0 -0.4531,7.68633 -18.0964,0 z" />
    <path id="C_63-Z_14" fill-opacity="0" d="m 403.06943,108.19686 c 0.7209,7.94244 5.3414,15.24618 17.1878,17.10469 21.9187,-3.6294 21.3515,-10.63512 20.7183,-17.10469 z" />
    <path id="C_53-Z_20" fill-opacity="0" d="m 232.18632,88.225492 c -1.04052,-11.76249 1.84897,-22.37221 0.48803,-37.22759 -2.07881,-4.64437 -5.27922,-6.59864 -7.88585,-0.92536 -2.47032,16.7805 -6.96634,27.41076 -7.8435,38.15295 z" />
    <path id="C_53-Z_21" fill-opacity="0" transform="matrix(-0.19779461,0,0,0.26040198,502.14143,8.8912521)" d="m 1378.1512,-0.92526352 a 27.753941,12.551146 0 1 1 -55.5079,0 27.753941,12.551146 0 1 1 55.5079,0 z" />
    <path id="C_53-Z_24" fill-opacity="0" d="m 208.15276,87.296412 c -0.96352,0.49607 -1.46255,0.92908 -2.42605,0.92908 -2.00808,0.0387 -2.15291,-1.35582 -2.62782,-2.49645 0.69196,-3.95923 2.62114,-8.19338 7.75205,-13.13907 0.0683,5.19247 -0.31272,10.25012 -2.69818,14.70644 z" />
    <path id="C_53-Z_23" fill-opacity="0" d="m 241.6553,88.225492 c 0.9635,0.49606 0.99798,0.27869 1.96151,0.27869 2.00806,0.0387 1.40966,-1.91326 1.88455,-3.05385 -0.69195,-3.95924 -0.80943,-7.72886 -5.94033,-12.67454 -0.0683,5.19246 -0.29121,10.99338 2.09427,15.4497 z" />
    <path id="C_53-Z_46" fill-opacity="0" d="m 234.28896,12.531533 -5.81189,37.151342" />
    <path id="C_53-Z_47" fill-opacity="0" d="m 228.60219,49.578752 -3.54755,19.31441" />
    <path id="C_53-Z_48" fill-opacity="0" d="m 224.96172,68.881902 -1.05112,19.34359" />
    <path id="C_53-Z_4" fill-opacity="0" d="m 232.76985,108.19686 9.81677,0 c 0.49193,-3.13 -0.57639,-9.393658 -1.14025,-12.285038 l -7.29282,0 z" />
    <path id="C_53-Z_6" fill-opacity="0" d="m 217.07507,108.19686 -14.1869,-0.17407 c -0.21586,-3.19271 1.43129,-9.499078 2.3506,-12.110968 l 10.90164,0 z" />
    <path id="C_53-Z_1" fill-opacity="0" d="m 241.52661,95.911822 -2.54856,-7.68633 -4.52882,0 -0.40279,7.68633 z" />
    <path id="C_53-Z_3" fill-opacity="0" d="m 205.36762,95.911822 2.9412,-7.773367 7.35093,0.08704 0.34144,7.68633 z" />
    <path id="C_53-Z_5" fill-opacity="0" d="m 234.0673,95.911822 -1.05964,10.485478 c -0.0712,1.44281 -2.653,2.09159 -4.24592,1.79956 l -9.66258,0 c -1.41239,-0.0567 -2.17393,-0.91098 -2.16962,-2.84249 l -1.03115,-9.442548 z" />
    <path id="C_53-Z_2" fill-opacity="0" d="m 234.59711,88.225492 -19.11113,0 0.4532,7.68633 18.09644,0 z" />
    <path id="C_53-Z_14" fill-opacity="0" d="m 242.65983,108.19686 c -0.72081,7.94244 -5.34139,13.14726 -17.18784,15.00578 -21.9186,-4.14014 -23.00511,-9.58057 -22.37201,-15.17985 z" />
    <path id="C_81-Z_14" fill-opacity="0" d="m 292.26027,170.52503 7.85733,-0.1586 c 5.34891,-8.36087 5.21958,-11.39862 4.26861,-11.3112 -9.88671,0.90893 -14.37992,-1.65799 -12.12594,11.4698 z" />
    <path id="C_81-Z_17" fill-opacity="0" d="m 300.39588,169.97726 -1.04781,9.21909 -5.84472,0.0929 z" />
    <path id="C_81-Z_11" fill-opacity="0" d="m 305.01438,159.1166 4.6899,11.18584 8.96285,-0.16657 c 1.00535,-13.97489 -2.48608,-11.93239 -13.65275,-11.01927 z" />
    <path id="C_81-Z_4" fill-opacity="0" d="m 309.99155,170.29445 8.73328,-0.0929 c -0.30688,4.20561 -1.60138,6.59376 -1.90459,8.66163 z" />
    <path id="C_81-Z_13" fill-opacity="0" d="m 309.72604,170.30066 -4.9025,-11.29274 -4.52452,11.4321 z" />
    <path id="C_81-Z_6" fill-opacity="0" d="m 300.08727,170.48824 -7.83476,0.085 c 0.27159,4.59451 0.7617,5.24799 1.33124,8.90187 z" />
    <path id="C_81-Z_16" fill-opacity="0" d="m 309.82254,170.25597 0.81557,8.84748 6.26009,0 z" />
    <path id="C_81-Z_1" fill-opacity="0" d="m 316.65789,179.01053 -2.15006,11.70859 -2.72106,-0.12013 -1.1102,-11.49554 z" />
    <path id="C_81-Z_3" fill-opacity="0" d="m 293.49755,179.47507 1.87328,11.13986 2.68336,0.0385 1.45466,-11.42986 z" />
    <path id="C_81-Z_5" fill-opacity="0" d="m 310.65203,179.11729 -0.67688,-6.5776 c -0.0727,-1.4636 -0.73189,-2.86837 -2.35819,-2.57213 l -5.19424,0 c -1.44194,0.0575 -2.31237,0.89592 -2.30796,2.85524 l -0.79103,6.54755 z" />
    <path id="C_81-Z_2" fill-opacity="0" d="m 311.91102,190.6173 -13.88957,0.0929 1.34438,-11.5601 11.32972,-0.0929 z" />
    <path id="C_81-Z_20" fill-opacity="0" d="m 308.44409,190.99825 c -0.12729,12.91774 -0.69284,25.12416 -1.10467,39.02469 -1.45997,4.64437 -3.73461,4.70863 -5.5652,-0.96468 -1.62867,-12.56604 -1.67013,-24.18875 -1.72709,-38.06001 z" />
    <path id="C_81-Z_21" fill-opacity="0" d="m 1378.1512,-0.92526352 a 27.753941,12.551146 0 1 1 -55.5079,0 27.753941,12.551146 0 1 1 55.5079,0 z" transform="matrix(-0.14752369,0,0,-0.21205006,502.27603,261.30263)" />
    <path id="C_81-Z_24" fill-opacity="0" d="m 295.85849,190.4847 c -0.5026,-0.24222 -0.76286,-0.45364 -1.26544,-0.45364 -1.04735,-0.0189 -1.12292,0.66203 -1.37061,1.21899 0.3609,1.93325 1.36713,4.00077 4.04341,6.41572 0.0357,-2.53545 -0.16308,-5.00507 -1.40736,-7.18107 z" />
    <path id="C_81-Z_23" fill-opacity="0" d="m 314.66576,190.16255 c 0.59929,-0.28454 0.62074,-0.15987 1.22008,-0.15987 1.24906,-0.0221 0.87681,1.09734 1.17222,1.75153 -0.43043,2.27078 -0.50348,4.43284 -3.69502,7.26941 -0.0426,-2.97811 -0.18111,-6.30519 1.30272,-8.86107 z" />
    <path id="C_81-Z_46" fill-opacity="0" d="m 303.72607,258.1078 0.26278,-23.61923" />
    <path id="C_81-Z_47" fill-opacity="0" d="m 304.05455,234.94843 0.52555,-21.15391" />
    <path id="C_81-Z_48" fill-opacity="0" d="m 304.5801,214.25439 0,-23.58463" />
    <path id="C_83-Z_20" fill-opacity="0" d="m 252.88592,190.524 c -1.04045,11.76248 -0.75239,26.2743 -2.11335,41.12968 -2.0788,4.64436 -4.07143,7.249 -6.67806,1.57569 -2.4703,-16.78047 -1.48477,-31.87029 -2.36197,-42.61246 z" />
    <path id="C_83-Z_21" fill-opacity="0" d="m 1378.1512,-0.92526352 a 27.753941,12.551146 0 1 1 -55.5079,0 27.753941,12.551146 0 1 1 55.5079,0 z" transform="matrix(-0.15095712,0,0,-0.22818986,450.87333,276.21199)" />
    <path id="C_83-Z_46" fill-opacity="0" d="m 246.17127,272.92122 1.20785,-41.19267" />
    <path id="C_83-Z_47" fill-opacity="0" d="m 247.53658,231.67922 0.16875,-22.47327" />
    <path id="C_83-Z_48" fill-opacity="0" d="m 247.61242,209.58885 -0.12204,-18.97194" />
    <path id="C_83-Z_4" fill-opacity="0" d="m 251.70424,171.85332 9.81677,0 c 0.492,3.12999 0.44563,6.2348 -0.11825,9.12617 l -7.58886,0.11584 z" />
    <path id="C_83-Z_6" fill-opacity="0" d="m 240.93351,171.66751 -12.27209,0 c -0.87791,3.32511 -0.59836,6.84771 0.89638,9.34453 l 9.64324,0.0557 z" />
    <path id="C_83-Z_1" fill-opacity="0" d="m 261.29717,181.16532 -0.69037,9.35868 -5.27214,-0.0929 -1.51767,-9.26576 z" />
    <path id="C_83-Z_3" fill-opacity="0" d="m 229.71343,181.25822 3.35449,9.51432 5.32917,0.0302 1.09097,-9.5445 z" />
    <path id="C_83-Z_5" fill-opacity="0" d="m 253.74495,181.16532 -1.33835,-8.16279 c -0.0712,-1.44282 -1.90973,-1.90578 -3.50266,-1.61375 l -5.94628,-0.0929 c -1.41239,0.0568 -3.01011,1.0039 -3.00579,2.93541 l -0.65953,7.02695 z" />
    <path id="C_83-Z_2" fill-opacity="0" d="m 255.29672,190.524 -16.97424,0.0929 0.91773,-9.35035 14.56596,-0.0929 z" />
    <path id="C_83-Z_14" fill-opacity="0" d="m 261.50135,171.66751 c -1.19303,-7.65889 -0.70419,-13.87354 -9.56949,-14.50329 -15.74124,3.71203 -21.23343,7.75266 -23.22677,14.59619 z" />
    <path id="C_82-Z_14" fill-opacity="0" d="m 262.96126,169.89063 11.66655,0.21302 c 5.34892,-8.36087 6.05916,-12.645 5.1048,-12.6119 -8.21845,0.2851 -17.55123,3.37413 -16.77135,12.39888 z" />
    <path id="C_82-Z_17" fill-opacity="0" d="m 274.9061,169.71448 -1.04782,9.21908 -8.91071,0 z" />
    <path id="C_82-Z_11" fill-opacity="0" d="m 279.98913,157.55311 4.22537,12.48653 7.75504,-0.0736 c -1.26319,-14.18114 -5.6665,-12.80867 -11.98041,-12.41288 z" />
    <path id="C_82-Z_4" fill-opacity="0" d="m 284.50177,170.03168 7.52548,-0.0929 c -0.30687,4.20563 -0.3936,6.59378 -0.69679,8.66164 z" />
    <path id="C_82-Z_13" fill-opacity="0" d="m 284.23625,170.03786 -4.25216,-12.50051 -5.17485,12.6399 z" />
    <path id="C_82-Z_6" fill-opacity="0" d="m 274.41165,170.22546 -11.55104,-0.19378 c 0.27151,4.59454 0.73475,5.41182 2.07451,8.80898 z" />
    <path id="C_82-Z_16" fill-opacity="0" d="m 284.33274,169.9932 0.81556,8.84746 6.26009,0 z" />
    <path id="C_82-Z_1" fill-opacity="0" d="m 291.16812,178.74776 -0.84936,11.70858 -4.02178,-0.12014 -1.11019,-11.49554 z" />
    <path id="C_82-Z_3" fill-opacity="0" d="m 264.94181,178.93356 4.93922,11.5115 2.68337,-0.0544 1.45465,-11.42985 z" />
    <path id="C_82-Z_5" fill-opacity="0" d="m 285.16224,178.85451 -0.67687,-6.57759 c -0.0728,-1.4636 -0.7319,-2.86837 -2.35821,-2.57214 l -5.19423,0 c -1.44193,0.0576 -2.31238,0.89592 -2.30796,2.85525 l -0.79102,6.54754 z" />
    <path id="C_82-Z_2" fill-opacity="0" d="m 286.42123,190.35452 -13.88958,0.0929 1.3444,-11.56012 11.3297,-0.0929 z" />
    <path id="C_82-Z_20" fill-opacity="0" d="m 284.53098,190.73547 c -0.12729,12.91775 2.28017,24.93833 1.86838,38.83888 -1.45995,4.64437 -4.38496,6.84548 -6.21556,1.17218 -1.53943,-12.60173 -2.98241,-26.54397 -4.04978,-40.01106 z" />
    <path id="C_82-Z_21" fill-opacity="0" transform="matrix(-0.156213,0,0,-0.25220129,492.11173,264.70417)" d="m 1378.1512,-0.92526352 a 27.753941,12.551146 0 1 1 -55.5079,0 27.753941,12.551146 0 1 1 55.5079,0 z" />
    <path id="C_82-Z_24" fill-opacity="0" d="m 269.59598,190.8723 c -0.67898,-0.24224 -1.03064,-0.45368 -1.70962,-0.45368 -1.41502,-0.0189 -1.51708,0.66204 -1.85176,1.21899 0.48761,1.93328 1.84703,4.00078 5.46271,6.41572 0.0483,-2.53544 -0.22033,-5.00507 -1.90133,-7.18103 z" />
    <path id="C_82-Z_23" fill-opacity="0" d="m 291.07844,190.43556 c 0.54818,-0.27985 0.56777,-0.15724 1.11594,-0.15724 1.14236,-0.0219 0.80191,1.07931 1.0721,1.72277 -0.39365,2.23346 -0.4605,4.35999 -3.37943,7.14994 -0.0389,-2.92917 -0.16566,-6.20157 1.19139,-8.71547 z" />
    <path id="C_82-Z_46" fill-opacity="0" d="m 281.58095,260.5767 1.47058,-26.44382" />
    <path id="C_82-Z_47" fill-opacity="0" d="m 283.11723,234.31401 -1.42549,-20.78227" />
    <path id="C_82-Z_48" fill-opacity="0" d="m 281.87752,213.71289 -2.78721,-23.3059" />
    <path id="C_83-Z_24" fill-opacity="0" d="m 230.17071,190.42664 c -0.56072,-0.32241 -0.85115,-0.60385 -1.41193,-0.60385 -1.16864,-0.0251 -1.25293,0.88123 -1.52933,1.62258 0.40274,2.57334 1.52545,5.32541 4.51159,8.53991 0.04,-3.37489 -0.18201,-6.6622 -1.57033,-9.55864 z" />
    <path id="C_83-Z_23" fill-opacity="0" d="m 261.88836,190.01806 c 0.65237,-0.23671 0.67571,-0.13301 1.32809,-0.13301 1.35969,-0.0185 0.95448,0.91294 1.27602,1.45719 -0.4685,1.88918 -0.54805,3.6879 -4.02215,6.04778 -0.0463,-2.47765 -0.19712,-5.2456 1.41804,-7.37196 z" />
    <path id="C_71-Z_14" fill-opacity="0" d="m 355.08099,170.52503 -7.85731,-0.1586 c -5.34892,-8.36087 -5.21957,-11.39862 -4.26863,-11.3112 9.88674,0.90893 14.37992,-1.65799 12.12594,11.4698 z" />
    <path id="C_71-Z_17" fill-opacity="0" d="m 346.94539,169.97726 1.04783,9.21909 5.84472,0.0929 z" />
    <path id="C_71-Z_11" fill-opacity="0" d="m 342.3269,159.1166 -4.6899,11.18584 -8.96284,-0.16657 c -1.00535,-13.97489 2.48605,-11.93239 13.65274,-11.01927 z" />
    <path id="C_71-Z_4" fill-opacity="0" d="m 337.34972,170.29445 -8.73328,-0.0929 c 0.30688,4.20561 1.6014,6.59376 1.9046,8.66163 z" />
    <path id="C_71-Z_13" fill-opacity="0" d="m 337.61523,170.30066 4.90251,-11.29274 4.52451,11.4321 z" />
    <path id="C_71-Z_6" fill-opacity="0" d="m 347.254,170.48824 7.83478,0.085 c -0.27162,4.59451 -0.7617,5.24799 -1.33126,8.90187 z" />
    <path id="C_71-Z_16" fill-opacity="0" d="m 337.51875,170.25597 -0.81557,8.84748 -6.26009,0 z" />
    <path id="C_71-Z_1" fill-opacity="0" d="m 330.68338,179.01053 2.15008,11.70859 2.72105,-0.12013 1.1102,-11.49554 z" />
    <path id="C_71-Z_3" fill-opacity="0" d="m 353.84371,179.47507 -1.87325,11.13986 -2.68336,0.0385 -1.45467,-11.42986 z" />
    <path id="C_71-Z_5" fill-opacity="0" d="m 336.68924,179.11729 0.67689,-6.5776 c 0.0727,-1.4636 0.73188,-2.86837 2.3582,-2.57213 l 5.19423,0 c 1.44194,0.0575 2.31238,0.89592 2.30796,2.85524 l 0.79101,6.54755 z" />
    <path id="C_71-Z_2" fill-opacity="0" d="m 335.43026,190.6173 13.88958,0.0929 -1.3444,-11.5601 -11.3297,-0.0929 z" />
    <path id="C_71-Z_20" fill-opacity="0" d="m 338.89719,190.99825 c 0.12729,12.91774 0.69285,25.12416 1.10468,39.02469 1.45996,4.64437 3.7346,4.70863 5.56517,-0.96468 1.62867,-12.56604 1.67015,-24.18875 1.72712,-38.06001 z" />
    <path id="C_71-Z_21" fill-opacity="0" transform="matrix(0.16624481,0,0,-0.20110536,117.41932,263.18135)" d="m 1378.1512,-0.92526352 a 27.753941,12.551146 0 1 1 -55.5079,0 27.753941,12.551146 0 1 1 55.5079,0 z" />
    <path id="C_71-Z_24" fill-opacity="0" d="m 351.48278,190.4847 c 0.5026,-0.24222 0.76285,-0.45364 1.26546,-0.45364 1.04734,-0.0189 1.12291,0.66203 1.37061,1.21899 -0.36091,1.93325 -1.36715,4.00077 -4.04341,6.41572 -0.0357,-2.53545 0.16308,-5.00507 1.40734,-7.18107 z" />
    <path id="C_71-Z_23" fill-opacity="0" d="m 330.67552,190.16255 c -0.59929,-0.28454 -0.62074,-0.15987 -1.2201,-0.15987 -1.24904,-0.0221 -0.87679,1.09734 -1.1722,1.75153 0.43044,2.27078 0.50348,4.43284 3.69502,7.26941 0.0426,-2.97811 0.18111,-6.30519 -1.30272,-8.86107 z" />
    <path id="C_71-Z_46" fill-opacity="0" d="m 343.23593,258.24851 0.12654,-23.74992" />
    <path id="C_71-Z_47" fill-opacity="0" d="m 343.28674,234.94843 -0.52557,-21.15391" />
    <path id="C_71-Z_48" fill-opacity="0" d="m 342.76117,214.25439 0,-23.58463" />
    <path id="C_73-Z_20" fill-opacity="0" d="m 394.45533,190.524 c 1.0405,11.76248 0.7525,26.2743 2.1133,41.12968 2.0789,4.64436 4.0715,7.249 6.6782,1.57569 2.4703,-16.78047 1.4847,-31.87029 2.3619,-42.61246 z" />
    <path id="C_73-Z_21" fill-opacity="0" transform="matrix(0.1692059,0,0,-0.24760593,171.29927,275.93125)" d="m 1378.1512,-0.92526352 a 27.753941,12.551146 0 1 1 -55.5079,0 27.753941,12.551146 0 1 1 55.5079,0 z" />
    <path id="C_73-Z_46" fill-opacity="0" d="m 400.55459,277.72167 -0.59236,-45.99312" />
    <path id="C_73-Z_47" fill-opacity="0" d="m 399.80463,231.67922 -0.1686,-22.47327" />
    <path id="C_73-Z_48" fill-opacity="0" d="m 399.72893,209.58885 0.122,-18.97194" />
    <path id="C_73-Z_4" fill-opacity="0" d="m 395.11153,171.85332 -9.8168,0 c -0.492,3.12999 -0.4457,6.2348 0.1182,9.12617 l 7.5889,0.11584 z" />
    <path id="C_73-Z_6" fill-opacity="0" d="m 405.88213,171.66751 12.2721,0 c 0.8779,3.32511 -0.2631,7.09389 -1.7579,9.59071 l -8.7817,-0.19043 z" />
    <path id="C_73-Z_1" fill-opacity="0" d="m 385.51853,181.16532 0.6904,9.35868 5.2721,-0.0929 1.5177,-9.26576 z" />
    <path id="C_73-Z_3" fill-opacity="0" d="m 416.48683,181.25822 -4.3392,9.63741 -3.7291,-0.0929 -1.0909,-9.5445 z" />
    <path id="C_73-Z_5" fill-opacity="0" d="m 393.07083,181.16532 1.3384,-8.16279 c 0.07,-1.44282 1.9096,-1.90578 3.5025,-1.61375 l 5.9463,-0.0929 c 1.4124,0.0568 3.0102,1.0039 3.0059,2.93541 l 0.6595,7.02695 z" />
    <path id="C_73-Z_2" fill-opacity="0" d="m 391.51903,190.524 16.9741,0.0929 -0.9177,-9.35035 -14.5658,-0.0929 z" />
    <path id="C_73-Z_14" fill-opacity="0" d="m 385.31433,171.66751 c 1.193,-7.65889 0.7043,-13.22318 9.5696,-13.85296 19.0464,3.83454 23.6574,7.49075 23.2267,13.94586 z" />
    <path id="C_72-Z_14" fill-opacity="0" d="m 384.38003,169.89063 -11.66657,0.21302 c -5.34891,-8.36087 -6.05915,-12.645 -5.10478,-12.6119 8.21845,0.2851 17.55125,3.37413 16.77135,12.39888 z" />
    <path id="C_72-Z_17" fill-opacity="0" d="m 372.43518,169.71448 1.04785,9.21908 8.9107,0 z" />
    <path id="C_72-Z_11" fill-opacity="0" d="m 367.35215,157.55311 -4.22537,12.48653 -7.75504,-0.0736 c 1.26319,-14.18114 5.66651,-12.80867 11.98041,-12.41288 z" />
    <path id="C_72-Z_4" fill-opacity="0" d="m 362.83951,170.03168 -7.52547,-0.0929 c 0.30687,4.20563 0.39359,6.59378 0.69679,8.66164 z" />
    <path id="C_72-Z_13" fill-opacity="0" d="m 363.10503,170.03786 4.25216,-12.50051 5.17486,12.6399 z" />
    <path id="C_72-Z_6" fill-opacity="0" d="m 372.92963,170.22546 11.551,-0.19378 c -0.2714,4.59454 -0.7348,5.41182 -2.0744,8.80898 z" />
    <path id="C_72-Z_16" fill-opacity="0" d="m 363.00853,169.9932 -0.81557,8.84746 -6.26007,0 z" />
    <path id="C_72-Z_1" fill-opacity="0" d="m 356.17317,178.74776 0.84936,11.70858 4.02176,-0.12014 1.1102,-11.49554 z" />
    <path id="C_72-Z_3" fill-opacity="0" d="m 382.39943,178.93356 -4.9392,11.5115 -2.6834,-0.0544 -1.4546,-11.42985 z" />
    <path id="C_72-Z_5" fill-opacity="0" d="m 362.17904,178.85451 0.67687,-6.57759 c 0.0727,-1.4636 0.7319,-2.86837 2.35819,-2.57214 l 5.19425,0 c 1.44193,0.0576 2.31237,0.89592 2.30795,2.85525 l 0.79103,6.54754 z" />
    <path id="C_72-Z_2" fill-opacity="0" d="m 360.92005,190.35452 13.88958,0.0929 -1.3444,-11.56012 -11.32972,-0.0929 z" />
    <path id="C_72-Z_20" fill-opacity="0" d="m 362.81028,190.73547 c 0.1273,12.91775 -2.28014,24.93833 -1.86836,38.83888 1.45995,4.64437 4.38498,6.84548 6.21556,1.17218 1.53943,-12.60173 2.98241,-26.54397 4.04979,-40.01106 z" />
    <path id="C_72-Z_21" fill-opacity="0" d="m 1378.1512,-0.92526352 a 27.753941,12.551146 0 1 1 -55.5079,0 27.753941,12.551146 0 1 1 55.5079,0 z" transform="matrix(0.17041418,0,0,-0.23126181,134.34423,262.46077)" />
    <path id="C_72-Z_24" fill-opacity="0" d="m 377.74533,190.8723 c 0.679,-0.24224 1.0306,-0.45368 1.7096,-0.45368 1.415,-0.0189 1.5171,0.66204 1.8517,1.21899 -0.4875,1.93328 -1.847,4.00078 -5.4627,6.41572 -0.048,-2.53544 0.2204,-5.00507 1.9014,-7.18103 z" />
    <path id="C_72-Z_23" fill-opacity="0" d="m 356.26283,190.43556 c -0.54816,-0.27985 -0.56776,-0.15724 -1.11593,-0.15724 -1.14235,-0.0219 -0.8019,1.07931 -1.07209,1.72277 0.39365,2.23346 0.46051,4.35999 3.37941,7.14994 0.0389,-2.92917 0.16566,-6.20157 -1.19139,-8.71547 z" />
    <path id="C_72-Z_46" fill-opacity="0" d="m 365.76033,259.98999 -1.47059,-25.85711" />
    <path id="C_72-Z_47" fill-opacity="0" d="m 364.22405,234.31401 1.4255,-20.78227" />
    <path id="C_72-Z_48" fill-opacity="0" d="m 365.46376,213.71289 2.78721,-23.3059" />
    <path id="C_73-Z_24" fill-opacity="0" d="m 414.64503,190.42664 c 0.5608,-0.32241 0.8511,-0.60385 1.4119,-0.60385 1.1687,-0.0251 1.253,0.88123 1.5294,1.62258 -0.4028,2.57334 -1.5255,5.32541 -4.5116,8.53991 -0.04,-3.37489 0.182,-6.6622 1.5703,-9.55864 z" />
    <path id="C_73-Z_23" fill-opacity="0" d="m 384.92733,190.01806 c -0.6523,-0.23671 -0.6757,-0.13301 -1.3281,-0.13301 -1.3597,-0.0185 -0.9544,0.91294 -1.2759,1.45719 0.4684,1.88918 0.548,3.6879 4.0221,6.04778 0.046,-2.47765 0.1971,-5.2456 -1.4181,-7.37196 z" />
    <path id="C_55-Z_51" fill-opacity="0" d="m 123.09039,71.434012 1.82375,16.52869" />
    <path id="C_54-Z_13" fill-opacity="0" d="m 181.97143,112.00995 -4.66593,-0.087 0.0353,7.69782 c 7.4383,0.23926 5.32129,5.01631 4.63063,-7.61078 z" />
    <path id="C_54-Z_14" fill-opacity="0" d="m 177.12782,119.9492 0.0418,-8.02629 -18.64611,0.33002 c 2.25814,7.5705 12.81267,5.81634 18.60431,7.69627 z" />
    <path id="C_54-Z_12" fill-opacity="0" d="m 182.84797,120.69889 -0.88416,-8.77598 5.36994,0 -0.11481,9.36685 c -2.32503,0.49461 0.82823,0.50026 -4.37097,-0.59087 z" />
    <path id="C_54-Z_11" fill-opacity="0" d="m 187.22739,121.51788 0.1201,-9.78563 14.35256,0.17407 c 2.35201,0.38719 -3.80552,8.40209 -14.47266,9.61156 z" />
    <path id="C_54-Z_9" fill-opacity="0" d="m 181.84364,111.92291 0.0929,-8.09766 -6.73085,0 1.95105,8.09766 z" />
    <path id="C_54-Z_8" fill-opacity="0" d="m 187.30375,111.92291 2.41559,-8.37637 -7.65801,0.27872 -0.27871,8.09765 z" />
    <path id="C_54-Z_7" fill-opacity="0" d="m 201.90571,112.04183 c 0.27608,0.0156 1.2633,-4.62639 -0.24099,-8.0509 l -12.01346,-0.25199 -2.13688,8.18397 z" />
    <path id="C_54-Z_4" fill-opacity="0" d="m 189.80207,103.76583 11.94516,0.27873 c 0.11439,-1.62235 -1.74502,-5.412123 -2.3409,-8.332058 l -7.70956,0 z" />
    <path id="C_54-Z_6" fill-opacity="0" d="m 174.91444,103.67292 -16.83688,0.0545 c 0.19606,-1.65494 0.003,-6.662015 1.46309,-8.129625 l 12.53772,0.246177 z" />
    <path id="C_54-Z_1" fill-opacity="0" d="m 199.40903,95.755672 c -1.2747,-4.15927 -1.41015,-2.63663 -1.09177,-7.79297 l -4.20363,0 -2.35386,7.80892 z" />
    <path id="C_54-Z_3" fill-opacity="0" d="m 158.97316,95.711265 c 2.2315,-6.09031 1.69049,-5.793136 2.2235,-7.502386 l 8.59708,-0.399607 2.17389,8.01675 z" />
    <path id="C_54-Z_5" fill-opacity="0" d="m 191.7484,95.930212 -1.4359,5.816418 c -0.0712,1.44282 -1.61782,2.58994 -3.21075,2.29793 l -9.29093,-1e-5 c -1.4124,-0.0568 -3.2165,0.47795 -3.21222,-1.45353 l -2.55615,-6.660808 z" />
    <path id="C_54-Z_2" fill-opacity="0" d="m 194.23395,87.962702 -24.61793,0 2.50374,8.05525 19.91884,-0.14733 z" />
    <path id="C_54-Z_20" fill-opacity="0" d="m 188.64537,87.962702 c -0.61023,-9.82727 -2.3746,-22.43329 -3.17274,-34.84463 -1.2192,-3.88025 -6.32378,-6.94166 -7.85252,-2.20175 -1.4488,14.01968 -1.8885,28.07155 -2.40348,37.04638 z" />
    <path id="C_54-Z_21" fill-opacity="0" transform="matrix(-0.15189788,0,0,0.16745961,396.34839,27.852042)" d="m 1378.1512,-0.92526352 a 27.753941,12.551146 0 1 1 -55.5079,0 27.753941,12.551146 0 1 1 55.5079,0 z" />
    <path id="C_54-Z_46" fill-opacity="0" d="m 189.97126,31.882355 -0.34515,23.999347" />
    <path id="C_54-Z_47" fill-opacity="0" d="m 189.74511,56.069042 0.18466,15.06757" />
    <path id="C_54-Z_48" fill-opacity="0" d="m 189.90722,70.955472 -0.80953,17.00723" />
    <path id="C_54-Z_24" fill-opacity="0" d="m 160.76955,87.962702 c -0.56075,0.32243 -1.77087,0.60385 -2.33165,0.60385 -1.16868,0.0251 -1.25295,-0.88122 -1.52935,-1.62258 0.40273,-2.57335 0.4848,-5.00819 3.47091,-8.2227 0.0397,3.37492 1.77842,6.34499 0.39009,9.24143 z" />
    <path id="C_54-Z_23" fill-opacity="0" d="m 200.02964,87.962702 c 0.58833,0.2367 1.39773,0 1.9861,0 1.22626,0.0185 0.7294,-2.48801 1.01942,-3.03228 -0.42255,-1.88916 -1.15125,-6.41867 -4.28443,-8.77855 -0.0418,2.47764 -0.17783,9.68445 1.27891,11.81083 z" />
    <path id="C_54-Z_49" fill-opacity="0" d="m 168.9895,33.313018 1.33541,23.388914" />
    <path id="C_54-Z_50" fill-opacity="0" d="m 170.48236,56.905202 1.57827,14.23141" />
    <path id="C_54-Z_51" fill-opacity="0" d="m 171.96772,71.125332 3.26905,16.83737" />
    <path id="C_54-Z_54" fill-opacity="0" d="m 1378.1512,-0.92526352 a 27.753941,12.551146 0 1 1 -55.5079,0 27.753941,12.551146 0 1 1 55.5079,0 z" transform="matrix(-0.16085896,0,0,0.18727494,393.45217,21.944572)" />
    <path id="C_54-Z_22" fill-opacity="0" transform="matrix(-0.16085896,0,0,0.18727494,383.46648,29.171072)" d="m 1378.1512,-0.92526352 a 27.753941,12.551146 0 1 1 -55.5079,0 27.753941,12.551146 0 1 1 55.5079,0 z" />
    <path id="C_54-Z_52" fill-opacity="0" d="m 177.35775,26.675673 4.51632,29.468799" />
    <path id="C_54-Z_53" fill-opacity="0" d="m 181.86167,56.069042 0.18465,15.06757" />
    <path id="C_54-Z_10" fill-opacity="0" d="m 158.75926,103.74708 c -0.86499,2.63898 -0.73392,5.47719 -0.37162,8.36164 l 18.67436,-0.18581 -2.04396,-8.26873 z" />
    <path id="C_55-Z_13" fill-opacity="0" d="m 134.58375,111.92291 -4.57889,0 -0.32463,5.65973 c 2.41907,1.06433 3.06214,1.84496 5.28311,1.87969 0.2717,-2.4128 -0.34782,-4.84654 -0.37959,-7.53942 z" />
    <path id="C_55-Z_14" fill-opacity="0" d="m 129.92009,117.57891 -0.0512,-5.656 -17.90287,0.23711 c 5.44228,4.52382 17.67481,2.06803 17.95407,5.41889 z" />
    <path id="C_55-Z_12" fill-opacity="0" d="m 134.66312,111.92291 5.36995,0 -0.18997,7.74735 c -1.68906,-0.10208 -3.56394,-0.48291 -5.25302,-0.58501 0.5838,1.38669 0.0745,-5.51421 0.073,-7.16234 z" />
    <path id="C_55-Z_11" fill-opacity="0" d="m 139.7468,120.26314 0.21302,-8.34023 15.40201,-0.0887 c -5.84262,6.14162 -9.69293,8.53595 -15.61503,8.42894 z" />
    <path id="C_55-Z_9" fill-opacity="0" d="m 134.543,111.92291 0.0929,-8.09766 -6.73087,0 1.95105,8.09766 z" />
    <path id="C_55-Z_8" fill-opacity="0" d="m 140.00311,111.92291 2.41559,-8.37637 -7.65802,0.27872 -0.27869,8.09765 z" />
    <path id="C_55-Z_7" fill-opacity="0" d="m 157.1705,112.05431 c 0.25481,0.0156 0.4987,-4.59618 0.25156,-8.02071 l -15.07144,-0.29466 -2.13687,8.18397 z" />
    <path id="C_55-Z_4" fill-opacity="0" d="m 142.50143,103.76583 14.47924,0.14733 c 0.51232,-1.66654 -1.2899,-5.452268 -3.42968,-8.200658 l -9.15486,0 z" />
    <path id="C_55-Z_6" fill-opacity="0" d="m 127.6138,103.67292 -19.18069,-0.29365 c 0.19604,-1.65494 0.56853,-6.241761 2.02872,-7.709371 l 14.31589,0.174073 z" />
    <path id="C_55-Z_1" fill-opacity="0" d="m 153.68508,95.887062 c -1.05815,-4.20256 -0.9646,-3.04107 -2.01149,-7.92436 l -4.8606,0 -2.35386,7.80892 z" />
    <path id="C_55-Z_3" fill-opacity="0" d="m 109.91547,95.783369 c 2.2315,-6.09031 2.94337,-6.111417 3.47638,-7.820667 l 9.10123,-0.15343 2.17391,8.01675 z" />
    <path id="C_55-Z_5" fill-opacity="0" d="m 144.44775,95.930212 -1.43588,5.816418 c -0.0712,1.44282 -1.61784,2.58994 -3.21076,2.29793 l -9.29092,-1e-5 c -1.41241,-0.0568 -3.21652,0.47795 -3.21224,-1.45353 l -2.55615,-6.660808 z" />
    <path id="C_55-Z_2" fill-opacity="0" d="m 146.9333,87.962702 -24.61793,0 2.50375,8.05525 19.91885,-0.14733 z" />
    <path id="C_55-Z_20" fill-opacity="0" d="m 141.34473,87.962702 c -0.61023,-9.82727 -2.37459,-22.43329 -3.17273,-34.84463 -1.21921,-3.88025 -6.32381,-6.94166 -7.85252,-2.20175 -1.4488,14.01968 -1.88851,28.07155 -2.40348,37.04638 z" />
    <path id="C_55-Z_21" fill-opacity="0" d="m 1378.1512,-0.92526352 a 27.753941,12.551146 0 1 1 -55.5079,0 27.753941,12.551146 0 1 1 55.5079,0 z" transform="matrix(-0.15189788,0,0,0.16745961,341.68987,20.596422)" />
    <path id="C_55-Z_46" fill-opacity="0" d="m 136.88944,26.755766 5.43604,29.125936" />
    <path id="C_55-Z_47" fill-opacity="0" d="m 142.31308,55.412082 1.62995,16.25007" />
    <path id="C_55-Z_48" fill-opacity="0" d="m 144.05188,71.658312 0.24159,16.30439" />
    <path id="C_55-Z_24" fill-opacity="0" d="m 113.46891,87.962702 c -0.56075,0.32243 -1.77088,0.60385 -2.33165,0.60385 -1.16867,0.0251 -1.25295,-0.88122 -1.52934,-1.62258 0.40272,-2.57335 0.48478,-5.00819 3.47089,-8.2227 0.0397,3.37492 1.77842,6.34499 0.3901,9.24143 z" />
    <path id="C_55-Z_23" fill-opacity="0" d="m 152.72899,87.962702 c 0.58835,0.2367 1.39773,0 1.9861,0 1.22628,0.0185 0.7294,-2.48801 1.01944,-3.03228 -0.42255,-1.88916 -1.15125,-1.9798 -4.28444,-4.33968 -0.0416,2.47764 -0.17783,5.24558 1.2789,7.37196 z" />
    <path id="C_55-Z_49" fill-opacity="0" d="m 124.71084,31.976957 -1.68659,24.724975" />
    <path id="C_55-Z_50" fill-opacity="0" d="m 123.18171,56.248252 -0.12979,15.15113" />
    <path id="C_55-Z_54" fill-opacity="0" transform="matrix(-0.16085896,0,0,0.18727494,347.33404,39.112802)" d="m 1378.1512,-0.92526352 a 27.753941,12.551146 0 1 1 -55.5079,0 27.753941,12.551146 0 1 1 55.5079,0 z" />
    <path id="C_55-Z_22" fill-opacity="0" d="m 1378.1512,-0.92526352 a 27.753941,12.551146 0 1 1 -55.5079,0 27.753941,12.551146 0 1 1 55.5079,0 z" transform="matrix(-0.16085896,0,0,0.18727494,337.61113,27.565242)" />
    <path id="C_55-Z_52" fill-opacity="0" d="m 130.31989,46.247892 4.51632,23.42984" />
    <path id="C_55-Z_53" fill-opacity="0" d="m 134.56103,67.105842 0.18466,15.06758" />
    <path id="C_55-Z_10" fill-opacity="0" d="m 108.67346,103.39893 c -0.86499,2.63898 2.20285,5.55838 2.56515,8.44281 l 18.52275,0.0812 -2.04396,-8.26873 z" />
    <path id="C_64-Z_13" fill-opacity="0" d="m 465.13023,122.98572 0.2867,-10.01169 4.5789,0 -0.035,8.82929 c -2.6204,0.25951 -2.6282,1.07198 -4.8302,1.1824 z" />
    <path id="C_64-Z_14" fill-opacity="0" d="m 470.17333,121.78365 -0.042,-8.80962 18.6461,0.33002 c 0.095,5.82418 -10.5017,8.94369 -18.6044,8.4796 z" />
    <path id="C_64-Z_12" fill-opacity="0" d="m 465.23663,123.14259 0.1009,-10.16856 -5.3699,0 0.2018,10.84647 c 1.689,-0.10208 3.3781,-0.57581 5.0672,-0.67791 z" />
    <path id="C_64-Z_11" fill-opacity="0" d="m 460.16093,123.89114 -0.1202,-10.91711 -16.5283,0 c -2.086,4.02657 6.4036,15.47936 16.6485,10.91711 z" />
    <path id="C_64-Z_9" fill-opacity="0" d="m 465.45763,112.97403 -0.093,-8.09765 6.7308,0 -1.951,8.09765 z" />
    <path id="C_64-Z_8" fill-opacity="0" d="m 459.99753,112.97403 -2.4156,-8.37638 7.658,0.27874 0.2786,8.09764 z" />
    <path id="C_64-Z_7" fill-opacity="0" d="m 443.48083,113.09296 c -0.2762,0.0157 -0.5671,-4.45231 0.9373,-7.87684 l 13.2318,-0.42605 2.1369,8.18396 z" />
    <path id="C_64-Z_4" fill-opacity="0" d="m 457.49923,104.81695 -12.9026,0.27872 c -0.5123,-1.66652 1.1586,-5.583668 3.2983,-8.332028 l 7.7096,0 z" />
    <path id="C_64-Z_6" fill-opacity="0" d="m 472.38693,104.72404 16.2214,0.0545 c -0.196,-1.65494 -1.3571,-6.415848 -2.8171,-7.883428 l -10.5684,0 z" />
    <path id="C_64-Z_1" fill-opacity="0" d="m 447.89223,96.806792 c 1.2747,-4.15926 1.4101,-2.63662 1.0918,-7.79298 l 4.2036,0 2.3538,7.80893 z" />
    <path id="C_64-Z_3" fill-opacity="0" d="m 485.98953,97.008562 c -2.2316,-6.09031 -1.8137,-6.2855 -2.3467,-7.99475 l -6.1353,-0.15342 -2.1739,8.01679 z" />
    <path id="C_64-Z_5" fill-opacity="0" d="m 455.55283,96.981332 1.436,5.816418 c 0.07,1.44282 1.6178,2.58995 3.2106,2.29792 l 9.291,-1e-5 c 1.4123,-0.0567 3.2165,0.47799 3.2122,-1.45353 l 2.5562,-6.660798 z" />
    <path id="C_64-Z_2" fill-opacity="0" d="m 453.06733,89.013812 24.618,0 -2.5038,8.05526 -19.9189,-0.14733 z" />
    <path id="C_64-Z_20" fill-opacity="0" d="m 458.65583,89.013812 c 0.6103,-9.82727 2.3747,-22.43328 3.1727,-34.84462 1.2193,-3.88025 6.3239,-6.94165 7.8526,-2.20175 1.4489,14.01969 1.8886,28.07155 2.4034,37.04637 z" />
    <path id="C_64-Z_21" fill-opacity="0" d="m 1378.1512,-0.92526352 a 27.753941,12.551146 0 1 1 -55.5079,0 27.753941,12.551146 0 1 1 55.5079,0 z" transform="matrix(0.15189788,0,0,0.16745961,250.95293,28.903162)" />
    <path id="C_64-Z_46" fill-opacity="0" d="m 457.33013,32.210676 0.345,24.722156" />
    <path id="C_64-Z_47" fill-opacity="0" d="m 457.55613,57.120172 -0.1847,15.06756" />
    <path id="C_64-Z_48" fill-opacity="0" d="m 457.39403,72.006592 0.6781,16.87584" />
    <path id="C_64-Z_24" fill-opacity="0" d="m 484.53163,89.013812 c 0.5608,0.32245 1.7711,0.60388 2.3318,0.60388 1.1685,0.0251 1.2529,-0.88123 1.5293,-1.62259 -0.4027,-2.57335 -0.4848,-5.0082 -3.4709,-8.2227 -0.041,3.3749 -1.7784,6.34498 -0.3902,9.24141 z" />
    <path id="C_64-Z_23" fill-opacity="0" d="m 447.27173,89.013812 c -0.5885,0.23672 -1.3979,0 -1.9862,0 -1.2263,0.0185 -0.7293,-2.48801 -1.0194,-3.03225 0.4226,-1.88919 1.1513,-1.97983 4.2844,-4.3397 0.042,2.47765 0.1779,5.24559 -1.2788,7.37195 z" />
    <path id="C_64-Z_49" fill-opacity="0" d="m 478.31163,36.27774 -1.3352,21.475322" />
    <path id="C_64-Z_50" fill-opacity="0" d="m 476.81903,57.956332 -1.5785,14.2314" />
    <path id="C_64-Z_51" fill-opacity="0" d="m 475.33353,72.176462 -3.2691,16.66009" />
    <path id="C_64-Z_54" fill-opacity="0" transform="matrix(0.16085896,0,0,0.18727494,253.84914,22.995732)" d="m 1378.1512,-0.92526352 a 27.753941,12.551146 0 1 1 -55.5079,0 27.753941,12.551146 0 1 1 55.5079,0 z" />
    <path id="C_64-Z_22" fill-opacity="0" d="m 1378.1512,-0.92526352 a 27.753941,12.551146 0 1 1 -55.5079,0 27.753941,12.551146 0 1 1 55.5079,0 z" transform="matrix(0.16085896,0,0,0.18727494,263.83482,30.222202)" />
    <path id="C_64-Z_52" fill-opacity="0" d="m 469.94343,26.65322 -4.5162,30.542402" />
    <path id="C_64-Z_53" fill-opacity="0" d="m 465.43953,57.120172 -0.1846,27.678517" />
    <path id="C_64-Z_10" fill-opacity="0" d="m 488.54203,104.79821 c 0.865,2.63899 0.7339,5.4772 0.3716,8.36163 l -18.6744,-0.18581 2.044,-8.26873 z" />
    <path id="C_65-Z_13" fill-opacity="0" d="m 512.43083,122.98572 0.2866,-10.01169 4.5789,0 -0.034,6.7389 c -2.1741,0.92883 -2.6214,2.84764 -4.8304,2.94762 z" />
    <path id="C_65-Z_14" fill-opacity="0" d="m 517.42753,119.55387 0.01,-6.57984 18.0886,0.37648 c -7.4668,8.2378 -9.3706,6.09217 -16.1623,5.49309 -0.6208,-0.0548 -1.3305,0.74469 -1.9309,0.71027 z" />
    <path id="C_65-Z_12" fill-opacity="0" d="m 512.49083,122.67806 0.1473,-9.70403 -5.3699,0 0.2947,10.05678 c 1.6892,-0.10211 3.2389,-0.25066 4.9279,-0.35275 z" />
    <path id="C_65-Z_11" fill-opacity="0" d="m 507.46173,123.07228 -0.1204,-10.09825 -17.3168,-0.26278 c 0.2699,2.99543 6.1752,7.44503 10.1172,9.83724 2.3987,1.45561 5.241,1.15289 7.32,0.52379 z" />
    <path id="C_65-Z_9" fill-opacity="0" d="m 512.75823,112.97403 -0.093,-8.09765 6.7307,0 -1.9511,8.09765 z" />
    <path id="C_65-Z_8" fill-opacity="0" d="m 507.29813,112.97403 -2.4156,-8.37638 7.6581,0.27874 0.2786,8.09764 z" />
    <path id="C_65-Z_7" fill-opacity="0" d="m 490.13093,113.10543 c -0.255,0.0156 -0.4988,-4.59618 -0.2517,-8.02069 l 15.0714,-0.29467 2.1368,8.18396 z" />
    <path id="C_65-Z_4" fill-opacity="0" d="m 504.79973,104.81695 -14.4792,0.14734 c -0.5124,-1.66655 1.2899,-5.452288 3.4297,-8.200648 l 9.1549,0 z" />
    <path id="C_65-Z_6" fill-opacity="0" d="m 519.68753,104.72404 16.2214,0.0545 c -0.1959,-1.65494 -0.1969,-6.322938 -1.6572,-7.790538 l -11.7283,-0.0929 z" />
    <path id="C_65-Z_1" fill-opacity="0" d="m 493.61633,96.938192 c 1.0581,-4.20257 0.9645,-3.04107 2.0114,-7.92438 l 4.8606,0 2.3538,7.80893 z" />
    <path id="C_65-Z_3" fill-opacity="0" d="m 534.35713,96.869192 c -2.2315,-6.09031 -1.8294,-6.14613 -2.3626,-7.85538 l -7.1863,-0.15342 -2.1739,8.01679 z" />
    <path id="C_65-Z_5" fill-opacity="0" d="m 502.85343,96.981332 1.436,5.816418 c 0.071,1.44282 1.6177,2.58995 3.2107,2.29792 l 9.2909,-1e-5 c 1.4124,-0.0567 3.2166,0.47799 3.2122,-1.45353 l 2.5561,-6.660798 z" />
    <path id="C_65-Z_2" fill-opacity="0" d="m 500.36803,89.013812 24.618,0 -2.5037,8.05526 -19.9191,-0.14733 z" />
    <path id="C_65-Z_20" fill-opacity="0" d="m 505.95653,89.013812 c 0.6103,-9.82727 2.3746,-22.43328 3.1728,-34.84462 1.2191,-3.88025 6.3236,-6.94165 7.8526,-2.20175 1.4487,14.01969 1.8884,28.07155 2.4034,37.04637 z" />
    <path id="C_65-Z_21" fill-opacity="0" transform="matrix(0.15189788,0,0,0.16745961,305.61144,23.647542)" d="m 1378.1512,-0.92526352 a 27.753941,12.551146 0 1 1 -55.5079,0 27.753941,12.551146 0 1 1 55.5079,0 z" />
    <path id="C_65-Z_46" fill-opacity="0" d="m 510.41183,26.457652 -5.4359,30.47518" />
    <path id="C_65-Z_47" fill-opacity="0" d="m 504.98813,56.463212 -1.63,16.25008" />
    <path id="C_65-Z_48" fill-opacity="0" d="m 503.24933,72.709432 -0.2416,16.30438" />
    <path id="C_65-Z_24" fill-opacity="0" d="m 529.83233,89.013812 c 0.5607,0.32245 1.771,0.60388 2.3318,0.60388 1.1686,0.0251 1.2528,-0.88123 1.5292,-1.62259 -0.4028,-2.57335 -0.4847,-5.0082 -3.471,-8.2227 -0.04,3.3749 -1.7783,6.34498 -0.39,9.24141 z" />
    <path id="C_65-Z_23" fill-opacity="0" d="m 494.57233,89.013812 c -0.5884,0.23672 -1.3979,0 -1.9862,0 -1.2263,0.0185 -0.7294,-2.48801 -1.0194,-3.03225 0.4225,-1.88919 1.1512,-1.97983 4.2845,-4.3397 0.042,2.47765 0.1777,5.24559 -1.2789,7.37195 z" />
    <path id="C_65-Z_49" fill-opacity="0" d="m 522.59033,33.818974 1.6868,23.934088" />
    <path id="C_65-Z_50" fill-opacity="0" d="m 524.11953,57.299372 0.1299,15.15114" />
    <path id="C_65-Z_51" fill-opacity="0" d="m 524.21083,72.485142 -1.8237,16.52867" />
    <path id="C_65-Z_54" fill-opacity="0" d="m 1378.1512,-0.92526352 a 27.753941,12.551146 0 1 1 -55.5079,0 27.753941,12.551146 0 1 1 55.5079,0 z" transform="matrix(0.16085896,0,0,0.18727494,299.96726,40.163912)" />
    <path id="C_65-Z_22" fill-opacity="0" transform="matrix(0.16085896,0,0,0.18727494,309.69013,30.616372)" d="m 1378.1512,-0.92526352 a 27.753941,12.551146 0 1 1 -55.5079,0 27.753941,12.551146 0 1 1 55.5079,0 z" />
    <path id="C_65-Z_52" fill-opacity="0" d="m 516.98143,47.299012 -4.5166,23.42984" />
    <path id="C_65-Z_53" fill-opacity="0" d="m 512.74033,68.156982 -0.1848,15.06756" />
    <path id="C_65-Z_10" fill-opacity="0" d="m 535.84273,104.79821 c 0.8649,2.63899 0.7338,5.4772 0.3715,8.36163 l -18.6744,-0.18581 2.0442,-8.26873 z" />
    <path id="C_74-Z_13" fill-opacity="0" d="m 445.39943,164.08029 0.2865,5.64504 4.579,0 0.2435,-7.15697 c -0.7096,0.44502 -5.3193,1.82375 -5.109,1.51193 z" />
    <path id="C_74-Z_14" fill-opacity="0" d="m 450.34973,162.58806 0.051,7.13727 18.646,-0.33 c -0.1436,-4.64466 -12.8839,-8.14273 -14.9101,-8.55662 -1.6939,-0.346 -2.1595,1.65611 -3.7872,1.74935 z" />
    <path id="C_74-Z_12" fill-opacity="0" d="m 445.22713,164.10923 0.3796,5.6161 -5.37,0 0.017,-7.22308 c 1.4042,0.14282 1.9766,1.69185 4.9745,1.60698 z" />
    <path id="C_74-Z_11" fill-opacity="0" d="m 440.09583,162.3387 0.1586,7.47955 -20.1518,-0.0929 c -3.6291,0.87765 6.0063,-16.56869 19.9932,-7.38663 z" />
    <path id="C_74-Z_9" fill-opacity="0" d="m 445.72673,169.72533 -0.093,8.09767 6.7308,0 -1.951,-8.09767 z" />
    <path id="C_74-Z_8" fill-opacity="0" d="m 440.26673,169.72533 -2.4156,8.37638 7.6579,-0.27871 0.2788,-8.09767 z" />
    <path id="C_74-Z_7" fill-opacity="0" d="m 419.54533,169.60641 c -0.2186,-7.7e-4 -0.6748,4.9363 0.01,8.15557 l 18.4348,0.14732 2.2297,-8.09105 z" />
    <path id="C_74-Z_4" fill-opacity="0" d="m 437.71543,177.6966 -18.1051,-0.0929 c -0.4687,1.62268 0.2289,4.65501 1.533,8.23913 l 14.4917,-0.0929 z" />
    <path id="C_74-Z_6" fill-opacity="0" d="m 452.71693,177.97533 16.6862,-0.0545 c -0.1679,1.71128 0.4171,6.6193 -1.2378,7.69762 l -12.6123,0.18582 z" />
    <path id="C_74-Z_1" fill-opacity="0" d="m 421.17243,185.79966 c 1.0758,4.29195 1.4689,3.49558 2.2995,7.88588 l 9.6852,0.007 2.2609,-7.90871 z" />
    <path id="C_74-Z_3" fill-opacity="0" d="m 468.36093,185.69082 c -2.5927,8.97914 -1.8136,6.2855 -2.3468,7.99472 l -7.9934,0.007 -2.3597,-8.05606 z" />
    <path id="C_74-Z_5" fill-opacity="0" d="m 435.82203,185.71804 1.4358,-5.81642 c 0.07,-1.44281 1.6179,-2.58996 3.2108,-2.29791 l 9.291,0 c 1.4124,0.0567 3.2166,-0.47797 3.2123,1.45353 l 2.5561,6.6608 z" />
    <path id="C_74-Z_2" fill-opacity="0" d="m 433.33643,193.68554 24.6179,0 -2.5037,-8.05522 -19.9188,0.14731 z" />
    <path id="C_74-Z_20" fill-opacity="0" d="m 438.83213,193.69247 c 3.6669,7.91683 19.1035,25.45893 24.913,32.15028 4.2211,1.24789 4.0201,0.28168 4.8796,-0.58544 0.5237,-8.85273 -12.4458,-24.2135 -16.3638,-31.56484 z" />
    <path id="C_74-Z_21" fill-opacity="0" transform="matrix(0.15189788,0,0,-0.16745961,238.0972,256.56975)" d="m 1378.1512,-0.92526352 a 27.753941,12.551146 0 1 1 -55.5079,0 27.753941,12.551146 0 1 1 55.5079,0 z" />
    <path id="C_74-Z_46" fill-opacity="0" d="m 441.78003,254.0002 -6.0655,-24.62396" />
    <path id="C_74-Z_47" fill-opacity="0" d="m 435.59563,229.56056 -0.8351,-18.0406" />
    <path id="C_74-Z_48" fill-opacity="0" d="m 434.78323,211.77142 1.274,-18.07895" />
    <path id="C_74-Z_24" fill-opacity="0" d="m 466.37763,193.68554 c 0.5607,-0.32241 1.7709,-0.60385 2.3317,-0.60385 1.1686,-0.0251 1.2528,0.88124 1.5292,1.62258 -0.4028,2.57335 -0.4847,5.0082 -3.4709,8.22269 -0.041,-3.37489 -1.7783,-6.34498 -0.39,-9.24142 z" />
    <path id="C_74-Z_23" fill-opacity="0" d="m 422.54803,193.69247 c -0.5884,-0.23673 -1.3977,0 -1.9861,0 -1.2263,-0.0186 -0.7296,2.488 -1.0195,3.03225 0.4226,1.88919 1.1511,1.97982 4.2845,4.3397 0.042,-2.47765 0.1776,-5.2456 -1.2789,-7.37195 z" />
    <path id="C_74-Z_49" fill-opacity="0" d="m 473.16743,252.41147 -6.68681,-20.42023" />
    <path id="C_74-Z_50" fill-opacity="0" d="m 466.41612,231.8507 -5.98229,-18.47261" />
    <path id="C_74-Z_51" fill-opacity="0" d="m 460.34093,213.45969 -5.6846,-19.76722" />
    <path id="C_74-Z_22" fill-opacity="0" transform="matrix(0.16085896,0,0,-0.18727494,255.85426,254.92305)" d="m 1378.1512,-0.92526352 a 27.753941,12.551146 0 1 1 -55.5079,0 27.753941,12.551146 0 1 1 55.5079,0 z" />
    <path id="C_74-Z_10" fill-opacity="0" d="m 469.27563,177.71537 c 0.2281,-2.21429 0.2441,-5.27448 -0.093,-8.17584 l -18.6743,0.1858 2.0439,8.26874 z" />
    <path id="C_75-Z_13" fill-opacity="0" d="m 492.76583,163.3926 0.2207,6.33273 4.5791,0 -0.035,-6.52995 c -2.89,1.31379 -2.7955,1.08036 -4.7646,0.19722 z" />
    <path id="C_75-Z_14" fill-opacity="0" d="m 497.61183,162.88658 0.09,6.83875 20.7831,-0.14421 c -0.55,-3.47742 -5.0796,-6.81168 -9.7957,-7.66643 -3.7956,-0.68788 -7.4805,0.76255 -11.0771,0.97189 z" />
    <path id="C_75-Z_12" fill-opacity="0" d="m 492.80643,163.27307 0.1009,6.45226 -5.3699,0 -0.076,-8.33797 c 1.6891,0.10209 3.6568,1.78361 5.3458,1.88571 z" />
    <path id="C_75-Z_11" fill-opacity="0" d="m 487.54493,161.22381 0.067,8.50152 -16.3878,-0.48047 c 0.8911,-3.62063 3.8644,-7.48759 7.0555,-8.58285 2.4868,-0.85359 4.7812,0.0612 9.2664,0.5618 z" />
    <path id="C_75-Z_9" fill-opacity="0" d="m 493.02743,169.72533 -0.093,8.09767 6.7309,0 -1.9511,-8.09767 z" />
    <path id="C_75-Z_8" fill-opacity="0" d="m 487.56723,169.72533 -2.4155,8.37638 7.658,-0.27871 0.2788,-8.09767 z" />
    <path id="C_75-Z_7" fill-opacity="0" d="m 471.23613,169.40814 c -0.2548,-0.0156 -1.3349,4.78197 -1.0878,8.2065 l 15.0716,0.29466 2.1368,-8.18397 z" />
    <path id="C_75-Z_4" fill-opacity="0" d="m 485.06903,177.88242 -14.758,-0.24024 c -0.4507,1.74356 0.2487,6.38053 1.5715,8.10775 l 11.2919,0.1858 z" />
    <path id="C_75-Z_6" fill-opacity="0" d="m 499.95663,177.97533 19.5662,-0.14732 c 0.6632,0.48887 1.0849,5.85023 -0.1706,7.88343 l -16.5595,0.0929 z" />
    <path id="C_75-Z_1" fill-opacity="0" d="m 471.84153,185.947 c 1.0581,4.20257 1.7077,2.86216 2.7547,7.74547 l 6.1612,-0.007 2.354,-7.80893 z" />
    <path id="C_75-Z_3" fill-opacity="0" d="m 519.36453,185.69082 c -2.2315,6.09032 -1.8294,6.2924 -2.3624,8.00165 l -11.9248,0.1465 -2.1739,-8.01676 z" />
    <path id="C_75-Z_5" fill-opacity="0" d="m 483.12273,185.71804 1.4359,-5.81642 c 0.07,-1.44281 1.6177,-2.58996 3.2107,-2.29791 l 9.2909,0 c 1.4125,0.0567 3.2166,-0.47797 3.2121,1.45353 l 2.5563,6.6608 z" />
    <path id="C_75-Z_2" fill-opacity="0" d="m 480.63713,193.68554 24.618,0 -2.5038,-8.05522 -19.9188,0.14731 z" />
    <path id="C_75-Z_20" fill-opacity="0" d="m 497.72773,193.69247 c 1.8384,6.93363 6.7704,20.62064 5.9322,33.07936 -1.2192,3.88026 -5.5806,6.10551 -7.1092,1.36561 -4.79439,-12.3153 -8.67437,-26.40904 -12.2518,-34.44497 z" />
    <path id="C_75-Z_46" fill-opacity="0" d="m 493.31709,246.02421 -5.38958,-19.7432" />
    <path id="C_75-Z_47" fill-opacity="0" d="m 487.92751,226.28101 -2.09215,-14.2203" />
    <path id="C_75-Z_48" fill-opacity="0" d="m 485.83536,212.06071 -1.53643,-18.36824" />
    <path id="C_75-Z_24" fill-opacity="0" d="m 517.88283,194.25042 c 0.5606,-0.32242 1.7707,-0.60386 2.3316,-0.60386 1.1686,-0.0251 1.2529,0.88125 1.5291,1.62258 -0.4026,2.57336 -0.4846,5.0082 -3.4708,8.2227 -0.041,-3.3749 -1.7784,-6.34498 -0.3899,-9.24142 z" />
    <path id="C_75-Z_23" fill-opacity="0" d="m 473.26493,193.68554 c -0.5884,-0.33392 -1.3979,0 -1.9863,0 -1.2262,-0.026 -0.7293,3.50997 -1.0195,4.27777 0.4226,2.66518 1.1514,2.79304 4.2845,6.12222 0.042,-3.49532 0.1779,-7.40021 -1.2787,-10.39999 z" />
    <path id="C_75-Z_49" fill-opacity="0" d="m 508.04107,245.28938 -1.36966,-20.48145" />
    <path id="C_75-Z_50" fill-opacity="0" d="m 506.67141,224.80793 -1.12073,-14.85147" />
    <path id="C_75-Z_51" fill-opacity="0" d="m 505.55068,209.95646 -0.47335,-16.11749" />
    <path id="C_75-Z_21" fill-opacity="0" d="m 498.39216,249.92325 a 4.464475,2.3505177 0 1 0 -8.92895,0 4.464475,2.3505177 0 1 0 8.92895,0 z" />
    <path id="C_75-Z_22" fill-opacity="0" d="m 511.92189,249.92325 a 4.464475,2.3505177 0 1 0 -8.92895,0 4.464475,2.3505177 0 1 0 8.92895,0 z" />
    <path id="C_75-Z_10" fill-opacity="0" d="m 519.64233,177.90116 c 0.4422,-3.89489 -0.9568,-8.35784 -1.3008,-8.36163 l -20.5323,0.1858 2.0439,8.26874 z" />
    <path id="C_84-Z_13" fill-opacity="0" d="m 199.9821,166.51732 -0.28669,5.64504 -4.57889,0 -0.24347,-7.15697 c 0.70956,0.44502 5.31927,1.82375 5.10905,1.51193 z" />
    <path id="C_84-Z_14" fill-opacity="0" d="m 195.03178,165.02509 -0.0512,7.13727 -18.64612,-0.33 c 0.14366,-4.64466 12.88388,-8.14273 14.9101,-8.55662 1.6939,-0.346 2.15949,1.65611 3.78722,1.74935 z" />
    <path id="C_84-Z_12" fill-opacity="0" d="m 200.15441,166.54626 -0.37961,5.6161 5.36993,0 -0.016,-7.22308 c -1.40397,0.14282 -1.97649,1.69185 -4.9743,1.60698 z" />
    <path id="C_84-Z_11" fill-opacity="0" d="m 205.28564,164.77573 -0.1586,7.47955 20.15187,-0.0929 c 3.62908,0.87765 -6.00625,-16.56869 -19.99327,-7.38663 z" />
    <path id="C_84-Z_9" fill-opacity="0" d="m 199.65465,172.16236 0.0929,8.09767 -6.73085,0 1.95105,-8.09767 z" />
    <path id="C_84-Z_8" fill-opacity="0" d="m 205.11478,172.16236 2.41558,8.37638 -7.65798,-0.27871 -0.27872,-8.09767 z" />
    <path id="C_84-Z_7" fill-opacity="0" d="m 225.83606,172.04344 c 0.21876,-7.7e-4 0.67503,4.9363 -0.008,8.15557 l -18.4348,0.14732 -2.22975,-8.09105 z" />
    <path id="C_84-Z_4" fill-opacity="0" d="m 207.66593,180.13363 18.10535,-0.0929 c 0.46846,1.62268 -0.22901,4.65501 -1.53306,8.23913 l -14.49179,-0.0929 z" />
    <path id="C_84-Z_6" fill-opacity="0" d="m 192.66447,180.41236 -16.686,-0.0545 c 0.16788,1.71128 -0.41717,6.6193 1.23766,7.69762 l 12.61226,0.18582 z" />
    <path id="C_84-Z_1" fill-opacity="0" d="m 224.20905,188.23669 c -1.0757,4.29195 -1.46889,3.49558 -2.29956,7.88588 l -9.68517,0.007 -2.26095,-7.90871 z" />
    <path id="C_84-Z_3" fill-opacity="0" d="m 177.02062,188.12785 c 2.59261,8.97914 1.81359,6.2855 2.3466,7.99472 l 7.99345,0.007 2.35972,-8.05606 z" />
    <path id="C_84-Z_5" fill-opacity="0" d="m 209.55945,188.15507 -1.43591,-5.81642 c -0.0712,-1.44281 -1.61784,-2.58996 -3.21076,-2.29791 l -9.29093,0 c -1.41239,0.0567 -3.21649,-0.47797 -3.2122,1.45353 l -2.55616,6.6608 z" />
    <path id="C_84-Z_2" fill-opacity="0" d="m 212.04499,196.12257 -24.61794,0 2.50375,-8.05522 19.91882,0.14731 z" />
    <path id="C_84-Z_20" fill-opacity="0" d="m 206.54933,196.1295 c -3.66691,7.91683 -19.10344,25.45893 -24.91304,32.15028 -4.22111,1.24789 -4.0201,0.28168 -4.87948,-0.58544 -0.52376,-8.85273 12.44579,-24.2135 16.36378,-31.56484 z" />
    <path id="C_84-Z_21" fill-opacity="0" d="m 1378.1512,-0.92526352 a 27.753941,12.551146 0 1 1 -55.5079,0 27.753941,12.551146 0 1 1 55.5079,0 z" transform="matrix(-0.15189788,0,0,-0.16745961,407.28427,259.00678)" />
    <path id="C_84-Z_46" fill-opacity="0" d="m 201.75515,256.31415 7.91178,-24.50088" />
    <path id="C_84-Z_47" fill-opacity="0" d="m 209.78593,231.99759 0.83502,-18.0406" />
    <path id="C_84-Z_48" fill-opacity="0" d="M 210.5984,214.20845 209.32433,196.1295" />
    <path id="C_84-Z_24" fill-opacity="0" d="m 179.0039,196.12257 c -0.56075,-0.32241 -1.77087,-0.60385 -2.33165,-0.60385 -1.16867,-0.0251 -1.25295,0.88124 -1.52935,1.62258 0.40272,2.57335 0.48479,5.0082 3.47091,8.22269 0.0398,-3.37489 1.77842,-6.34498 0.39009,-9.24142 z" />
    <path id="C_84-Z_23" fill-opacity="0" d="m 220.83351,196.1295 c 0.58835,-0.23673 1.39774,0 1.98612,0 1.22625,-0.0186 0.7294,2.488 1.01942,3.03225 -0.42255,1.88919 -1.15125,1.97982 -4.28444,4.3397 -0.0417,-2.47765 -0.17782,-5.2456 1.2789,-7.37195 z" />
    <path id="C_84-Z_49" fill-opacity="0" d="M 170.36775,254.35615 177.91612,234.059" />
    <path id="C_84-Z_50" fill-opacity="0" d="m 177.98069,234.04155 6.9669,-18.22643" />
    <path id="C_84-Z_51" fill-opacity="0" d="m 185.04049,215.89672 5.68464,-19.76722" />
    <path id="C_84-Z_22" fill-opacity="0" d="m 1378.1512,-0.92526352 a 27.753941,12.551146 0 1 1 -55.5079,0 27.753941,12.551146 0 1 1 55.5079,0 z" transform="matrix(-0.16085896,0,0,-0.18727494,387.52721,259.36008)" />
    <path id="C_84-Z_10" fill-opacity="0" d="m 176.10576,180.1524 c -0.22793,-2.21429 -0.24404,-5.27448 0.0929,-8.17584 l 18.67436,0.1858 -2.04397,8.26874 z" />
    <path id="C_85-Z_13" fill-opacity="0" d="m 152.39478,172.16236 -4.71028,0.26279 0.0353,-6.98983 c 2.43875,1.19277 2.45951,2.11747 4.8303,0.65709 0.36457,1.8039 -0.0626,4.15101 -0.15529,6.06995 z" />
    <path id="C_85-Z_14" fill-opacity="0" d="m 147.63821,165.455 0.0418,6.70736 -20.78299,-0.14421 c 0.99284,-8.63389 12.67626,-8.48175 20.74125,-6.56315 z" />
    <path id="C_85-Z_12" fill-opacity="0" d="m 152.57504,165.93553 -0.10087,6.22683 5.36991,0 -0.20184,-8.08726 c -1.68907,0.10208 -3.37812,1.75834 -5.0672,1.86043 z" />
    <path id="C_85-Z_11" fill-opacity="0" d="m 157.78212,163.87307 -0.0113,8.28929 16.0029,0.26279 c 0.71821,-3.9566 -5.96148,-12.74831 -15.99163,-8.55208 z" />
    <path id="C_85-Z_9" fill-opacity="0" d="m 152.35402,172.16236 0.0929,8.09767 -6.73084,0 1.95104,-8.09767 z" />
    <path id="C_85-Z_8" fill-opacity="0" d="m 157.81414,172.16236 2.41558,8.37638 -7.658,-0.27871 -0.27869,-8.09767 z" />
    <path id="C_85-Z_7" fill-opacity="0" d="m 173.66764,172.16236 c 0.25482,-0.0155 1.81257,4.46478 1.56545,7.88931 l -15.07145,0.29466 -2.13685,-8.18397 z" />
    <path id="C_85-Z_4" fill-opacity="0" d="m 160.31247,180.31945 14.75797,-0.24024 c 0.45066,1.74356 -0.24868,6.38053 -1.57157,8.10775 l -11.29172,0.1858 z" />
    <path id="C_85-Z_6" fill-opacity="0" d="m 145.42483,180.41236 -19.56608,-0.14732 c -0.66332,0.48887 -1.08496,5.85023 0.17057,7.88343 l 16.55945,0.0929 z" />
    <path id="C_85-Z_1" fill-opacity="0" d="m 173.54008,188.38403 c -1.05817,4.20257 -1.70787,2.86216 -2.75477,7.74547 l -6.1613,-0.007 -2.35384,-7.80893 z" />
    <path id="C_85-Z_3" fill-opacity="0" d="m 126.01689,188.12785 c 2.23151,6.09032 1.82954,6.2924 2.36256,8.00165 l 11.92467,0.1465 2.17391,-8.01676 z" />
    <path id="C_85-Z_5" fill-opacity="0" d="m 162.25879,188.15507 -1.43589,-5.81642 c -0.0712,-1.44281 -1.61784,-2.58996 -3.21077,-2.29791 l -9.29093,0 c -1.41239,0.0567 -3.21647,-0.47797 -3.21221,1.45353 l -2.55614,6.6608 z" />
    <path id="C_85-Z_2" fill-opacity="0" d="m 164.74433,196.12257 -24.61794,0 2.50377,-8.05522 19.91885,0.14731 z" />
    <path id="C_85-Z_20" fill-opacity="0" d="m 147.65382,196.1295 c -1.83824,6.93363 -6.77043,20.62064 -5.93216,33.07936 1.2192,3.88026 10.13476,4.87463 11.66349,0.13473 5.86738,-14.77301 5.92508,-28.1265 7.69738,-33.21409 z" />
    <path id="C_85-Z_46" fill-opacity="0" d="m 150.53677,247.16872 4.84721,-18.52373" />
    <path id="C_85-Z_47" fill-opacity="0" d="m 155.38398,228.64499 3.59385,-16.05447" />
    <path id="C_85-Z_48" fill-opacity="0" d="m 158.97783,212.59052 2.1047,-16.46102" />
    <path id="C_85-Z_24" fill-opacity="0" d="m 127.49877,196.68745 c -0.56076,-0.32242 -1.77088,-0.60386 -2.33166,-0.60386 -1.16867,-0.0251 -1.25295,0.88125 -1.52935,1.62258 0.40272,2.57336 0.48479,5.0082 3.4709,8.2227 0.0397,-3.3749 1.77843,-6.34498 0.39011,-9.24142 z" />
    <path id="C_85-Z_23" fill-opacity="0" d="m 170.11671,196.12257 c 0.58835,-0.33392 1.39774,0 1.98611,0 1.22627,-0.026 0.7294,3.50997 1.01942,4.27777 -0.42254,2.66518 -1.15124,2.79304 -4.28443,6.12222 -0.0418,-3.49532 -0.17783,-7.40021 1.2789,-10.39999 z" />
    <path id="C_85-Z_49" fill-opacity="0" d="m 136.08324,246.11022 1.52698,-18.65237" />
    <path id="C_85-Z_50" fill-opacity="0" d="m 137.61022,227.45785 1.60081,-15.06436" />
    <path id="C_85-Z_51" fill-opacity="0" d="m 139.21103,212.39349 2.03863,-16.26399" />
    <path id="C_85-Z_21" fill-opacity="0" d="m 147.16691,252.03229 a 4.4644715,2.3505159 0 1 1 8.92894,0 4.4644715,2.3505159 0 1 1 -8.92894,0 z" />
    <path id="C_85-Z_22" fill-opacity="0" d="m 133.1246,252.03229 a 4.464475,2.3505177 0 1 1 8.92895,0 4.464475,2.3505177 0 1 1 -8.92895,0 z" />
    <path id="C_85-Z_10" fill-opacity="0" d="m 125.7392,180.33819 c -0.44232,-3.89489 0.95666,-8.35784 1.30069,-8.36163 l 20.5325,0.1858 -2.04397,8.26874 z" />
    <g id="layer1" transform="translate(0.49999952,10.404671)">
        <text xml:space="preserve" x="287.44281" y="-0.34217608" id="NUM_51">
            <tspan id="tspan4816" x="287.44281" y="0">51</tspan>
        </text>
        <text xml:space="preserve" x="254.0545" y="-0.34217086" id="NUM_52" transform="translate(0,-5.2112127e-6)">
            <tspan id="tspan4820" x="254.0545" y="0">52</tspan>
        </text>
        <text xml:space="preserve" x="225.00565" y="-0.34217086" id="NUM_53" transform="translate(0,-5.2112127e-6)">
            <tspan id="tspan4824" x="225.00565" y="0">53</tspan>
        </text>
        <text xml:space="preserve" x="175.27792" y="0.15018284" id="NUM_54" transform="translate(0,-5.2112127e-6)">
            <tspan id="tspan4828" x="175.27792" y="0">54</tspan>
        </text>
        <text xml:space="preserve" x="121.61136" y="0.15018284" id="NUM_55" transform="translate(0,-5.2112127e-6)">
            <tspan id="tspan4832" x="121.61136" y="0">55</tspan>
        </text>
        <text xml:space="preserve" x="344.15524" y="-0.34217086" id="NUM_61" transform="translate(0,-5.2112127e-6)">
            <tspan id="tspan4836" x="344.15524" y="0">61</tspan>
        </text>
        <text xml:space="preserve" x="378.52823" y="0.15017763" id="NUM_62">
            <tspan id="tspan4840" x="378.52823" y="0">62</tspan>
        </text>
        <text xml:space="preserve" x="408.16122" y="-0.34217086" id="NUM_63" transform="translate(0,-5.2112127e-6)">
            <tspan id="tspan4844" x="408.16122" y="0">63</tspan>
        </text>
        <text xml:space="preserve" x="455.42719" y="-0.34217086" id="NUM_64" transform="translate(0,-5.2112127e-6)">
            <tspan id="tspan4848" x="455.42719" y="0">64</tspan>
        </text>
        <text xml:space="preserve" x="509.58606" y="0.15018284" id="NUM_65" transform="translate(0,-5.2112127e-6)">
            <tspan id="tspan4852" x="509.58606" y="0">65</tspan>
        </text>
        <text xml:space="preserve" x="341.69345" y="269.46765" id="text4854" transform="translate(0,-5.2112127e-6)">
            <tspan id="tspan4856" x="341.69345" y="269.46765" />
        </text>
        <text xml:space="preserve" x="334.4874" y="281.50858" id="NUM_71">
            <tspan id="tspan4862" x="334.4874" y="281.50858">71</tspan>
        </text>
        <text xml:space="preserve" x="356.50952" y="281.16043" id="NUM_72">
            <tspan id="tspan4866" x="356.50952" y="281.16043">72</tspan>
        </text>
        <text xml:space="preserve" x="392.88718" y="281.16043" id="NUM_73">
            <tspan id="tspan4870" x="392.88718" y="281.16043">73</tspan>
        </text>
        <text xml:space="preserve" x="447.71658" y="281.16043" id="NUM_74" transform="translate(0,-5.2112127e-6)">
            <tspan id="tspan4874" x="447.71658" y="281.16043">74</tspan>
        </text>
        <text xml:space="preserve" x="494.36823" y="281.50858" id="NUM_75" transform="translate(0,-5.2112127e-6)">
            <tspan id="tspan4878" x="494.36823" y="281.50858">75</tspan>
        </text>
        <text xml:space="preserve" x="299.23572" y="281.85672" id="NUM_81">
            <tspan id="tspan4882" x="299.23572" y="281.85672">81</tspan>
        </text>
        <text xml:space="preserve" x="272.6062" y="281.85672" id="NUM_82">
            <tspan id="tspan4886" x="272.6062" y="281.85672">82</tspan>
        </text>
        <text xml:space="preserve" x="235.70265" y="281.85672" id="NUM_83">
            <tspan id="tspan4890" x="235.70265" y="281.85672">83</tspan>
        </text>
        <text xml:space="preserve" x="187.65105" y="281.85672" id="NUM_84" transform="translate(0,-5.2112127e-6)">
            <tspan id="tspan4894" x="187.65105" y="281.85672">84</tspan>
        </text>
        <text xml:space="preserve" x="139.25865" y="282.55301" id="NUM_85" transform="translate(0,-5.2112127e-6)">
            <tspan id="tspan4898" x="139.25865" y="282.55301">85</tspan>
        </text>
    </g>
</svg>
