<svg xmlns:dc="http://purl.org/dc/elements/1.1/"
     xmlns:cc="http://creativecommons.org/ns#"
     xmlns:rdf="http://www.w3.org/1999/02/22-rdf-syntax-ns#"
     xmlns:svg="http://www.w3.org/2000/svg"
     xmlns="http://www.w3.org/2000/svg"
     xmlns:xlink="http://www.w3.org/1999/xlink"
     xmlns:sodipodi="http://sodipodi.sourceforge.net/DTD/sodipodi-0.dtd"
     id="odontogram"
     version="1.1"
     width="100%"
     height="100%"
     viewBox="0 0 2742 651">
    <metadata id="metadata8">
        <rdf:RDF>
            <cc:Work rdf:about="">
                <dc:format>image/svg+xml</dc:format>
                <dc:type rdf:resource="http://purl.org/dc/dcmitype/StillImage" />
                <dc:title/>
            </cc:Work>
        </rdf:RDF>
    </metadata>
    <title>Schema dentaire enfant - faces occlusales</title>
    <defs id="defs6" />
    <image width="2742" height="651" xlink:href="resources/svg/odontogram/background_child_occlusale.png" id="image10" x="0" y="0" />
    <path id="C_52" fill-opacity="0" d="m 1021.7801,83.063662 c 18.1512,-30.463129 45.5679,-37.568393 81.0287,-39.725234 66.9867,5.959001 67.7841,18.538969 75.5404,28.654194 -0.3381,13.598848 -9.7408,33.599898 -18.4008,53.075538 -13.7193,51.66221 -40.7439,52.86722 -51.0061,54.37809 -52.8795,3.0054 -58.5459,-42.5516 -68.7615,-56.33173 -6.359,-12.97127 -14.3425,-23.211226 -18.4007,-40.050858 z" />
    <path id="C_51" fill-opacity="0" d="m 1364.6348,56.458119 c -5.4653,-19.888905 -25.5094,-18.341954 -44.0757,-25.132657 -40.335,-14.752674 -67.6712,-8.583482 -95.4185,10.614982 -14.438,9.989745 -43.6917,18.939175 -48.9652,33.822344 -7.2241,11.766981 17.2142,21.41217 32.145,49.190032 20.7469,38.59909 47.4964,54.05992 70.4783,48.91565 64.5428,-7.20032 79.135,-52.12402 85.8361,-117.410351 z" />
    <path id="C_53" fill-opacity="0" d="m 871.94501,81.305918 c 1.2076,-15.567846 11.09138,-19.112906 24.35308,-25.950454 27.77727,-27.468612 77.70088,-21.493504 102.86004,6.012854 12.31047,4.786068 26.02047,8.835657 26.91677,20.887016 6.3171,27.299326 -8.4385,50.977906 -17.9448,74.370486 -22.87065,24.15276 -61.69605,25.3046 -74.66111,17.72235 -63.78421,-38.64529 -63.27951,-68.98329 -61.52398,-93.042252 z" />
    <path id="C_54" fill-opacity="0" d="m 803.06074,25.661529 c -49.66207,15.307639 -80.98849,46.477398 -76.46718,52.422029 0.60144,47.938032 9.71213,80.074122 23.13309,104.205042 44.23624,53.30828 79.73336,23.35854 108.5962,-12.14658 7.11031,-16.60831 13.51429,-40.66153 16.3858,-101.967388 -5.53028,-13.672435 -45.33853,-37.975906 -71.64791,-42.513103 z" />
    <path id="C_55" fill-opacity="0" d="m 659.4935,26.686659 c -48.95876,15.155417 -79.84081,46.015422 -75.38372,51.901059 0.59289,47.461472 1.97256,79.278112 15.20345,103.169222 43.60954,52.77855 86.20541,23.12641 114.65945,-12.02592 7.00927,-16.44313 13.32293,-40.25735 16.15378,-100.953935 C 724.67452,55.240653 685.43004,31.178787 659.4935,26.686659 z" />
    <path id="C_62" fill-opacity="0" d="m 1705.34,83.490314 c -17.9636,-30.366535 -43.0816,-37.0018 -78.1747,-39.15187 -66.294,5.94008 -67.0839,18.480287 -74.7597,28.563518 -1.7298,13.784786 6.3855,33.854618 18.2107,52.907378 13.5773,51.49861 40.3229,52.69969 50.4784,54.20593 52.3329,2.9959 57.9405,-42.41687 68.0504,-56.15336 6.2936,-12.93016 12.1787,-23.58524 16.1949,-40.371596 z" />
    <path id="C_63" fill-opacity="0" d="m 1857.7718,80.19849 c -1.2097,-15.826723 -11.1112,-19.430684 -24.3964,-26.382007 -27.8259,-27.925354 -77.8378,-21.850859 -103.0411,6.112794 -12.3323,4.865573 -26.0661,8.982627 -26.9643,21.234406 -6.3283,27.753197 8.4537,51.825607 17.9762,75.607057 22.9113,24.55439 61.805,25.72527 74.7933,18.01699 63.8964,-39.28787 63.3911,-70.13037 61.6323,-94.58924 z" />
    <path id="C_64" fill-opacity="0" d="m 1926.8748,25.021433 c 49.3308,15.26546 80.4474,46.349796 75.9561,52.278153 -0.5977,47.806284 -9.6471,79.854224 -22.9786,103.918784 -43.9399,53.16213 -79.2,23.2945 -107.8707,-12.1132 -7.0622,-16.56264 -13.4235,-40.54996 -16.2761,-101.687509 5.493,-13.634744 45.0354,-37.871507 71.1693,-42.396228 z" />
    <path id="C_65" fill-opacity="0" d="m 2086.785,209.0876 c -15.1919,-3.23961 -24.3942,4.30068 -63.0307,-26.26699 -8.2461,-15.10784 -18.2663,-27.02492 -20.9051,-52.2176 -2.3193,-31.09682 -4.9172,-64.321461 3.4847,-71.522117 66.0468,-49.6259517 76.557,-34.394044 138.0817,10.211355 14.0199,10.164364 2.4165,52.439302 -3.0247,76.758062 -7.0744,31.6162 -20.2004,55.6827 -54.6059,63.03729 z" />
    <path id="C_61" fill-opacity="0" d="m 1364.1308,55.135887 c 5.524,-20.417569 25.7825,-18.82936 44.5479,-25.800508 40.7663,-15.144642 68.3951,-8.811629 96.439,10.896903 14.593,10.255334 44.1597,19.442447 49.4895,34.721107 7.9429,13.575859 -18.2334,25.824921 -32.4886,50.497141 -19.7872,34.24564 -44.6719,55.16345 -71.2332,50.21547 -57.0295,-4.06137 -75.6426,-51.74777 -86.7546,-120.530113 z" />
    <path id="C_61-Z_43" fill-opacity="0" d="m 1454.4158,24.924854 0.3169,29.431795 -88.0175,4.250617 c -1.6645,-5.190934 25.5499,-29.040121 87.7003,-33.682412 z" />
    <path id="C_61-Z_42" fill-opacity="0" d="m 1456.9723,25.372393 0.6336,29.115323 89.0803,13.797434 c -3.9563,-2.709861 -70.5272,-43.267837 -89.7139,-42.912757 z" />
    <path id="C_61-Z_27" fill-opacity="0" d="m 1367.4415,62.16518 c 67.1486,-14.241102 70.6549,-0.923046 70.6549,-0.923046 -17.3935,16.796464 -22.3331,44.469186 -11.2138,72.995966 -9.7919,0 -21.899,0.22396 -34.3456,0.22396 -15.9872,-20.51841 -24.2927,-60.561653 -25.0955,-72.296715 z" />
    <path id="C_61-Z_26" fill-opacity="0" d="m 1482.1961,60.190651 66.5058,10.479313 c 10.5371,7.669659 -19.8308,38.873296 -33.3314,60.365026 l -29.5748,0.98784 c 10.5572,-24.84297 11.1026,-46.147905 -3.5996,-71.832179 z" />
    <path id="C_61-Z_29" fill-opacity="0" d="m 1392.3289,136.50774 123.5279,-3.16472 c -17.1601,13.17309 -15.1992,28.32268 -54.1624,39.24226 -32.2392,5.2341 -53.1069,-11.05873 -69.3655,-36.07754 z" />
    <path id="C_61-Z_25" fill-opacity="0" d="m 1310.384,94.189934 a 29.673264,31.894791 0 1 1 -59.3466,0 29.673264,31.894791 0 1 1 59.3466,0 z" transform="matrix(0.99803769,0,0,0.99719221,178.93281,-0.03725692)" />
    <path id="C_62-Z_42" fill-opacity="0" d="m 1632.2757,48.699134 0.6334,29.115301 c 24.4943,-0.21094 39.4711,1.815796 68.1077,1.604801 1.4713,-12.304004 -47.5729,-34.577779 -68.7411,-30.720102 z" />
    <path id="C_62-Z_27" fill-opacity="0" d="m 1554.4891,78.677836 c 67.1488,-3.00983 58.6962,4.716016 58.6962,4.651582 -23.5609,29.691172 -18.0618,52.000532 1.2059,69.105732 l -31.0469,1.15717 z" />
    <path id="C_62-Z_25" fill-opacity="0" d="m 1310.384,94.189934 a 29.673264,31.894791 0 1 1 -59.3466,0 29.673264,31.894791 0 1 1 59.3466,0 z" transform="matrix(0.99803769,0,0,0.99719221,354.56446,24.489136)" />
    <path id="C_62-Z_26" fill-opacity="0" d="m 1658.5765,81.545874 44.9541,-0.408879 c -5.8154,25.001205 -23.6879,49.778585 -33.2485,74.779665 l -18.3639,-2.23768 c 18.6297,-22.49617 17.9739,-46.31344 6.6583,-72.132715 z" />
    <path id="C_62-Z_29" fill-opacity="0" d="m 1582.0169,154.78266 87.103,0.94943 c -20.0939,28.77972 -58.4625,32.33569 -87.103,-0.94943 z" />
    <path id="C_63-Z_27" fill-opacity="0" d="m 1734.4323,60.767419 c 15.1594,12.273579 20.0596,21.634609 19.1161,18.224183 -14.5825,29.301548 -14.388,34.801908 -1.6927,56.987138 l -24.9134,17.20449 c -14.2587,-17.42112 -38.7971,-81.648349 7.49,-92.415811 z" />
    <path id="C_63-Z_25" fill-opacity="0" transform="matrix(0.99803769,0,0,0.99719221,500.58112,19.425643)" d="m 1310.384,94.189934 a 29.673264,31.894791 0 1 1 -59.3466,0 29.673264,31.894791 0 1 1 59.3466,0 z" />
    <path id="C_63-Z_26" fill-opacity="0" d="m 1808.0771,79.330577 29.3063,-16.316014 c 39.0802,9.193345 10.8625,64.898017 -10.6002,86.990827 l -18.0725,-12.44435 c 8.9592,-22.51308 8.9177,-28.99181 -0.6336,-58.230463 z" />
    <path id="C_64-Z_25" fill-opacity="0" transform="matrix(0.99803769,0,0,0.99719221,653.95295,17.290111)" d="m 1310.384,94.189934 a 29.673264,31.894791 0 1 1 -59.3466,0 29.673264,31.894791 0 1 1 59.3466,0 z" />
    <path id="C_63-Z_28" fill-opacity="0" d="m 1735.3377,59.103659 18.7351,17.853329 c 16.9517,-6.148265 34.1729,-9.691494 52.8957,1.265938 l 30.9673,-17.095971 c -43.8069,-32.866806 -77.9707,-19.147674 -102.5981,-2.023296 z" />
    <path id="C_63-Z_29" fill-opacity="0" d="m 1750.9059,139.61811 -23.3142,15.69892 c 33.581,32.46718 75.9025,21.94164 97.9355,-4.14975 l -18.5587,-11.2327 c -14.9774,10.08994 -31.0948,17.04608 -56.0626,-0.31616 z" />
    <path id="C_64-Z_27" fill-opacity="0" d="m 1874.9525,54.137776 c 17.4191,10.604959 26.0487,21.802978 24.7055,18.671681 -14.5819,29.301553 -19.03,53.767633 -6.3348,75.952763 l -19.9091,17.19797 c -4.562,-25.88641 -28.3604,-117.310452 1.5384,-111.822414 z" />
    <path id="C_64-Z_26" fill-opacity="0" d="m 1956.3339,76.105237 29.1394,-17.722356 c 25.9866,6.918496 8.338,91.106579 -1.9002,109.498709 l -28.183,-23.54987 c 23.3898,-29.322 16.8746,-41.99773 0.9438,-68.226483 z" />
    <path id="C_64-Z_28" fill-opacity="0" d="m 1873.7398,51.725795 27.2397,20.887016 c 16.5758,-12.90999 38.0787,-6.29592 54.6551,1.451302 l 26.1893,-16.641763 c -38.7697,-43.491308 -81.109,-27.773703 -108.0841,-5.696555 z" />
    <path id="C_64-Z_29" fill-opacity="0" d="m 1895.0223,151.99257 -17.1294,16.4723 c 32.3937,57.16804 84.6176,31.1287 107.6913,-1.2659 l -29.7733,-20.25413 c -14.977,10.09 -35.8207,22.41028 -60.7886,5.04773 z" />
    <path id="C_65-Z_25" fill-opacity="0" transform="matrix(0.99803769,0,0,0.99719221,793.34861,18.768297)" d="m 1310.384,94.189934 a 29.673264,31.894791 0 1 1 -59.3466,0 29.673264,31.894791 0 1 1 59.3466,0 z" />
    <path id="C_65-Z_27" fill-opacity="0" d="m 2023.9789,50.692824 c 17.4196,10.60494 29.1844,24.040838 27.8411,20.909522 -14.5818,29.301604 -19.7021,55.110214 -7.0068,77.295394 l -24.3886,18.9883 c -3.5277,-11.92083 -9.7836,-20.04112 -13.8384,-48.27413 -5.5961,-38.967071 -5.5143,-63.430624 17.3927,-68.919086 z" />
    <path id="C_65-Z_26" fill-opacity="0" d="m 2102.4486,77.583485 28.9481,-13.077249 c 29.8837,10.295688 6.3265,85.044134 -0.5891,103.063264 l -31.9904,-23.10231 c 8.9592,-22.51314 13.183,-37.64511 3.6314,-66.883705 z" />
    <path id="C_65-Z_28" fill-opacity="0" d="m 2026.1257,50.000989 27.2396,20.886961 c 16.5763,-12.910046 31.1364,-2.491745 47.7122,5.255516 l 27.9211,-13.393698 c -40.384,-37.03949 -75.9039,-34.801424 -102.8729,-12.748779 z" />
    <path id="C_65-Z_29" fill-opacity="0" d="m 2044.4965,151.90421 -24.0719,18.03885 c 36.9656,56.99878 95.5868,30.72268 107.6908,-1.26585 l -29.7733,-20.25412 c -14.9769,10.08989 -28.8774,20.84385 -53.8456,3.48112 z" />
    <path id="C_62-Z_43" fill-opacity="0" d="m 1630.387,48.65928 0.3167,29.431712 -77.2142,-2.01135 c -0.6553,-6.959182 28.7841,-29.725948 76.8975,-27.420362 z" />
    <path id="C_51-Z_43" fill-opacity="0" d="m 1278.232,25.067255 -0.3167,29.431629 86.6736,5.593343 c 9.1026,-4.763174 -23.7658,-29.116965 -86.3569,-35.024972 z" />
    <path id="C_51-Z_42" fill-opacity="0" d="m 1277.9156,25.067255 -0.6335,29.115221 -91.32,12.007215 c -3.0055,-3.14981 61.6044,-46.077095 91.9535,-41.122436 z" />
    <path id="C_51-Z_27" fill-opacity="0" d="m 1362.2953,62.755075 c -66.2032,-3.850317 -63.363,-2.680527 -63.4884,-4.055949 17.394,16.796426 20.3172,46.706904 9.1984,75.233704 l 30.0907,0 c 15.9862,-20.51826 23.3966,-59.442712 24.1993,-71.177755 z" />
    <path id="C_51-Z_26" fill-opacity="0" d="m 1252.4679,59.661727 -68.2977,9.136404 c 5.5709,27.178164 16.0617,42.784849 28.1804,62.602999 l 36.7416,0.31613 c -10.5572,-24.8428 -11.3264,-46.371665 3.3757,-72.055865 z" />
    <path id="C_51-Z_29" fill-opacity="0" d="m 1336.512,137.09757 -123.5278,-3.16474 c 17.1602,13.17322 15.1991,28.32275 54.1619,39.24234 32.239,5.23409 53.1072,-11.05867 69.3659,-36.0776 z" />
    <path id="C_51-Z_25" fill-opacity="0" d="m 1310.384,94.189934 a 29.673264,31.894791 0 1 1 -59.3466,0 29.673264,31.894791 0 1 1 59.3466,0 z" transform="matrix(-0.99803769,0,0,0.99719221,2555.5069,1.0001139)" />
    <path id="C_52-Z_42" fill-opacity="0" d="m 1102.1641,44.852737 -0.6331,29.115171 -73.0353,6.080486 c -1.4709,-12.304003 52.5007,-39.053409 73.6684,-35.195657 z" />
    <path id="C_52-Z_27" fill-opacity="0" d="m 1177.9348,77.292983 c -66.1784,1.271893 -55.022,0.732503 -55.1123,-0.718742 23.5608,29.691139 16.4933,54.909639 -2.7739,72.014829 l 27.2391,-0.63326 c 0,0 30.1989,-76.480903 30.6471,-70.662716 z" />
    <path id="C_52-Z_25" fill-opacity="0" d="m 1310.384,94.189934 a 29.673264,31.894791 0 1 1 -59.3466,0 29.673264,31.894791 0 1 1 59.3466,0 z" transform="matrix(-0.99803769,0,0,0.99719221,2379.8753,20.642727)" />
    <path id="C_52-Z_26" fill-opacity="0" d="m 1075.8633,77.699423 -49.8813,4.737743 c 5.8155,25.001204 21.0001,44.631514 30.5607,69.632724 l 22.1712,0 c -15.4556,-23.85517 -13.5109,-48.83187 -2.8506,-74.370467 z" />
    <path id="C_52-Z_29" fill-opacity="0" d="m 1145.7043,152.05514 -87.103,0.94951 c 19.8121,32.15177 58.1465,36.11949 87.103,-0.94951 z" />
    <path id="C_53-Z_27" fill-opacity="0" d="m 992.16855,57.776876 c -19.16399,17.350521 -24.6977,19.764684 -22.9229,16.881517 14.58147,29.301557 21.10659,37.934787 8.4112,60.119967 l 23.12155,15.19054 c 22.7243,-15.46569 29.3748,-83.874877 -8.60985,-92.192024 z" />
    <path id="C_53-Z_25" fill-opacity="0" transform="matrix(-0.99803769,0,0,0.99719221,2228.9319,18.225317)" d="m 1310.384,94.189934 a 29.673264,31.894791 0 1 1 -59.3466,0 29.673264,31.894791 0 1 1 59.3466,0 z" />
    <path id="C_53-Z_26" fill-opacity="0" d="M 921.43585,78.130255 893.02506,64.052028 c -33.87687,-3.378153 -19.39901,55.987952 7.91292,85.871912 l 19.86432,-13.56316 c -8.95958,-22.51322 -8.91805,-28.99192 0.63355,-58.230525 z" />
    <path id="C_54-Z_25" fill-opacity="0" transform="matrix(-0.99803769,0,0,0.99719221,2080.4872,21.012828)" d="m 1310.384,94.189934 a 29.673264,31.894791 0 1 1 -59.3466,0 29.673264,31.894791 0 1 1 59.3466,0 z" />
    <path id="C_53-Z_28" fill-opacity="0" d="M 989.02349,56.11308 965.58519,73.518972 925.23201,76.575054 893.3688,61.493097 C 937.17525,28.62618 964.39643,38.988629 989.02349,56.11308 z" />
    <path id="C_53-Z_29" fill-opacity="0" d="m 978.60718,138.41774 19.95421,12.34244 c -37.83912,41.72812 -64.00339,21.75216 -93.45654,-0.56954 l 17.43929,-11.45655 c 14.97699,10.08994 31.09439,17.04615 56.06304,-0.31615 z" />
    <path id="C_54-Z_27" fill-opacity="0" d="m 854.56011,54.727672 c -17.41917,10.60494 -33.21551,23.593235 -31.87265,20.461882 14.58233,29.301606 19.03044,53.767636 6.33506,75.952876 l 24.38862,18.9882 c 9.60425,-19.33651 36.62639,-112.674565 1.14897,-115.402958 z" />
    <path id="C_54-Z_26" fill-opacity="0" d="m 770.26731,78.037842 -29.1398,-17.722357 c -23.64164,6.137354 -0.57234,88.520165 1.90064,109.498675 l 31.98992,-23.10229 c -8.95871,-22.5133 -14.30193,-39.43547 -4.75076,-68.674028 z" />
    <path id="C_54-Z_28" fill-opacity="0" d="M 854.42911,52.091879 820.47047,75.664307 C 803.89418,62.754206 787.31833,69.815938 770.74204,77.563085 L 744.10476,60.026241 C 802.65578,12.829138 827.45619,30.01436 854.42911,52.091879 z" />
    <path id="C_54-Z_29" fill-opacity="0" d="m 829.33888,154.14881 24.07226,18.03882 c -32.39316,57.16805 -84.61767,31.12871 -107.69126,-1.26582 l 29.77336,-20.25414 c 14.97743,10.08999 28.87782,20.8439 53.84564,3.48114 z" />
    <path id="C_55-Z_25" fill-opacity="0" transform="matrix(-0.99803769,0,0,0.99719221,1930.341,21.59599)" d="m 1310.384,94.189934 a 29.673264,31.894791 0 1 1 -59.3466,0 29.673264,31.894791 0 1 1 59.3466,0 z" />
    <path id="C_55-Z_27" fill-opacity="0" d="m 704.86157,52.625315 c -17.41915,10.605127 -26.04869,21.803034 -24.70539,18.671792 14.58146,29.301613 19.03042,53.767583 6.33419,75.952803 l 24.38905,18.98815 c 11.17914,-17.50132 40.75644,-97.71545 -6.01785,-113.612745 z" />
    <path id="C_55-Z_26" fill-opacity="0" d="M 624.60037,75.488064 603.49124,63.529709 c -29.2982,11.789228 -12.42612,87.470751 -6.13044,104.629811 l 27.51098,-20.86465 c -8.95914,-22.51319 -9.82299,-42.56825 -0.27396,-71.806806 z" />
    <path id="C_55-Z_28" fill-opacity="0" d="m 704.28282,50.143224 -27.2396,20.887128 c -16.57629,-12.910101 -33.15214,-5.84848 -49.72799,1.898721 L 604.09781,59.759061 c 40.38401,-37.039315 73.21596,-31.668426 100.18501,-9.615837 z" />
    <path id="C_55-Z_29" fill-opacity="0" d="m 679.19257,154.73196 24.07229,18.03884 c -32.39317,57.16792 -84.61769,31.12865 -107.69086,-1.26594 l 29.77338,-20.25414 c 14.97699,10.08995 28.87696,20.8439 53.84519,3.48124 z" />
    <path id="C_52-Z_43" fill-opacity="0" d="m 1104.0532,44.812883 -0.3167,29.431694 72.5109,0.226678 c -0.1756,-6.543535 -27.6587,-30.176308 -72.1942,-29.658168 z" />
    <path id="C_71" fill-opacity="0" d="m 1379.9542,536.55929 c -24.2357,1.9471 -59.6885,18.38303 -55.9994,51.07582 -4.8065,22.9606 4.5709,40.91224 56.3167,49.3525 53.2473,-3.23991 64.6576,-19.39108 62.9789,-41.83214 -4.9598,-48.72099 -50.6462,-62.61713 -63.2962,-58.59618 z" />
    <path id="C_75" fill-opacity="0" d="m 1923.9117,504.89541 c 103.2866,27.6642 32.156,124.86763 -27.2957,143.03403 -40.0843,12.24865 -79.1194,-23.62027 -60.6484,-112.01403 8.682,-15.50823 17.305,-30.62763 24.2298,-34.56506 12.3026,-7.8097 20.8708,-19.37726 63.7143,3.54506 z" />
    <path id="C_73" fill-opacity="0" d="m 1646.4101,524.40949 c 17.6481,13.36807 38.535,20.34092 52.9461,40.1043 2.7662,12.4785 -14.1551,69.32782 -59.7404,81.32093 -30.8554,9.25937 -85.4034,-35.40616 -67.8459,-47.48807 l -15.7718,-34.0544 c -4.6406,-15.94069 7.8502,-25.06514 13.2364,-33.45725 21.175,-16.74689 44.1724,-27.64538 77.1756,-6.42551 z" />
    <path id="C_72" fill-opacity="0" d="m 1521.6403,536.08416 c 35.4108,20.66456 36.6881,36.58871 46.7984,53.73937 0,5.22241 4.5093,10.44499 -1.9039,15.6674 7.4616,3.26662 -43.4802,34.1621 -62.8203,33.37174 -28.5159,2.20328 -57.399,-21.75628 -56.7923,-29.92493 -10.7479,-26.75296 -2.3631,-34.37578 -2.2211,-41.83205 7.1081,-15.66044 16.0035,-22.49745 24.7476,-30.08138 14.8601,-7.53615 30.2634,-13.52506 52.1916,-0.94015 z" />
    <path id="C_74" fill-opacity="0" d="m 1767.2115,505.53392 c 44.8227,5.57416 53.8932,18.01429 69.8001,29.14133 l -4.7592,55.7761 c -20.8888,13.41599 -40.8242,26.47876 -68.2136,42.30216 -10.3744,-2.35307 -17.3128,-1.75934 -58.6958,-30.70815 l -7.9322,-22.24782 c 5.8383,-16.14848 1.143,-18.42632 -2.8554,-21.6211 21.5643,-57.46951 71.3421,-52.31906 72.6561,-52.64252 z" />
    <path id="C_85" fill-opacity="0" d="m 723.11097,503.5088 c -103.28654,27.62618 -31.91726,130.67369 29.98716,144.80658 49.02155,11.19176 78.53796,-26.90885 57.95688,-113.78664 -8.68231,-15.50829 -17.30501,-30.62751 -24.22924,-34.56502 -12.30309,-7.80982 -20.87136,-19.37731 -63.7148,3.54508 z" />
    <path id="C_83" fill-opacity="0" d="m 1002.1989,521.45607 c -17.6484,13.36814 -38.53515,20.34093 -52.94589,40.1043 -2.76613,12.47862 14.15512,72.42984 59.74019,84.42298 42.82,4.0074 83.8171,-37.41151 66.2593,-49.49351 l 17.3584,-35.15088 c 4.6403,-15.94074 -7.8505,-25.06515 -13.2362,-33.45734 -21.1754,-16.74692 -44.1725,-27.64534 -77.1758,-6.42555 z" />
    <path id="C_82" fill-opacity="0" d="m 1125.3822,534.69758 c -35.4102,20.66445 -36.6884,36.58859 -46.7978,53.73931 0,5.22239 -4.5093,10.445 1.9033,15.66742 -7.4613,3.26663 43.4802,36.37786 62.8205,35.58726 28.516,2.20341 57.3994,-23.97175 56.7926,-32.14039 10.7474,-26.75299 2.3628,-34.37585 2.2208,-41.83209 -7.1086,-15.66044 -16.004,-22.49746 -24.7476,-30.08144 -14.8597,-7.5361 -30.2633,-13.52499 -52.1918,-0.94007 z" />
    <path id="C_81" fill-opacity="0" d="m 1265.618,535.16767 c -22.1459,-0.89301 -58.2434,22.63056 -60.9169,58.75288 -8.5975,23.74836 13.7661,39.50225 57.5854,44.464 15.791,-1.47732 66.611,-5.76339 60.441,-45.87409 3.3351,-52.09987 -48.4259,-59.9979 -57.1095,-57.34279 z" />
    <path id="C_84" fill-opacity="0" d="m 881.08042,502.89267 c -44.82311,5.57426 -53.89305,18.01432 -69.80073,29.14145 l 4.75876,55.77609 c 49.35105,54.23917 90.00924,55.63185 130.50027,9.37824 l 4.34212,-20.03212 c -5.83858,-16.14846 -1.14332,-18.42637 2.85571,-21.62113 -21.56466,-57.46952 -71.34271,-52.31904 -72.65613,-52.64253 z" />
    <path id="C_71-Z_43" fill-opacity="0" d="m 1385.0989,633.99866 0.3173,-29.1414 -55.4119,-1.54986 c -1.0432,6.70994 -1.3692,26.38059 55.0946,30.69126 z" />
    <path id="C_71-Z_42" fill-opacity="0" d="m 1387.6591,629.12415 1.5318,-24.39667 51.9902,-2.13971 c 5.1618,3.72591 -17.2755,33.09156 -53.522,26.53638 z" />
    <path id="C_71-Z_27" fill-opacity="0" d="m 1326.4688,601.5571 c 66.315,3.81228 44.6251,-0.003 44.7502,1.35713 -17.5258,-17.13962 -17.4371,-24.76662 -4.2781,-43.02881 l -29.6925,-1.32948 c -16.0139,20.31614 -9.9756,31.38184 -10.7796,43.00116 z" />
    <path id="C_71-Z_26" fill-opacity="0" d="m 1397.8946,601.07484 44.1834,-0.62705 c -5.5804,-26.91002 -5.3201,-21.97819 -17.4594,-41.60092 l -23.7913,-0.31303 c 11.5947,25.60523 18.3311,23.5663 -2.9327,42.54103 z" />
    <path id="C_71-Z_29" fill-opacity="0" d="m 1335.6939,558.08135 88.739,-0.41128 c -23.7918,-29.2593 -70.6166,-25.59262 -88.739,0.41128 z" />
    <path id="C_71-Z_25" fill-opacity="0" d="m 1401.7706,580.01165 c 0,-11.20538 -8.5571,-20.28923 -19.1128,-20.28923 -10.5555,0 -19.1125,9.08385 -19.1125,20.28923 0,11.20544 8.557,20.28931 19.1125,20.28931 10.5557,0 19.1128,-9.08387 19.1128,-20.28931 z" />
    <path id="C_72-Z_42" fill-opacity="0" d="m 1508.5188,631.24771 -0.7114,-28.38493 60.5959,-6.02051 c 1.4732,12.18261 -38.6804,38.22512 -59.8845,34.40544 z" />
    <path id="C_72-Z_27" fill-opacity="0" d="m 1445.1831,599.12745 c 26.1768,2.00705 42.6646,1.05033 39.3247,-1.78664 -4.953,-4.20747 -17.3098,-19.4622 0.7123,-42.21744 l -28.6318,0.62621 c -8.8844,3.90313 -15.8373,47.37703 -11.4052,43.37747 z" />
    <path id="C_72-Z_25" fill-opacity="0" d="m 1524.0842,576.62198 c 0,-12.73982 -9.7287,-23.06744 -21.7295,-23.06744 -12.0011,0 -21.7297,10.32762 -21.7297,23.06744 0,12.73979 9.7286,23.06741 21.7297,23.06741 12.0008,0 21.7295,-10.32762 21.7295,-23.06741 z" />
    <path id="C_72-Z_26" fill-opacity="0" d="m 1521.4032,598.72495 47.7229,-4.24783 c -4.9128,-24.75455 -2.7775,-15.3872 -25.228,-40.14176 l -24.0041,0.44352 c 15.297,24.07746 10.2464,23.45292 1.5092,43.94647 z" />
    <path id="C_72-Z_29" fill-opacity="0" d="m 1457.4407,553.90676 84.3953,-0.94008 c -28.1236,-27.74687 -55.6709,-35.62434 -84.3953,0.94008 z" />
    <path id="C_73-Z_27" fill-opacity="0" d="m 1577.8701,606.92933 c 19.1961,-17.17943 22.0466,-20.01284 20.2698,-17.15816 -14.3184,-23.17952 -24.3263,-26.61467 -8.9517,-55.72229 l -17.4045,-6.43755 c -17.9855,16.09954 -4.1993,75.65287 6.0864,79.318 z" />
    <path id="C_73-Z_25" fill-opacity="0" transform="matrix(0.99972937,0,0,-0.9873578,335.86949,649.63595)" d="m 1310.384,94.189934 a 29.673264,31.894791 0 1 1 -59.3466,0 29.673264,31.894791 0 1 1 59.3466,0 z" />
    <path id="C_73-Z_26" fill-opacity="0" d="m 1643.3383,588.54922 28.4589,13.93939 c 32.1806,-15.70399 17.6044,-42.93904 -9.2723,-67.29929 l -15.4111,2.35098 c 8.9744,22.29104 5.7923,22.05878 -3.7755,51.00892 z" />
    <path id="C_74-Z_25" fill-opacity="0" transform="matrix(0.99972937,0,0,-0.9873578,481.8733,645.10332)" d="m 1310.384,94.189934 a 29.673264,31.894791 0 1 1 -59.3466,0 29.673264,31.894791 0 1 1 59.3466,0 z" />
    <path id="C_73-Z_28" fill-opacity="0" d="m 1576.0845,609.90613 23.4781,-17.23421 40.4216,-3.02596 31.9173,14.93328 c -43.8808,32.54267 -71.148,22.28246 -95.817,5.32689 z" />
    <path id="C_73-Z_29" fill-opacity="0" d="m 1590.7744,532.27176 -17.2961,-6.3301 c 42.5914,-22.79546 56.0681,-13.4604 84.8717,5.88146 l -12.0839,2.48069 c -15.0023,-9.99043 -30.4812,-19.22361 -55.4917,-2.03205 z" />
    <path id="C_74-Z_27" fill-opacity="0" d="m 1709.8784,598.87 c 17.4487,-10.50042 24.747,-22.03115 23.4013,-18.93078 -14.3969,-27.56233 -13.6803,-17.80122 -1.8589,-45.95627 l -19.045,-6.8361 c -5.9042,6.29777 -28.0327,34.44611 -2.4974,71.72315 z" />
    <path id="C_74-Z_26" fill-opacity="0" d="m 1784.4432,583.32305 16.6254,13.1161 c 25.2991,-2.08252 34.8926,-33.70907 27.2613,-67.2064 l -32.9416,4.2625 c 6.8033,42.29998 -2.7586,33.60531 -10.9451,49.8278 z" />
    <path id="C_74-Z_28" fill-opacity="0" d="m 1714.4966,599.70705 20.1065,-17.579 c 16.6037,12.78275 28.2727,8.00645 44.8766,0.33559 l 21.2986,17.80712 c -53.7577,44.87336 -49.0195,17.40499 -86.2817,-0.56387 z" />
    <path id="C_74-Z_29" fill-opacity="0" d="m 1732.0015,529.67662 -17.8317,-5.00974 c 29.1957,-23.67595 87.4387,-15.71284 111.9119,2.58279 l -32.5154,4.54437 c -13.6284,-14.51542 -34.3785,-26.47161 -61.5648,-2.11742 z" />
    <path id="C_75-Z_25" fill-opacity="0" transform="matrix(0.99972937,0,0,-0.9873578,610.28796,647.6279)" d="m 1310.384,94.189934 a 29.673264,31.894791 0 1 1 -59.3466,0 29.673264,31.894791 0 1 1 59.3466,0 z" />
    <path id="C_75-Z_27" fill-opacity="0" d="m 1841.434,612.47313 c 17.4488,-10.50035 22.0549,-30.00771 20.7092,-26.90729 -14.6066,-29.01257 -10.5372,-36.84097 2.1801,-58.80735 l -14.1105,-9.05189 c -10.4172,16.42062 -26.2683,44.84634 -8.7788,94.76653 z" />
    <path id="C_75-Z_26" fill-opacity="0" d="m 1917.908,582.32512 27.3057,17.5435 c 41.4098,-12.31571 19.6595,-80.74921 -3.7353,-84.48016 l -23.9215,14.36308 c 11.5892,18.84489 12.7071,28.09899 0.3516,52.57358 z" />
    <path id="C_75-Z_28" fill-opacity="0" d="m 1845.0788,614.56055 21.244,-29.16754 c 16.477,15.83693 35.197,8.94691 51.674,-0.5568 l 32.552,19.28955 c -52.1966,43.22954 -79.584,37.31834 -105.47,10.43485 z" />
    <path id="C_75-Z_29" fill-opacity="0" d="m 1867.992,524.928 -18.127,-9.26141 c 27.1982,-37.25066 65.3276,-13.26788 88.8873,-1.82237 l -25.1952,13.38428 c -12.6736,-6.66761 -24.4365,-13.77399 -45.5651,-2.3005 z" />
    <path id="C_72-Z_43" fill-opacity="0" d="m 1505.7295,632.61659 -0.5802,-29.58455 -62.7626,-1.11059 c 0.1761,6.47904 18.7317,31.20823 63.3428,30.69514 z" />
    <path id="C_81-Z_43" fill-opacity="0" d="m 1262.5983,633.70076 -0.3172,-29.14144 55.4119,-1.5498 c 1.0427,6.70998 1.3692,26.38047 -55.0947,30.69124 z" />
    <path id="C_81-Z_42" fill-opacity="0" d="m 1260.0379,628.82622 -1.532,-24.39668 -51.9894,-2.1397 c -5.1623,3.72594 17.275,33.0916 53.5214,26.53638 z" />
    <path id="C_81-Z_27" fill-opacity="0" d="m 1321.2284,601.25913 c -66.3156,3.81236 -44.6251,-0.003 -44.7507,1.35715 17.5263,-17.13959 17.4376,-24.7665 4.2786,-43.02867 l 29.6925,-1.32945 c 16.0135,20.31593 9.9757,31.38167 10.7796,43.00097 z" />
    <path id="C_81-Z_26" fill-opacity="0" d="m 1249.8025,600.77687 -44.1838,-0.62702 c 5.5804,-26.91001 5.3202,-21.97823 17.4595,-41.60099 l 23.7918,-0.31301 c -11.5952,25.60521 -18.3316,23.56626 2.9325,42.54098 z" />
    <path id="C_81-Z_29" fill-opacity="0" d="m 1312.0032,557.78351 -88.7395,-0.41128 c 23.7924,-29.25935 70.6172,-25.59269 88.7395,0.41128 z" />
    <path id="C_81-Z_25" fill-opacity="0" d="m 1310.384,94.189934 a 29.673264,31.894791 0 1 1 -59.3466,0 29.673264,31.894791 0 1 1 59.3466,0 z" transform="matrix(-0.64410117,0,0,-0.63613043,2089.9466,639.63079)" />
    <path id="C_82-Z_42" fill-opacity="0" d="m 1139.1785,630.94987 0.7113,-28.38496 -60.5963,-6.02048 c -1.4727,12.18261 38.6809,38.22513 59.885,34.40544 z" />
    <path id="C_82-Z_27" fill-opacity="0" d="m 1202.5137,598.82951 c -26.1765,2.00718 -42.6642,1.05032 -39.3247,-1.78662 4.953,-4.20739 17.3102,-19.46212 -0.7118,-42.2174 l 28.6318,0.62696 c 8.8842,3.90314 15.8367,47.37699 11.4047,43.37736 z" />
    <path id="C_82-Z_25" fill-opacity="0" d="m 1310.384,94.189934 a 29.673264,31.894791 0 1 1 -59.3466,0 29.673264,31.894791 0 1 1 59.3466,0 z" transform="matrix(-0.73229807,0,0,-0.72323588,2083.2046,644.44553)" />
    <path id="C_82-Z_26" fill-opacity="0" d="m 1126.2936,598.42707 -47.723,-4.24784 c 4.9134,-24.75458 2.7778,-15.38721 25.2284,-40.14179 l 24.0038,0.44348 c -15.2965,24.0776 -10.2462,23.453 -1.5092,43.94646 z" />
    <path id="C_82-Z_29" fill-opacity="0" d="m 1193.1118,553.60887 -87.2507,-0.94006 c 28.1233,-27.74692 58.5265,-35.62431 87.2507,0.94006 z" />
    <path id="C_83-Z_27" fill-opacity="0" d="m 1069.8271,606.63144 c -19.1966,-17.17944 -22.0468,-20.0129 -20.2697,-17.15817 14.3175,-23.17957 22.0907,-14.45123 10.2203,-55.09552 l 18.6741,-7.06429 c 17.9853,16.09954 1.6605,75.65289 -8.6247,79.31798 z" />
    <path id="C_83-Z_25" fill-opacity="0" transform="matrix(-0.99972937,0,0,-0.9873578,2311.8277,649.33806)" d="m 1310.384,94.189934 a 29.673264,31.894791 0 1 1 -59.3466,0 29.673264,31.894791 0 1 1 59.3466,0 z" />
    <path id="C_83-Z_26" fill-opacity="0" d="m 1004.3588,588.25138 -28.45935,13.93938 c -32.17999,-15.70402 -17.60386,-42.93913 9.27245,-67.29929 l 15.4114,2.35082 c -8.97427,22.29118 -5.79216,22.05885 3.7755,51.00909 z" />
    <path id="C_84-Z_25" fill-opacity="0" transform="matrix(-0.99972937,0,0,-0.9873578,2165.8237,644.80548)" d="m 1310.384,94.189934 a 29.673264,31.894791 0 1 1 -59.3466,0 29.673264,31.894791 0 1 1 59.3466,0 z" />
    <path id="C_83-Z_28" fill-opacity="0" d="m 1071.6125,609.60833 -23.4784,-17.23425 -40.4212,-3.02609 -31.91712,14.93336 c 43.88062,32.54272 71.14802,22.28237 95.81672,5.32698 z" />
    <path id="C_83-Z_29" fill-opacity="0" d="m 1060.7297,531.66034 17.2959,-6.01646 c -42.5913,-22.79563 -59.8748,-13.46055 -88.67891,5.88133 l 12.08441,2.48065 c 15.0023,-9.99039 34.288,-19.53684 59.2986,-2.34552 z" />
    <path id="C_84-Z_27" fill-opacity="0" d="M 937.81835,598.57209 C 920.36999,588.0717 913.07139,576.54086 914.41703,579.64127 928.814,552.07901 928.09785,561.84 916.27585,533.68499 l 19.04559,-6.83608 c 5.90402,6.29786 28.03226,34.44612 2.49691,71.72318 z" />
    <path id="C_84-Z_26" fill-opacity="0" d="m 863.25398,583.02522 -16.62546,13.1161 c -25.2995,-2.08264 -34.89251,-33.70918 -27.26118,-67.20651 l 32.94119,4.26256 c -6.8034,42.29997 2.75884,33.60523 10.94545,49.82785 z" />
    <path id="C_84-Z_28" fill-opacity="0" d="m 933.20051,599.40918 -20.10676,-17.57901 c -16.60392,12.78273 -28.27282,8.00644 -44.87642,0.3356 l -21.29884,17.80701 c 53.75811,44.87335 49.01944,17.40497 86.28202,-0.56387 z" />
    <path id="C_84-Z_29" fill-opacity="0" d="m 915.69562,529.37872 17.8313,-5.00974 c -29.19535,-23.67589 -87.43814,-15.71282 -111.91149,2.58285 l 32.51548,4.54433 c 13.62799,-14.51544 34.37852,-26.47167 61.56471,-2.11744 z" />
    <path id="C_85-Z_25" fill-opacity="0" transform="matrix(-0.99972937,0,0,-0.9873578,2037.4087,647.33012)" d="m 1310.384,94.189934 a 29.673264,31.894791 0 1 1 -59.3466,0 29.673264,31.894791 0 1 1 59.3466,0 z" />
    <path id="C_85-Z_27" fill-opacity="0" d="m 806.26271,612.17525 c -17.44868,-10.50036 -22.05436,-30.00762 -20.70872,-26.90724 14.6061,-29.01264 10.53726,-36.84113 -2.18006,-58.80746 l 14.1101,-9.05185 c 10.41753,16.42062 26.26819,44.84636 8.77868,94.76655 z" />
    <path id="C_85-Z_26" fill-opacity="0" d="m 729.78866,582.02732 -27.30558,17.54346 c -41.40999,-12.31577 -19.65902,-80.74921 3.7358,-84.48014 l 23.92129,14.3629 c -11.58952,18.84501 -12.70693,28.09909 -0.35151,52.57378 z" />
    <path id="C_85-Z_28" fill-opacity="0" d="m 802.61844,614.26265 -21.2441,-29.16753 c -16.47691,15.83694 -35.19705,8.94693 -51.67413,-0.55675 l -32.55176,19.28939 c 52.19638,43.22966 79.58344,37.31857 105.46999,10.43497 z" />
    <path id="C_85-Z_29" fill-opacity="0" d="m 779.70505,524.63016 18.12708,-9.26151 c -27.19866,-37.25059 -65.32756,-13.26789 -88.88745,-1.82223 l 25.19533,13.3842 c 12.67357,-6.66762 24.43644,-13.77388 45.56504,-2.30046 z" />
    <path id="C_82-Z_43" fill-opacity="0" d="m 1141.9677,632.31882 0.5802,-29.58473 62.7624,-1.11044 c -0.1758,6.47902 -18.7319,31.20805 -63.3426,30.69517 z" />
</svg>